<svg width="191" height="58" viewBox="0 0 191 58" fill="none" xmlns="http://www.w3.org/2000/svg">
    <g clip-path="url(#clip0_49_216)">
        <path d="M66.2383 14.9746H71.9092V33.6487H78.9745V37.8924H66.2383V14.9746Z" fill="white" />
        <path d="M89.9857 38.1199C87.2884 38.1199 85.0769 37.2662 83.3513 35.559C81.6257 33.8518 80.7638 31.5827 80.7656 28.7518C80.7656 25.9244 81.622 23.6733 83.3348 21.9985C85.0476 20.3237 87.2646 19.4863 89.9857 19.4863C92.7067 19.4863 94.963 20.3129 96.7545 21.9661C98.546 23.6193 99.4417 25.9154 99.4417 28.8544C99.444 29.445 99.399 30.0348 99.3072 30.6184H86.571C86.6752 31.3625 87.0439 32.0462 87.6118 32.5482C88.1796 33.0501 88.9098 33.3378 89.6727 33.3602C90.2176 33.3859 90.7627 33.3136 91.2812 33.1468C91.562 33.0463 91.825 32.9032 92.0608 32.7227C92.2958 32.5072 92.5116 32.2722 92.7058 32.0203H98.8543C98.3486 33.815 97.2225 35.3798 95.6703 36.4451C94.0709 37.5634 92.1761 38.1217 89.9857 38.1199ZM92.4094 25.0456C91.7468 24.5092 90.9121 24.222 90.0543 24.2352C89.215 24.2136 88.398 24.5028 87.7651 25.0456C87.143 25.5819 86.7321 26.3162 86.604 27.1202H93.5348C93.5005 26.7172 93.383 26.3254 93.1895 25.9687C92.996 25.6119 92.7305 25.2978 92.4094 25.0456V25.0456Z" fill="white" />
        <path d="M108.761 19.675V22.3519C109.934 20.4358 111.803 19.4787 114.369 19.4805C116.491 19.4805 118.21 20.1765 119.526 21.5686C120.842 22.9606 121.5 24.8515 121.5 27.2413V37.8844H115.873V28.0004C115.873 26.8244 115.557 25.9159 114.926 25.2747C114.286 24.6318 113.416 24.2996 112.304 24.2996C111.193 24.2996 110.328 24.621 109.699 25.2639C109.071 25.9068 108.753 26.8145 108.753 27.9895V37.8817H103.09V19.675H108.761Z" fill="white" />
        <path d="M127.401 35.5078C125.765 33.7682 124.947 31.5378 124.947 28.8167C124.947 26.0956 125.765 23.8589 127.401 22.1067C128.147 21.2692 129.069 20.6008 130.103 20.1475C131.137 19.6942 132.259 19.4669 133.39 19.481C135.746 19.481 137.554 20.34 138.814 22.058V13.7354H144.485V37.893H138.817V35.2485C137.445 37.1646 135.608 38.1217 133.308 38.1199C131.008 38.1181 129.039 37.2474 127.401 35.5078ZM137.585 32.115C138.403 31.3316 138.813 30.2213 138.814 28.7843C138.816 27.3472 138.406 26.2423 137.585 25.4698C137.216 25.1015 136.777 24.8093 136.292 24.6103C135.808 24.4114 135.287 24.3097 134.762 24.3112C134.237 24.3127 133.718 24.4174 133.234 24.6191C132.751 24.8209 132.313 25.1156 131.947 25.486C131.129 26.2694 130.72 27.3796 130.72 28.8167C130.72 30.2538 131.13 31.3595 131.949 32.1339C132.318 32.5022 132.757 32.7943 133.242 32.9933C133.727 33.1922 134.247 33.2939 134.772 33.2924C135.297 33.2909 135.817 33.1862 136.3 32.9845C136.784 32.7828 137.221 32.4881 137.587 32.1177L137.585 32.115Z" fill="white" />
        <path d="M155.125 13.7354V22.3525C156.296 20.4364 158.165 19.4792 160.733 19.481C162.855 19.481 164.574 20.177 165.89 21.5691C167.206 22.9612 167.864 24.8521 167.864 27.2418V37.8849H162.237V28.0009C162.237 26.8249 161.921 25.9164 161.29 25.2753C160.661 24.6324 159.791 24.3001 158.693 24.3001C157.595 24.3001 156.72 24.6216 156.088 25.2645C155.457 25.9074 155.125 26.8258 155.125 28.0009V37.893H149.465V13.7354H155.125Z" fill="white" />
        <path d="M173.791 35.5069C172.144 33.7673 171.32 31.5369 171.32 28.8158C171.32 26.0947 172.144 23.858 173.791 22.1058C174.537 21.2683 175.459 20.5999 176.493 20.1466C177.527 19.6934 178.648 19.466 179.78 19.4801C182.135 19.4801 183.943 20.3391 185.204 22.0571V19.6746H190.864V37.8921H185.193V35.2476C183.82 37.1637 181.984 38.1208 179.684 38.119C177.384 38.1172 175.419 37.2465 173.791 35.5069ZM183.974 32.1141C184.792 31.3307 185.202 30.2205 185.204 28.7834C185.206 27.3463 184.796 26.2415 183.974 25.4689C183.606 25.1006 183.166 24.8084 182.682 24.6095C182.197 24.4105 181.677 24.3088 181.152 24.3103C180.627 24.3118 180.107 24.4165 179.624 24.6182C179.14 24.82 178.702 25.1147 178.336 25.4851C177.518 26.2685 177.109 27.3787 177.109 28.8158C177.109 30.2529 177.515 31.3586 178.325 32.133C178.694 32.5013 179.133 32.7935 179.618 32.9924C180.102 33.1914 180.623 33.2931 181.148 33.2915C181.673 33.29 182.192 33.1853 182.676 32.9836C183.159 32.7819 183.597 32.4872 183.963 32.1168L183.974 32.1141Z" fill="white" />
        <path d="M29.4154 56.726C45.1843 56.726 57.9676 44.1458 57.9676 28.6272C57.9676 13.1086 45.1843 0.52832 29.4154 0.52832C13.6465 0.52832 0.863281 13.1086 0.863281 28.6272C0.863281 44.1458 13.6465 56.726 29.4154 56.726Z" fill="white" />
        <path d="M48.0205 35.1053L39.1079 13.5138L38.8663 12.9276C38.4418 11.9065 37.8562 11.2078 37.1096 10.8314C36.7433 10.6051 36.3179 10.4887 35.8854 10.4965H35.6109C35.1785 10.4887 34.7531 10.6051 34.3867 10.8314C33.6419 11.2096 33.0573 11.9083 32.6327 12.9276L32.3912 13.5138L23.4896 35.1053C23.4511 35.1971 23.4182 35.2835 23.3825 35.3754H16.062L24.626 14.6375L24.8675 14.0352C25.0716 13.5685 25.1842 13.0681 25.1996 12.5602C25.2019 12.2865 25.1451 12.0154 25.0329 11.7649C24.9208 11.5143 24.7559 11.2901 24.5491 11.107C24.3396 10.9084 24.0924 10.7525 23.8215 10.6482C23.5507 10.5439 23.2616 10.4933 22.9708 10.4992C21.4849 10.4992 20.4043 11.3095 19.7291 12.9303L19.4876 13.5165L10.575 35.1053C10.1468 36.1452 9.9354 36.8908 9.9354 37.3392C9.92046 37.7287 9.99832 38.1163 10.1627 38.4709C10.3272 38.8255 10.5736 39.1373 10.8824 39.3814C11.3396 39.7326 11.8797 39.964 12.4524 40.054C12.6222 40.1151 12.8015 40.1462 12.9822 40.1459H30.1514H30.2722H30.349C31.5256 40.1459 32.4406 39.9 33.0939 39.4084C33.4148 39.1682 33.6717 38.8549 33.8424 38.4954C34.0131 38.1359 34.0925 37.741 34.0738 37.3446C34.0738 36.0588 33.1405 35.415 31.274 35.4132H30.5082C30.3956 35.3883 30.2805 35.3756 30.1651 35.3754H28.9903L35.7674 18.9623L42.5637 35.4132H40.247C38.3805 35.4132 37.4463 36.057 37.4445 37.3446C37.4264 37.7412 37.5063 38.1362 37.6775 38.4957C37.8486 38.8551 38.1059 39.1683 38.4272 39.4084C39.0804 39.9 39.9954 40.1459 41.172 40.1459H45.1439C46.2308 40.1459 47.0909 39.8928 47.724 39.3868C48.0336 39.1432 48.2808 38.8316 48.4458 38.4769C48.6107 38.1222 48.6888 37.7344 48.6738 37.3446C48.6646 36.8836 48.4469 36.1371 48.0205 35.1053Z" fill="#1A1F4C" />
    </g>
    <defs>
        <clipPath id="clip0_49_216">
            <rect width="190" height="57" fill="white" transform="translate(0.863281 0.52832)" />
        </clipPath>
    </defs>
</svg>