<svg width="97" height="29" viewBox="0 0 97 29" fill="none" xmlns="http://www.w3.org/2000/svg">
<g clip-path="url(#clip0_4600_2114)">
<path d="M33.2617 7.34985H36.1469V16.8507H39.7415V19.0098H33.2617V7.34985Z" fill="#1A1F4C"/>
<path d="M45.3432 19.1255C43.9709 19.1255 42.8458 18.6912 41.9679 17.8227C41.0899 16.9541 40.6514 15.7996 40.6523 14.3593C40.6523 12.9208 41.0881 11.7756 41.9595 10.9235C42.8309 10.0714 43.9588 9.64532 45.3432 9.64532C46.7276 9.64532 47.8756 10.0659 48.787 10.907C49.6985 11.7481 50.1542 12.9163 50.1542 14.4115C50.1554 14.712 50.1325 15.0121 50.0858 15.309H43.606C43.659 15.6876 43.8466 16.0354 44.1355 16.2908C44.4244 16.5462 44.7959 16.6926 45.184 16.7039C45.4613 16.717 45.7386 16.6802 46.0024 16.5954C46.1452 16.5443 46.2791 16.4715 46.399 16.3796C46.5186 16.27 46.6284 16.1504 46.7272 16.0223H49.8554C49.5981 16.9353 49.0252 17.7315 48.2354 18.2734C47.4217 18.8424 46.4577 19.1265 45.3432 19.1255ZM46.5764 12.4737C46.2393 12.2008 45.8146 12.0547 45.3781 12.0614C44.9511 12.0504 44.5355 12.1976 44.2135 12.4737C43.897 12.7466 43.6879 13.1201 43.6227 13.5292H47.1489C47.1315 13.3242 47.0717 13.1248 46.9733 12.9434C46.8748 12.7619 46.7397 12.6021 46.5764 12.4737Z" fill="#1A1F4C"/>
<path d="M54.895 9.74129V11.1033C55.4917 10.1284 56.4428 9.64142 57.748 9.64234C58.828 9.64234 59.7027 9.99646 60.3721 10.7047C61.0415 11.4129 61.3762 12.375 61.3762 13.5908V19.0057H58.5133V13.977C58.5133 13.3787 58.3527 12.9165 58.0315 12.5903C57.7061 12.2632 57.2634 12.0942 56.6979 12.0942C56.1323 12.0942 55.6924 12.2577 55.3726 12.5848C55.0528 12.9119 54.8908 13.3737 54.8908 13.9715V19.0044H52.0098V9.74129H54.895Z" fill="#1A1F4C"/>
<path d="M64.3793 17.7966C63.547 16.9115 63.1309 15.7767 63.1309 14.3923C63.1309 13.0079 63.547 11.8699 64.3793 10.9784C64.759 10.5524 65.2281 10.2123 65.7541 9.98169C66.2801 9.75108 66.8507 9.63539 67.4265 9.64259C68.6247 9.64259 69.5446 10.0796 70.186 10.9537V6.71936H73.0712V19.0101H70.1874V17.6646C69.4892 18.6395 68.5549 19.1265 67.3846 19.1256C66.2144 19.1246 65.2126 18.6816 64.3793 17.7966ZM69.5604 16.0704C69.9766 15.6718 70.1851 15.107 70.186 14.3758C70.187 13.6447 69.9784 13.0826 69.5604 12.6895C69.373 12.5021 69.1494 12.3535 68.9028 12.2523C68.6562 12.151 68.3916 12.0993 68.1244 12.1001C67.8573 12.1008 67.5929 12.1541 67.3469 12.2567C67.101 12.3594 66.8783 12.5093 66.692 12.6978C66.2758 13.0963 66.0677 13.6612 66.0677 14.3923C66.0677 15.1235 66.2763 15.686 66.6934 16.08C66.8808 16.2674 67.1044 16.416 67.3509 16.5173C67.5975 16.6185 67.8622 16.6702 68.1293 16.6695C68.3965 16.6687 68.6608 16.6154 68.9068 16.5128C69.1528 16.4102 69.3755 16.2602 69.5618 16.0718L69.5604 16.0704Z" fill="#1A1F4C"/>
<path d="M78.4831 6.71936V11.1035C79.079 10.1286 80.03 9.64167 81.3362 9.64259C82.4162 9.64259 83.2909 9.99671 83.9603 10.705C84.6297 11.4132 84.9643 12.3752 84.9643 13.5911V19.006H82.1015V13.9773C82.1015 13.379 81.9409 12.9167 81.6197 12.5906C81.2999 12.2635 80.8572 12.0944 80.2986 12.0944C79.74 12.0944 79.2945 12.258 78.9733 12.5851C78.6521 12.9121 78.4831 13.3794 78.4831 13.9773V19.0101H75.6035V6.71936H78.4831Z" fill="#1A1F4C"/>
<path d="M87.9815 17.7961C87.1436 16.9111 86.7246 15.7763 86.7246 14.3919C86.7246 13.0075 87.1436 11.8695 87.9815 10.978C88.3612 10.5519 88.8302 10.2119 89.3562 9.98126C89.8823 9.75065 90.4528 9.63496 91.0287 9.64216C92.2269 9.64216 93.1467 10.0792 93.7882 10.9533V9.74111H96.6678V19.0097H93.7826V17.6642C93.0843 18.6391 92.1501 19.126 90.9798 19.1251C89.8095 19.1242 88.8101 18.6812 87.9815 17.7961ZM93.1625 16.07C93.5787 15.6714 93.7872 15.1065 93.7882 14.3754C93.7891 13.6442 93.5806 13.0821 93.1625 12.6891C92.9751 12.5017 92.7515 12.353 92.505 12.2518C92.2584 12.1506 91.9937 12.0989 91.7266 12.0996C91.4594 12.1004 91.1951 12.1537 90.9491 12.2563C90.7031 12.3589 90.4804 12.5089 90.2941 12.6973C89.8779 13.0959 89.6699 13.6607 89.6699 14.3919C89.6699 15.123 89.8761 15.6856 90.2885 16.0796C90.4759 16.267 90.6995 16.4156 90.9461 16.5168C91.1927 16.6181 91.4573 16.6698 91.7245 16.669C91.9917 16.6683 92.256 16.615 92.502 16.5124C92.748 16.4097 92.9706 16.2598 93.157 16.0713L93.1625 16.07Z" fill="#1A1F4C"/>
<path d="M14.5265 28.5918C22.5493 28.5918 29.0531 22.1913 29.0531 14.2959C29.0531 6.4005 22.5493 0 14.5265 0C6.50375 0 0 6.4005 0 14.2959C0 22.1913 6.50375 28.5918 14.5265 28.5918Z" fill="#1A1F4C"/>
<path d="M23.9928 17.5918L19.4583 6.60668L19.3354 6.30844C19.1194 5.78894 18.8215 5.43345 18.4416 5.24195C18.2553 5.1268 18.0388 5.06758 17.8188 5.07154H17.6791C17.4591 5.06758 17.2427 5.1268 17.0563 5.24195C16.6774 5.43436 16.3799 5.78986 16.1639 6.30844L16.041 6.60668L11.5121 17.5918C11.4926 17.6385 11.4758 17.6825 11.4577 17.7292H7.73317L12.0903 7.1784L12.2132 6.87192C12.317 6.63449 12.3743 6.3799 12.3822 6.12153C12.3833 5.98226 12.3544 5.84433 12.2973 5.71686C12.2403 5.5894 12.1564 5.47531 12.0512 5.38214C11.9446 5.28112 11.8188 5.20181 11.681 5.14874C11.5432 5.09568 11.3961 5.06991 11.2482 5.07291C10.4922 5.07291 9.94246 5.48521 9.59892 6.30982L9.47602 6.60805L4.94154 17.5918C4.72369 18.1209 4.61615 18.5002 4.61615 18.7284C4.60855 18.9265 4.64816 19.1237 4.73182 19.3041C4.81548 19.4845 4.94086 19.6432 5.09795 19.7674C5.33055 19.9461 5.60538 20.0638 5.89676 20.1096C5.9831 20.1407 6.07435 20.1565 6.16628 20.1563H14.9015H14.9629H15.002C15.6007 20.1563 16.0662 20.0313 16.3985 19.7811C16.5618 19.6589 16.6925 19.4995 16.7794 19.3166C16.8662 19.1337 16.9066 18.9328 16.8971 18.7311C16.8971 18.0769 16.4223 17.7494 15.4727 17.7485H15.083C15.0257 17.7358 14.9672 17.7294 14.9085 17.7292H14.3108L17.7587 9.37873L21.2165 17.7485H20.0379C19.0882 17.7485 18.6129 18.076 18.612 18.7311C18.6028 18.9329 18.6435 19.1339 18.7305 19.3167C18.8176 19.4996 18.9485 19.659 19.112 19.7811C19.4443 20.0313 19.9098 20.1563 20.5085 20.1563H22.5292C23.0823 20.1563 23.5198 20.0276 23.842 19.7701C23.9995 19.6462 24.1252 19.4877 24.2092 19.3072C24.2931 19.1268 24.3328 18.9294 24.3251 18.7311C24.3205 18.4966 24.2097 18.1168 23.9928 17.5918Z" fill="white"/>
</g>
<defs>
<clipPath id="clip0_4600_2114">
<rect width="96.6667" height="29" fill="white"/>
</clipPath>
</defs>
</svg>
