<svg width="163" height="51" viewBox="0 0 163 51" fill="none" xmlns="http://www.w3.org/2000/svg">
<g clip-path="url(#clip0_1154_1461)">
<path d="M56.6035 13.1719H61.4387V29.5526H67.4628V33.2752H56.6035V13.1719Z" fill="#1C1F4D"/>
<path d="M76.8535 33.4741C74.5537 33.4741 72.6681 32.7253 71.1968 31.2278C69.7255 29.7302 68.9906 27.7398 68.9922 25.2565C68.9922 22.7763 69.7224 20.8017 71.1828 19.3326C72.6432 17.8635 74.5334 17.1289 76.8535 17.1289C79.1736 17.1289 81.0973 17.854 82.6248 19.3042C84.1523 20.7543 84.916 22.7685 84.916 25.3465C84.9179 25.8645 84.8796 26.3819 84.8013 26.8938H73.9421C74.0309 27.5466 74.3453 28.1464 74.8294 28.5867C75.3136 29.027 75.9362 29.2793 76.5867 29.2989C77.0513 29.3215 77.516 29.2581 77.9581 29.1118C78.1975 29.0237 78.4218 28.8981 78.6228 28.7397C78.8232 28.5507 79.0072 28.3446 79.1728 28.1236H84.4152C83.984 29.6979 83.0239 31.0705 81.7004 32.005C80.3367 32.986 78.7211 33.4757 76.8535 33.4741ZM78.92 22.0055C78.3551 21.5349 77.6434 21.283 76.912 21.2946C76.1964 21.2757 75.4998 21.5293 74.9601 22.0055C74.4298 22.4759 74.0794 23.12 73.9701 23.8253H79.8796C79.8503 23.4718 79.7502 23.1281 79.5852 22.8152C79.4202 22.5022 79.1938 22.2267 78.92 22.0055Z" fill="#1C1F4D"/>
<path d="M92.8606 17.2956V19.6438C93.8607 17.963 95.4545 17.1234 97.6419 17.125C99.4518 17.125 100.918 17.7356 102.039 18.9567C103.161 20.1778 103.722 21.8365 103.722 23.9327V33.2688H98.9245V24.5986C98.9245 23.567 98.6553 22.7701 98.117 22.2077C97.5717 21.6437 96.8298 21.3523 95.882 21.3523C94.9341 21.3523 94.1969 21.6343 93.661 22.1982C93.125 22.7622 92.8536 23.5583 92.8536 24.5891V33.2664H88.0254V17.2956H92.8606Z" fill="#1C1F4D"/>
<path d="M108.754 31.1846C107.36 29.6586 106.662 27.7021 106.662 25.3152C106.662 22.9282 107.36 20.9662 108.754 19.4292C109.391 18.6946 110.177 18.1082 111.058 17.7106C111.94 17.313 112.896 17.1136 113.861 17.126C115.869 17.126 117.411 17.8795 118.486 19.3865V12.0859H123.321V33.2769H118.488V30.9571C117.318 32.6379 115.752 33.4775 113.791 33.4759C111.83 33.4743 110.151 32.7106 108.754 31.1846ZM117.437 28.2084C118.135 27.5212 118.484 26.5473 118.486 25.2867C118.487 24.0261 118.138 23.057 117.437 22.3793C117.123 22.0562 116.748 21.7999 116.335 21.6254C115.922 21.4509 115.478 21.3617 115.031 21.363C114.583 21.3643 114.14 21.4562 113.728 21.6331C113.315 21.8101 112.942 22.0686 112.63 22.3935C111.933 23.0807 111.584 24.0546 111.584 25.3152C111.584 26.5758 111.933 27.5457 112.632 28.225C112.946 28.548 113.321 28.8044 113.734 28.9789C114.148 29.1534 114.591 29.2426 115.039 29.2413C115.487 29.24 115.93 29.1481 116.342 28.9712C116.754 28.7942 117.127 28.5357 117.439 28.2108L117.437 28.2084Z" fill="#1C1F4D"/>
<path d="M132.392 12.0859V19.6448C133.391 17.964 134.985 17.1244 137.174 17.126C138.983 17.126 140.449 17.7365 141.571 18.9576C142.693 20.1788 143.254 21.8374 143.254 23.9337V33.2698H138.456V24.5996C138.456 23.568 138.187 22.7711 137.649 22.2087C137.113 21.6447 136.371 21.3533 135.435 21.3533C134.499 21.3533 133.752 21.6352 133.214 22.1992C132.675 22.7632 132.392 23.5688 132.392 24.5996V33.2769H127.566V12.0859H132.392Z" fill="#1C1F4D"/>
<path d="M148.306 31.1841C146.901 29.6581 146.199 27.7017 146.199 25.3147C146.199 22.9278 146.901 20.9658 148.306 19.4288C148.942 18.6941 149.728 18.1078 150.609 17.7102C151.491 17.3126 152.447 17.1131 153.412 17.1255C155.42 17.1255 156.962 17.8791 158.037 19.3861V17.2962H162.863V33.2764H158.027V30.9566C156.857 32.6375 155.292 33.4771 153.33 33.4755C151.369 33.4739 149.694 32.7101 148.306 31.1841ZM156.988 28.208C157.686 27.5208 158.035 26.5469 158.037 25.2863C158.038 24.0257 157.689 23.0565 156.988 22.3789C156.674 22.0558 156.3 21.7995 155.886 21.625C155.473 21.4504 155.03 21.3612 154.582 21.3626C154.134 21.3639 153.691 21.4557 153.279 21.6327C152.867 21.8096 152.493 22.0682 152.181 22.3931C151.484 23.0802 151.135 24.0541 151.135 25.3147C151.135 26.5753 151.481 27.5453 152.172 28.2245C152.486 28.5476 152.861 28.8039 153.274 28.9784C153.687 29.153 154.131 29.2422 154.578 29.2408C155.026 29.2395 155.469 29.1477 155.881 28.9707C156.294 28.7938 156.667 28.5352 156.979 28.2103L156.988 28.208Z" fill="#1C1F4D"/>
<path d="M25.2077 49.7962C38.6528 49.7962 49.5522 38.7609 49.5522 25.1481C49.5522 11.5353 38.6528 0.5 25.2077 0.5C11.7627 0.5 0.863281 11.5353 0.863281 25.1481C0.863281 38.7609 11.7627 49.7962 25.2077 49.7962Z" fill="#1C1F4D"/>
<path d="M41.0698 30.8292L33.4706 11.8893L33.2647 11.3751C32.9027 10.4794 32.4034 9.86649 31.7669 9.53633C31.4545 9.3378 31.0918 9.2357 30.723 9.24251H30.489C30.1203 9.2357 29.7576 9.3378 29.4452 9.53633C28.8102 9.86807 28.3117 10.481 27.9497 11.3751L27.7438 11.8893L20.154 30.8292C20.1212 30.9097 20.0931 30.9856 20.0627 31.0661H13.8209L21.1229 12.875L21.3288 12.3466C21.5028 11.9373 21.5989 11.4983 21.612 11.0528C21.6139 10.8127 21.5655 10.5749 21.4699 10.3551C21.3742 10.1354 21.2336 9.93867 21.0573 9.77803C20.8787 9.60386 20.6679 9.46712 20.437 9.37563C20.2061 9.28413 19.9596 9.2397 19.7116 9.24488C18.4447 9.24488 17.5234 9.95574 16.9477 11.3775L16.7417 11.8917L9.14255 30.8292C8.77745 31.7414 8.59724 32.3954 8.59724 32.7888C8.5845 33.1304 8.65089 33.4704 8.79109 33.7814C8.93129 34.0925 9.14141 34.366 9.40467 34.5802C9.79448 34.8882 10.255 35.0912 10.7434 35.1702C10.8881 35.2238 11.041 35.251 11.195 35.2508H25.834H25.937H26.0025C27.0058 35.2508 27.7859 35.0351 28.3429 34.6039C28.6165 34.3932 28.8356 34.1183 28.9811 33.803C29.1266 33.4876 29.1943 33.1412 29.1784 32.7935C29.1784 31.6656 28.3827 31.1009 26.7912 31.0993H26.1383C26.0422 31.0775 25.9441 31.0663 25.8457 31.0661H24.8441L30.6224 16.6687L36.4172 31.0993H34.4419C32.8504 31.0993 32.0539 31.664 32.0524 32.7935C32.0369 33.1414 32.1051 33.4879 32.251 33.8032C32.3969 34.1185 32.6163 34.3933 32.8902 34.6039C33.4472 35.0351 34.2274 35.2508 35.2306 35.2508H38.6171C39.5439 35.2508 40.2772 35.0288 40.817 34.5849C41.081 34.3713 41.2918 34.0979 41.4324 33.7868C41.5731 33.4756 41.6396 33.1354 41.6268 32.7935C41.619 32.3891 41.4333 31.7343 41.0698 30.8292Z" fill="white"/>
</g>
<defs>
<clipPath id="clip0_1154_1461">
<rect width="162" height="50" fill="white" transform="translate(0.863281 0.5)"/>
</clipPath>
</defs>
</svg>
