<svg width="46" height="46" viewBox="0 0 46 46" fill="none" xmlns="http://www.w3.org/2000/svg">
<path d="M16.3984 27.7695V34.5195H29.8984V27.7695H45.6484V43.5195C45.6484 44.1163 45.4114 44.6886 44.9894 45.1105C44.5675 45.5325 43.9952 45.7695 43.3984 45.7695H2.89844C2.3017 45.7695 1.7294 45.5325 1.30745 45.1105C0.88549 44.6886 0.648438 44.1163 0.648438 43.5195V27.7695H16.3984ZM20.8984 23.2695H25.3984V30.0195H20.8984V23.2695ZM11.8984 9.76953V3.01953C11.8984 2.42279 12.1355 1.8505 12.5574 1.42854C12.9794 1.00658 13.5517 0.769531 14.1484 0.769531H32.1484C32.7452 0.769531 33.3175 1.00658 33.7394 1.42854C34.1614 1.8505 34.3984 2.42279 34.3984 3.01953V9.76953H43.3984C43.9952 9.76953 44.5675 10.0066 44.9894 10.4285C45.4114 10.8505 45.6484 11.4228 45.6484 12.0195V23.2695H29.8984V18.7695H16.3984V23.2695H0.648438V12.0195C0.648438 11.4228 0.88549 10.8505 1.30745 10.4285C1.7294 10.0066 2.3017 9.76953 2.89844 9.76953H11.8984ZM16.3984 5.26953V9.76953H29.8984V5.26953H16.3984Z" fill="#FFCE70"/>
</svg>
