<svg width="110" height="110" viewBox="0 0 110 110" fill="none" xmlns="http://www.w3.org/2000/svg">
<path d="M45.7304 103.125H19.5822C17.2669 103.125 14.9955 102.493 13.0135 101.296C11.0315 100.099 9.41418 98.3831 8.33625 96.3339C7.25832 94.2848 6.76076 91.9801 6.89729 89.6687C7.03383 87.3574 7.79928 85.1273 9.11097 83.2193L24.9667 60.1565H40.346L54.0135 80.0364L56.846 78.089L42.9688 57.9038V52.1355L46.9005 46.8933C47.693 45.8322 48.1224 44.5439 48.1251 43.2195C48.125 42.1759 47.8581 41.1496 47.3498 40.2382C46.8416 39.3267 46.1088 38.5603 45.2211 38.0116C44.3333 37.463 43.3201 37.1503 42.2775 37.1034C41.235 37.0564 40.1978 37.2767 39.2643 37.7433L32.6563 41.0474L26.0484 37.7435C25.1149 37.2769 24.0777 37.0566 23.0351 37.1036C21.9926 37.1505 20.9794 37.4632 20.0916 38.0118C19.2039 38.5605 18.4711 39.3269 17.9628 40.2384C17.4546 41.1498 17.1877 42.1761 17.1876 43.2197C17.1903 44.5441 17.6197 45.8324 18.4122 46.8935L22.3438 52.1357V57.904L6.27847 81.2719C4.61181 83.696 3.63917 86.5294 3.46562 89.4661C3.29207 92.4027 3.92421 95.3309 5.29374 97.9344C6.66328 100.538 8.71815 102.718 11.2364 104.238C13.7546 105.759 16.6405 106.563 19.5822 106.563H45.7304C45.9807 106.563 46.2347 106.557 46.4852 106.545L46.3275 103.111C46.1292 103.121 45.9283 103.125 45.7304 103.125ZM25.7813 56.719V53.2815H39.5313V56.719H25.7813ZM20.6251 43.2197C20.6252 42.762 20.7422 42.3119 20.9652 41.9122C21.1881 41.5125 21.5094 41.1764 21.8988 40.9357C22.2881 40.6951 22.7325 40.558 23.1897 40.5374C23.6469 40.5168 24.1018 40.6133 24.5112 40.8179L31.8876 44.5062C32.1263 44.6255 32.3895 44.6877 32.6563 44.6877C32.9232 44.6877 33.1864 44.6255 33.4251 44.5062L40.8015 40.8179C41.2109 40.6133 41.6658 40.5168 42.123 40.5374C42.5802 40.558 43.0246 40.6951 43.4139 40.9357C43.8032 41.1764 44.1246 41.5125 44.3475 41.9122C44.5704 42.3119 44.6875 42.762 44.6876 43.2197C44.6864 43.8006 44.498 44.3656 44.1505 44.831L40.3907 49.844H24.922L21.1622 44.831C20.8147 44.3656 20.6263 43.8006 20.6251 43.2197Z" fill="#1A1F4C"/>
<path d="M37.8125 80.7812V80.5305C37.8112 79.4863 37.4773 78.4696 36.8592 77.6279C36.2411 76.7862 35.371 76.1633 34.375 75.8495V73.9062H30.9375V75.8495C30.0047 76.1421 29.1805 76.7068 28.5708 77.4711C27.9612 78.2354 27.5938 79.1644 27.5158 80.139C27.4378 81.1135 27.6528 82.0892 28.1331 82.9407C28.6135 83.7922 29.3373 84.4808 30.2118 84.9181L33.5633 86.5938C33.8591 86.7417 34.0964 86.9851 34.2366 87.2847C34.3768 87.5842 34.4117 87.9223 34.3357 88.2442C34.2598 88.566 34.0774 88.8528 33.818 89.0581C33.5587 89.2633 33.2377 89.375 32.907 89.375H32.4055C32.0163 89.3746 31.6431 89.2198 31.3679 88.9446C31.0927 88.6694 30.9379 88.2962 30.9375 87.907V87.6562H27.5V87.907C27.5013 88.9512 27.8352 89.9679 28.4533 90.8096C29.0714 91.6513 29.9415 92.2742 30.9375 92.588V94.5312H34.375V92.588C35.3078 92.2954 36.132 91.7307 36.7417 90.9664C37.3513 90.2021 37.7187 89.2731 37.7967 88.2985C37.8747 87.324 37.6597 86.3483 37.1794 85.4968C36.699 84.6453 35.9752 83.9567 35.1007 83.5194L31.7492 81.8437C31.4534 81.6958 31.2161 81.4524 31.0759 81.1528C30.9357 80.8533 30.9008 80.5152 30.9768 80.1933C31.0527 79.8715 31.2351 79.5847 31.4945 79.3794C31.7538 79.1742 32.0748 79.0625 32.4055 79.0625H32.907C33.2962 79.0629 33.6694 79.2177 33.9446 79.4929C34.2198 79.7681 34.3746 80.1413 34.375 80.5305V80.7812H37.8125Z" fill="#1A1F4C"/>
<path d="M20.625 82.5H24.0625V85.9375H20.625V82.5Z" fill="#1A1F4C"/>
<path d="M41.25 82.5H44.6875V85.9375H41.25V82.5Z" fill="#1A1F4C"/>
<path d="M80.7817 87.6563C80.7802 86.2892 80.2364 84.9786 79.2698 84.0119C78.3031 83.0453 76.9925 82.5015 75.6255 82.5H55.0005C54.1591 82.4996 53.3304 82.7052 52.5867 83.0989C51.8431 83.4926 51.2072 84.0624 50.7346 84.7586C50.262 85.4547 49.967 86.256 49.8755 87.0924C49.7839 87.9288 49.8986 88.7749 50.2094 89.5568C49.1182 89.8544 48.1552 90.5026 47.4686 91.4015C46.7821 92.3004 46.4102 93.4002 46.4102 94.5313C46.4102 95.6623 46.7821 96.7621 47.4686 97.661C48.1552 98.5599 49.1182 99.2081 50.2094 99.5057C49.8986 100.288 49.7839 101.134 49.8755 101.97C49.967 102.807 50.262 103.608 50.7346 104.304C51.2072 105 51.8431 105.57 52.5867 105.964C53.3304 106.357 54.1591 106.563 55.0005 106.562H75.6255C76.8741 106.562 78.08 106.108 79.0193 105.285C79.9586 104.462 80.5675 103.327 80.7329 102.089C80.8982 100.851 80.6088 99.5958 79.9185 98.5554C79.2281 97.5149 78.1836 96.7604 76.979 96.4318C77.4652 95.2114 77.4652 93.8511 76.979 92.6307C78.0701 92.3325 79.0332 91.6842 79.7202 90.7855C80.4072 89.8868 80.7801 88.7874 80.7817 87.6563ZM51.563 92.8125H72.188C72.6438 92.8125 73.081 92.9936 73.4033 93.3159C73.7256 93.6382 73.9067 94.0754 73.9067 94.5313C73.9067 94.9871 73.7256 95.4243 73.4033 95.7466C73.081 96.0689 72.6438 96.25 72.188 96.25H51.563C51.1071 96.25 50.6699 96.0689 50.3476 95.7466C50.0253 95.4243 49.8442 94.9871 49.8442 94.5313C49.8442 94.0754 50.0253 93.6382 50.3476 93.3159C50.6699 92.9936 51.1071 92.8125 51.563 92.8125ZM75.6255 103.125H55.0005C54.5446 103.125 54.1074 102.944 53.7851 102.622C53.4628 102.299 53.2817 101.862 53.2817 101.406C53.2817 100.95 53.4628 100.513 53.7851 100.191C54.1074 99.8686 54.5446 99.6875 55.0005 99.6875H75.6255C76.0813 99.6875 76.5185 99.8686 76.8408 100.191C77.1631 100.513 77.3442 100.95 77.3442 101.406C77.3442 101.862 77.1631 102.299 76.8408 102.622C76.5185 102.944 76.0813 103.125 75.6255 103.125ZM75.6255 89.375H55.0005C54.5446 89.375 54.1074 89.1939 53.7851 88.8716C53.4628 88.5493 53.2817 88.1121 53.2817 87.6563C53.2817 87.2004 53.4628 86.7632 53.7851 86.4409C54.1074 86.1186 54.5446 85.9375 55.0005 85.9375H75.6255C76.0813 85.9375 76.5185 86.1186 76.8408 86.4409C77.1631 86.7632 77.3442 87.2004 77.3442 87.6563C77.3442 88.1121 77.1631 88.5493 76.8408 88.8716C76.5185 89.1939 76.0813 89.375 75.6255 89.375Z" fill="#1A1F4C"/>
<path d="M75.2539 20.5842L89.3767 23.7224V39.5312H92.8142V22.3438C92.8142 21.9527 92.6808 21.5733 92.4361 21.2682C92.1914 20.9631 91.8499 20.7506 91.4682 20.6658L89.3767 20.2011V13.75H85.9392V19.4371L82.5017 18.6734V10.3125H79.0642V17.9094L75.9994 17.2283L75.2539 20.5842Z" fill="#1A1F4C"/>
<path d="M37.8125 17.1875H44.6875V20.625H37.8125V17.1875Z" fill="#1A1F4C"/>
<path d="M48.125 17.1875H55V20.625H48.125V17.1875Z" fill="#1A1F4C"/>
<path d="M58.4375 17.1875H65.3125V20.625H58.4375V17.1875Z" fill="#1A1F4C"/>
<path d="M37.8125 24.0625H44.6875V27.5H37.8125V24.0625Z" fill="#1A1F4C"/>
<path d="M48.125 24.0625H55V27.5H48.125V24.0625Z" fill="#1A1F4C"/>
<path d="M58.4375 24.0625H65.3125V27.5H58.4375V24.0625Z" fill="#1A1F4C"/>
<path d="M48.125 30.9375H55V34.375H48.125V30.9375Z" fill="#1A1F4C"/>
<path d="M37.8125 30.9375H44.6875V34.375H37.8125V30.9375Z" fill="#1A1F4C"/>
<path d="M58.4375 30.9375H65.3125V34.375H58.4375V30.9375Z" fill="#1A1F4C"/>
<path d="M51.5625 37.8125H55V41.25H51.5625V37.8125Z" fill="#1A1F4C"/>
<path d="M58.4375 37.8125H65.3125V41.25H58.4375V37.8125Z" fill="#1A1F4C"/>
<path d="M51.5625 44.6875H55V48.125H51.5625V44.6875Z" fill="#1A1F4C"/>
<path d="M58.4375 44.6875H65.3125V48.125H58.4375V44.6875Z" fill="#1A1F4C"/>
<path d="M51.5625 51.5625H55V55H51.5625V51.5625Z" fill="#1A1F4C"/>
<path d="M58.4375 51.5625H65.3125V55H58.4375V51.5625Z" fill="#1A1F4C"/>
<path d="M51.5625 58.4375H55V61.875H51.5625V58.4375Z" fill="#1A1F4C"/>
<path d="M58.4375 58.4375H65.3125V61.875H58.4375V58.4375Z" fill="#1A1F4C"/>
<path d="M58.4375 65.3125H65.3125V68.75H58.4375V65.3125Z" fill="#1A1F4C"/>
<path d="M87.6562 51.5625H94.5312V55H87.6562V51.5625Z" fill="#1A1F4C"/>
<path d="M87.6562 58.4375H94.5312V61.875H87.6562V58.4375Z" fill="#1A1F4C"/>
<path d="M87.6562 65.3125H94.5312V68.75H87.6562V65.3125Z" fill="#1A1F4C"/>
<path d="M87.6562 72.1875H94.5312V75.625H87.6562V72.1875Z" fill="#1A1F4C"/>
<path d="M87.6562 79.0625H94.5312V82.5H87.6562V79.0625Z" fill="#1A1F4C"/>
<path d="M87.6562 85.9375H94.5312V89.375H87.6562V85.9375Z" fill="#1A1F4C"/>
<path d="M87.6562 92.8125H94.5312V96.25H87.6562V92.8125Z" fill="#1A1F4C"/>
<path d="M77.3438 51.5625H84.2188V55H77.3438V51.5625Z" fill="#1A1F4C"/>
<path d="M77.3438 58.4375H84.2188V61.875H77.3438V58.4375Z" fill="#1A1F4C"/>
<path d="M77.3438 65.3125H84.2188V68.75H77.3438V65.3125Z" fill="#1A1F4C"/>
<path d="M77.3438 72.1875H84.2188V75.625H77.3438V72.1875Z" fill="#1A1F4C"/>
<path d="M29.2188 13.75H30.9375V36.0938H34.375V13.75H68.75V79.0625H72.1875V13.75H73.9062C74.3621 13.75 74.7993 13.5689 75.1216 13.2466C75.4439 12.9243 75.625 12.4871 75.625 12.0312V5.15625C75.625 4.70041 75.4439 4.26324 75.1216 3.94091C74.7993 3.61858 74.3621 3.4375 73.9062 3.4375H29.2188C28.7629 3.4375 28.3257 3.61858 28.0034 3.94091C27.6811 4.26324 27.5 4.70041 27.5 5.15625V12.0312C27.5 12.4871 27.6811 12.9243 28.0034 13.2466C28.3257 13.5689 28.7629 13.75 29.2188 13.75ZM30.9375 6.875H72.1875V10.3125H30.9375V6.875Z" fill="#1A1F4C"/>
<path d="M101.406 103.125V44.6875C101.406 44.2317 101.225 43.7945 100.903 43.4722C100.581 43.1498 100.143 42.9688 99.6875 42.9688H75.625V46.4062H97.9688V103.125H82.5V106.562H106.562V103.125H101.406Z" fill="#1A1F4C"/>
<path d="M82.5 34.375H85.9375V37.8125H82.5V34.375Z" fill="#1A1F4C"/>
<path d="M75.625 34.375H79.0625V37.8125H75.625V34.375Z" fill="#1A1F4C"/>
<path d="M82.5 27.5H85.9375V30.9375H82.5V27.5Z" fill="#1A1F4C"/>
<path d="M75.625 27.5H79.0625V30.9375H75.625V27.5Z" fill="#1A1F4C"/>
</svg>
