<svg width="107" height="107" viewBox="0 0 107 107" fill="none" xmlns="http://www.w3.org/2000/svg">
<path d="M90.3494 0.916016C81.6743 0.916016 74.6168 7.97355 74.6168 16.6486C74.6168 25.3237 81.6743 32.3813 90.3494 32.3813C99.0245 32.3813 106.082 25.3237 106.082 16.6486C106.082 7.97355 99.0245 0.916016 90.3494 0.916016ZM90.3494 29.401C83.3178 29.401 77.5973 23.6804 77.5973 16.6488C77.5973 9.61728 83.3176 3.89648 90.3494 3.89648C97.3812 3.89648 103.102 9.61707 103.102 16.6486C103.102 23.6802 97.381 29.401 90.3494 29.401ZM95.6687 20.1309C95.6687 22.3509 94.0637 24.2316 91.8684 24.8364L91.8844 25.4966C91.9042 26.3194 91.2531 27.0024 90.4305 27.0224C90.4182 27.0226 90.406 27.0228 90.3939 27.0228C89.5875 27.0228 88.9243 26.379 88.9047 25.5683L88.8877 24.8628C87.6838 24.5488 86.8629 23.8629 86.1229 23.1646C85.5242 22.5998 85.4968 21.6567 86.0616 21.0578C86.6264 20.459 87.5697 20.4319 88.1684 20.9965C89.0142 21.7944 89.4478 22.0599 90.3494 22.0599C91.6391 22.0599 92.6882 21.1945 92.6882 20.1309C92.6882 19.0671 91.6389 18.2017 90.3494 18.2017C87.4164 18.2017 85.0301 15.9993 85.0301 13.292C85.0301 11.0709 86.6364 9.18958 88.833 8.58583L88.814 7.80069C88.7943 6.97786 89.4455 6.29491 90.2681 6.27511C90.2804 6.2749 90.2924 6.27469 90.3045 6.27469C91.1111 6.27469 91.7743 6.91847 91.7937 7.72937L91.815 8.61521C93.005 8.9503 94.3383 9.63985 94.9917 10.6345C95.4437 11.3223 95.2527 12.2463 94.5646 12.6982C93.8766 13.1502 92.9529 12.9588 92.5011 12.2712C92.2701 11.9346 91.0092 11.363 90.3496 11.363C89.0599 11.363 88.0108 12.2284 88.0108 13.292C88.0108 14.3558 89.0602 15.2212 90.3496 15.2212C93.2824 15.2214 95.6687 17.4238 95.6687 20.1309ZM67.208 84.2908H47.7289V79.7341C47.7289 79.1027 47.3308 78.5396 46.7354 78.329C46.1408 78.1191 45.4768 78.306 45.0797 78.7974L36.4996 89.4149C36.058 89.9611 36.058 90.7416 36.4996 91.2881L45.0797 101.905C45.3682 102.262 45.7974 102.459 46.2389 102.459C46.405 102.459 46.5727 102.431 46.7354 102.374C47.3308 102.163 47.7289 101.6 47.7289 100.969V96.4119H67.208C68.031 96.4119 68.6982 95.7447 68.6982 94.9217V85.781C68.6982 84.958 68.0312 84.2908 67.208 84.2908ZM65.7178 93.4313H46.2387C45.4157 93.4313 44.7485 94.0984 44.7485 94.9215V96.7536L39.5748 90.3514L44.7487 83.9489V85.7808C44.7487 86.6039 45.4159 87.2711 46.2389 87.2711H65.718V93.4313H65.7178ZM16.6465 74.6188C7.9716 74.6188 0.914062 81.6763 0.914062 90.3514C0.914062 99.0265 7.9716 106.084 16.6465 106.084C25.3215 106.084 32.3791 99.0265 32.3791 90.3514C32.3793 81.6763 25.3215 74.6188 16.6465 74.6188ZM16.6465 103.104C9.61512 103.104 3.89453 97.3829 3.89453 90.3514C3.89453 83.3198 9.61512 77.5992 16.6465 77.5992C23.678 77.5992 29.3986 83.3198 29.3986 90.3514C29.3988 97.3829 23.6782 103.104 16.6465 103.104ZM21.966 93.8336C21.966 96.0536 20.3612 97.9343 18.1659 98.5394L18.1818 99.1991C18.2018 100.022 17.5508 100.705 16.728 100.725C16.7157 100.725 16.7035 100.725 16.6914 100.725C15.885 100.725 15.2218 100.082 15.2022 99.2711L15.1852 98.5655C13.9811 98.2515 13.1604 97.5654 12.4204 96.8673C11.8217 96.3025 11.7945 95.3594 12.3591 94.7605C12.9239 94.1619 13.8672 94.1344 14.4658 94.6992C15.3116 95.4971 15.7453 95.7626 16.6467 95.7626C17.9364 95.7626 18.9855 94.8972 18.9855 93.8334C18.9855 92.7698 17.9362 91.9044 16.6467 91.9044C13.7137 91.9044 11.3276 89.702 11.3276 86.9947C11.3276 84.7738 12.9339 82.8925 15.1303 82.2884L15.1115 81.503C15.0919 80.6802 15.7432 79.9972 16.5658 79.9776C17.3922 79.9553 18.0713 80.6093 18.0911 81.4319L18.1124 82.3177C19.3025 82.6528 20.6358 83.3426 21.2892 84.337C21.7412 85.0248 21.5502 85.9488 20.8621 86.4008C20.1741 86.8527 19.2503 86.6613 18.7986 85.9737C18.5676 85.6371 17.3064 85.0655 16.6467 85.0655C15.3572 85.0655 14.3083 85.9309 14.3083 86.9947C14.3083 88.0585 15.3574 88.9239 16.6469 88.9239C19.5797 88.9241 21.966 91.1265 21.966 93.8336ZM39.7879 22.7092H59.2667V27.2659C59.2667 27.8973 59.6649 28.4604 60.2603 28.671C60.423 28.7285 60.5907 28.7564 60.7568 28.7561C61.1983 28.7561 61.6275 28.5597 61.916 28.2026L70.4961 17.5854C70.9376 17.0389 70.9376 16.2584 70.4961 15.7119L61.916 5.09463C61.5189 4.60328 60.8553 4.41615 60.2603 4.62627C59.6649 4.83682 59.2667 5.3997 59.2667 6.03135V10.5881H39.7879C38.9649 10.5881 38.2977 11.2553 38.2977 12.0783V21.2188C38.2977 22.0418 38.9646 22.7092 39.7879 22.7092ZM41.2781 13.5687H60.757C61.58 13.5687 62.2472 12.9015 62.2472 12.0785V10.2466L67.4209 16.6486L62.247 23.0509V21.2188C62.247 20.3957 61.5798 19.7285 60.7568 19.7285H41.2781V13.5687ZM10.9944 71.1761C7.245 62.1702 6.47072 52.3636 8.75461 42.8163C10.7656 34.4114 14.9849 26.8925 21.0331 20.8794L15.0983 20.7021C14.2757 20.6774 13.6287 19.9906 13.6532 19.168C13.6777 18.3452 14.3624 17.6988 15.1873 17.7229L24.784 18.0099C25.6066 18.0345 26.2536 18.7213 26.2291 19.5439L25.9421 29.1417C25.9176 29.9643 25.2245 30.6049 24.408 30.5868C23.5854 30.5621 22.9384 29.8753 22.9629 29.0527L23.1445 22.9826C10.7796 35.2593 6.97144 53.7584 13.7458 70.0307C14.0622 70.7906 13.7028 71.663 12.943 71.9793C12.7559 72.0573 12.5617 72.0943 12.3708 72.0943C11.7868 72.0941 11.2327 71.7488 10.9944 71.1761ZM96.0017 35.8239C99.7507 44.8296 100.525 54.6364 98.2413 64.1837C96.2303 72.5895 92.0119 80.1081 85.9632 86.1214L91.8969 86.299C92.7195 86.3237 93.3665 87.0105 93.342 87.8333C93.318 88.6408 92.6554 89.279 91.8533 89.279C91.8382 89.279 91.823 89.2788 91.8079 89.2784L82.2119 88.9912C81.3893 88.9665 80.7423 88.2797 80.7668 87.4569L81.054 77.8589C81.0782 77.0361 81.7642 76.3885 82.5881 76.4138C83.4107 76.4385 84.0576 77.1253 84.0332 77.9481L83.8513 84.0191C96.2158 71.7424 100.024 53.2424 93.2503 36.9697C92.9339 36.2099 93.2933 35.3374 94.0531 35.0211C94.8125 34.7047 95.6857 35.0641 96.0017 35.8239ZM73.0267 48.5467C71.485 48.5467 70.521 47.5461 70.1331 46.6096C69.7452 45.6731 69.7192 44.284 70.8097 43.1935C71.9259 42.0771 71.9259 40.2608 70.8095 39.1444L67.8535 36.1884C67.3127 35.6474 66.5938 35.3498 65.8287 35.3498C65.064 35.3498 64.3448 35.6476 63.8039 36.1884C62.7141 37.2788 61.325 37.2528 60.3882 36.8647C59.4517 36.4768 58.451 35.5129 58.451 33.9711C58.451 32.3923 57.1666 31.108 55.5878 31.108H51.4075C49.8287 31.108 48.5443 32.3923 48.5443 33.9711C48.5443 35.5131 47.5437 36.4771 46.607 36.8647C45.6711 37.2526 44.2816 37.2786 43.1912 36.1882C42.0748 35.072 40.2586 35.072 39.1418 36.1882L36.1858 39.1444C35.0696 40.2608 35.0696 42.0771 36.1858 43.1935C37.2762 44.284 37.2502 45.6731 36.8623 46.6096C36.4745 47.5459 35.5105 48.5467 33.9687 48.5467C32.3899 48.5467 31.1056 49.831 31.1056 51.4098V55.5902C31.1056 57.169 32.3899 58.4533 33.9687 58.4533C35.5105 58.4533 36.4745 59.4539 36.8623 60.3904C37.2502 61.3269 37.2762 62.7162 36.1858 63.8067C35.0696 64.9231 35.0696 66.7395 36.1858 67.8559L39.142 70.8118C40.2584 71.928 42.0746 71.928 43.1914 70.8118C44.1187 69.8839 45.3965 69.6303 46.6085 70.1321C47.8205 70.6341 48.5443 71.717 48.5443 73.0291C48.5443 74.6079 49.8287 75.8923 51.4075 75.8923H55.5878C57.1666 75.8923 58.451 74.6079 58.451 73.0291C58.451 71.4871 59.4515 70.5234 60.388 70.1355C61.325 69.7474 62.7139 69.7216 63.8041 70.8118C64.3448 71.3526 65.064 71.6502 65.8287 71.6502C66.5938 71.6502 67.3127 71.3524 67.8533 70.8116L70.8097 67.8556C71.9259 66.7392 71.9259 64.9229 70.8097 63.8065C69.7192 62.716 69.7452 61.3269 70.1331 60.3904C70.521 59.4539 71.485 58.4533 73.0267 58.4533C74.6055 58.4533 75.8899 57.169 75.8899 55.5902V51.4098C75.8901 49.8313 74.6055 48.5467 73.0267 48.5467ZM72.9096 55.4739C70.4416 55.5182 68.3297 56.9563 67.3798 59.2497C66.4297 61.5434 66.9059 64.0538 68.6199 65.8304L65.828 68.622C64.0519 66.9081 61.5419 66.4316 59.2478 67.3817C56.9545 68.3317 55.5163 70.4435 55.472 72.9118H51.5241C51.4798 70.4414 50.0422 68.328 47.7496 67.3783C45.4565 66.4288 42.9457 66.9064 41.1678 68.6223L38.3762 65.8304C40.0902 64.0538 40.5664 61.5434 39.6165 59.2497C38.6664 56.9563 36.5545 55.518 34.0865 55.4739V51.5263C36.5545 51.482 38.6664 50.0439 39.6165 47.7505C40.5666 45.4568 40.0904 42.9464 38.3762 41.1698L41.1678 38.378C42.9442 40.0919 45.4542 40.5686 47.7481 39.6185C50.0416 38.6685 51.4798 36.5565 51.5241 34.0884H55.472C55.5163 36.5565 56.9545 38.6685 59.248 39.6185C61.5419 40.5686 64.0521 40.0921 65.828 38.378L68.6199 41.1698C66.9059 42.9464 66.4297 45.4568 67.3796 47.7503C68.3297 50.0437 70.4416 51.482 72.9096 51.5261V55.4739ZM53.4978 41.9671C47.1386 41.9671 41.9647 47.1407 41.9647 53.5002C41.9647 59.8595 47.1386 65.0331 53.4978 65.0331C59.8573 65.0331 65.0312 59.8595 65.0312 53.5002C65.0312 47.1407 59.8573 41.9671 53.4978 41.9671ZM53.4978 62.0527C48.7819 62.0527 44.9452 58.2162 44.9452 53.5002C44.9452 48.7843 48.7817 44.9475 53.4978 44.9475C58.214 44.9475 62.0507 48.7843 62.0507 53.5002C62.0507 58.2162 58.2138 62.0527 53.4978 62.0527Z" fill="#1A1F4C"/>
</svg>
