<svg width="109" height="109" viewBox="0 0 109 109" fill="none" xmlns="http://www.w3.org/2000/svg">
<path d="M86.7707 39.7086C87.0617 39.8523 87.3791 39.9241 87.697 39.9241C88.0299 39.9241 88.3629 39.8453 88.665 39.688C90.3615 38.8036 95.9013 35.5726 95.965 31.127C96.0557 28.4625 93.6379 25.7217 90.6395 25.7707C89.5874 25.7707 88.5738 26.0721 87.7072 26.6329C86.8471 26.0717 85.8454 25.7707 84.8059 25.7707C82.0366 25.7413 79.5053 28.1733 79.4425 31.0716C79.3493 35.6852 85.0282 38.849 86.7707 39.7086ZM84.7906 28.964H84.8055C85.3492 28.964 85.8695 29.1724 86.2721 29.552C86.2723 29.5522 86.2725 29.5525 86.2727 29.5527C87.0715 30.3048 88.3286 30.3052 89.134 29.5539C89.5423 29.1735 90.0766 28.964 90.6391 28.964C91.4943 28.9783 92.7163 29.6593 92.7718 31.081C92.7416 33.1852 89.7603 35.4138 87.684 36.587C85.5853 35.4574 82.5916 33.2814 82.6348 31.1361C82.6583 29.987 83.6657 28.9719 84.7906 28.964Z" fill="#1A1F4C"/>
<path d="M20.3223 39.7088C20.6133 39.8523 20.9305 39.9241 21.2481 39.9241C21.5811 39.9241 21.9141 39.8453 22.2162 39.688C23.9125 38.8036 29.4523 35.5726 29.5162 31.1268C29.6067 28.4627 27.1886 25.7217 24.1905 25.7707C23.1384 25.7707 22.125 26.0721 21.2582 26.6329C20.3879 26.0649 19.3694 25.7628 18.3192 25.7707C15.4411 25.7911 13.0519 28.1693 12.9933 31.0716C12.9005 35.6852 18.5791 38.849 20.3223 39.7088ZM18.342 28.964H18.3569C18.9006 28.964 19.4209 29.1724 19.8233 29.552C19.8235 29.5522 19.8237 29.5525 19.8239 29.5527C20.6225 30.3046 21.8794 30.3054 22.6852 29.5539C23.0933 29.1735 23.6278 28.964 24.1903 28.964C25.0455 28.9783 26.2675 29.6593 26.323 31.081C26.2928 33.1852 23.3115 35.4138 21.2349 36.587C19.1365 35.4574 16.1428 33.2814 16.1862 31.1361C16.2095 29.9868 17.2168 28.9719 18.342 28.964Z" fill="#1A1F4C"/>
<path d="M10.2267 44.6366H15.3638C15.5468 44.6366 15.7193 44.7079 15.8489 44.8371L19.3263 48.3076C19.8583 48.8384 20.5593 49.1041 21.2606 49.1041C21.9555 49.1041 22.6504 48.8433 23.1809 48.3211L26.7255 44.8337C26.8547 44.7064 27.0259 44.6363 27.2073 44.6363H32.2828C35.4298 44.6363 37.99 42.0763 37.99 38.9292V32.9427C38.7645 33.2229 39.599 33.3764 40.4689 33.3764H47.3529C47.8781 33.3764 48.3784 33.6027 48.7254 33.9965L52.206 37.9505C52.8091 38.6358 53.6787 39.0307 54.5916 39.0343H54.6044C55.5126 39.0343 56.3799 38.6469 56.9858 37.9697L60.5502 33.9856C60.8966 33.5984 61.3933 33.3764 61.9129 33.3764H68.7205C69.5057 33.3764 70.2614 33.2503 70.9708 33.0202V38.9294C70.9708 42.0763 73.5308 44.6366 76.678 44.6366H81.815C81.9981 44.6366 82.1705 44.7079 82.3002 44.8371L85.7775 48.3076C86.3096 48.8384 87.0108 49.1041 87.7121 49.1041C88.4067 49.1041 89.1016 48.8433 89.6323 48.3211L93.1772 44.8335C93.3064 44.7064 93.4776 44.6363 93.659 44.6363H98.7345C101.881 44.6363 104.441 42.0763 104.441 38.9292V24.1131C104.441 20.9661 101.881 18.4059 98.7345 18.4059H76.0259V7.30534C76.0259 3.27724 72.7486 0 68.7203 0H55.7127C54.8307 0 54.116 0.714674 54.116 1.59668C54.116 2.47869 54.8307 3.19336 55.7127 3.19336H68.7203C70.9876 3.19336 72.8323 5.03806 72.8323 7.30534V26.0708C72.8323 28.3383 70.9876 30.183 68.7203 30.183H61.9127C60.4857 30.183 59.1215 30.7929 58.1699 31.8563L54.6029 35.8406L51.1226 31.8865C50.1695 30.804 48.7955 30.183 47.3529 30.183H40.4689C38.2014 30.183 36.3567 28.3383 36.3567 26.0708V7.30534C36.3567 5.03806 38.2014 3.19336 40.4689 3.19336H48.2615C49.1433 3.19336 49.8582 2.47869 49.8582 1.59668C49.8582 0.714674 49.1433 0 48.2615 0H40.4689C36.4406 0 33.1633 3.27724 33.1633 7.30534V18.4063H10.2267C7.07975 18.4063 4.51953 20.9663 4.51953 24.1135V38.9296C4.51953 42.0766 7.07975 44.6366 10.2267 44.6366ZM98.7343 21.5997C100.12 21.5997 101.248 22.7274 101.248 24.1135V38.9296C101.248 40.3157 100.12 41.4434 98.7343 41.4434H93.6588C92.6341 41.4434 91.6676 41.839 90.9376 42.5575L87.7138 45.7287L84.5558 42.5768C83.8234 41.8458 82.8499 41.4432 81.8148 41.4432H76.6777C75.2916 41.4432 74.1639 40.3155 74.1639 38.9294V30.936C75.3206 29.6431 76.0257 27.9378 76.0257 26.0706V21.5995H98.7343V21.5997ZM7.71289 24.1135C7.71289 22.7274 8.84057 21.5997 10.2267 21.5997H33.1633V26.0708C33.1633 27.8118 33.7765 29.4117 34.7966 30.6682V38.9294C34.7966 40.3155 33.6689 41.4432 32.2828 41.4432H27.2073C26.1829 41.4432 25.2165 41.8388 24.4861 42.5573L21.2625 45.7285L18.1045 42.5766C17.372 41.8456 16.3986 41.443 15.3635 41.443H10.2265C8.84036 41.443 7.71268 40.3153 7.71268 38.9292V24.1135H7.71289Z" fill="#1A1F4C"/>
<path d="M42.7711 15.0586C42.6385 21.6339 50.9793 26.2647 53.538 27.527C53.8661 27.689 54.2242 27.7699 54.5823 27.7699C54.9576 27.7699 55.3325 27.6811 55.6731 27.5038C58.1699 26.2026 66.323 21.4628 66.4143 15.1137C66.5495 11.3828 63.1462 7.68045 59.0964 7.76156C57.4552 7.76156 55.883 8.294 54.5957 9.27436C53.3041 8.28251 51.734 7.75539 50.0952 7.76156C46.1373 7.78945 42.8518 11.0629 42.7711 15.0586ZM50.1182 10.9549C50.128 10.9547 50.1378 10.9547 50.1475 10.9547C51.1999 10.9547 52.2056 11.3571 52.982 12.089V12.0892C53.8808 12.9363 55.2969 12.9361 56.206 12.0888C56.9907 11.3571 58.0166 10.9549 59.0964 10.9549C61.0569 10.9209 63.2754 12.6957 63.2214 15.068C63.1705 18.6026 58.6144 22.2901 54.5725 24.4728C50.4707 22.3705 45.8908 18.7431 45.9636 15.1231C46.0092 12.8792 47.9113 10.9705 50.1182 10.9549Z" fill="#1A1F4C"/>
<path d="M105.144 96.7137V73.4564C105.144 63.8842 97.3569 56.0967 87.7847 56.0967C85.0335 56.0967 82.294 56.7571 79.8624 58.0063C79.0779 58.4093 78.7688 59.3718 79.1718 60.1561C79.5748 60.9406 80.5375 61.2497 81.3215 60.8467C83.3321 59.8138 85.5065 59.29 87.7847 59.29C95.5961 59.29 101.951 65.645 101.951 73.4564V93.8971C101.907 93.8782 101.866 93.8562 101.822 93.8381H101.822L93.7807 90.5245V87.4031C96.8536 84.3349 99.2163 79.4146 99.2163 74.8883C99.2163 69.059 96.6211 64.4786 92.2739 62.6354C91.879 62.4681 91.4332 62.4672 91.0364 62.632C90.7613 62.7631 90.2587 63.0661 90.0905 63.7646C89.128 68.1574 85.6649 71.6036 81.2677 72.5446L77.6132 73.3268C76.9994 73.4453 76.3582 74.182 76.3546 75.2077C76.4651 79.6901 78.7883 84.4414 81.789 87.4229V90.5245L75.4368 93.142C74.9246 92.5097 74.313 91.9556 73.6187 91.5V73.4562C73.6187 70.5294 74.5033 67.7207 76.1768 65.3338C76.6831 64.6117 76.5083 63.6162 75.7862 63.1099C75.0638 62.6037 74.0686 62.7787 73.5623 63.5006C71.51 66.4274 70.4256 69.8701 70.4256 73.4564V90.0221L61.6877 86.4217V80.3562C65.6879 77.116 68.058 71.2866 68.4989 65.5518C70.5923 64.0496 71.8147 61.0115 72.4904 58.5794C72.953 56.9142 72.6699 55.1365 71.7131 53.7023C71.1085 52.7956 70.2734 52.0871 69.3083 51.639C69.4041 51.1067 69.4286 50.5602 69.3799 50.0112C69.1189 47.0835 66.8045 44.7732 63.8766 44.5178C62.7826 44.4226 61.7 44.6251 60.7365 45.0817C59.5592 42.8176 57.1938 41.3008 54.5016 41.3008C53.3096 41.3008 52.1464 41.6039 51.1164 42.1709C50.0607 41.3355 48.7542 40.875 47.3697 40.875C44.6764 40.875 42.3879 42.603 41.5978 45.0632C37.8827 45.7651 35.1285 48.994 35.1285 52.9033C35.1285 54.6846 35.7176 56.3952 36.7999 57.7904C36.7714 58.6869 36.7744 60.34 37.0718 61.926C37.6308 64.9074 39.609 66.4698 40.7997 67.1587C40.9419 68.2006 41.1437 69.238 41.4094 70.2511C41.5966 70.853 42.374 71.6581 43.3587 71.391C44.2117 71.1674 44.722 70.2948 44.4985 69.4417C44.2145 68.3575 44.0084 67.2415 43.8864 66.1249C43.8159 65.5075 44.0465 65.2361 45.4465 64.5529C46.3936 64.0997 47.6028 63.5212 48.3548 62.331C51.536 62.6854 55.0902 60.9146 56.8176 58.1994C57.9061 58.9079 59.5528 59.5432 61.2604 59.3718C62.0749 61.112 63.2243 61.9043 64.1089 62.5141C65.0601 63.1695 65.353 63.3735 65.3586 64.5785C65.0279 72.0405 60.8996 79.7461 54.5478 79.7461C51.0376 79.7461 48.6809 77.5156 47.322 75.6447C46.8036 74.9311 45.8052 74.7725 45.0918 75.2911C44.3784 75.8095 44.22 76.8077 44.7382 77.5214C45.5516 78.6412 46.4471 79.5932 47.4121 80.373V86.4219C44.7818 87.5055 39.4125 89.7181 36.831 90.7817C35.5498 91.3094 34.4645 92.1412 33.6381 93.1716L27.2143 90.5247V85.6152C29.4646 83.6183 31.3848 80.6968 32.3978 77.4943C32.8546 77.4285 33.2642 77.1697 33.5157 76.7767C35.1756 74.1837 38.364 66.3205 33.2523 61.1443C31.2433 59.1101 28.4169 58.6824 26.0849 59.1287C25.987 58.9154 25.8759 58.7099 25.7505 58.5138C23.5941 55.1448 18.0208 54.6724 13.0622 57.4387C12.2922 57.8684 12.016 58.8408 12.4457 59.6109C12.8753 60.3811 13.8478 60.6574 14.618 60.2274C18.3372 58.1532 21.9864 58.5564 23.061 60.2353C23.506 60.9304 23.5345 61.9986 23.1394 63.167C22.5526 64.9016 20.8712 67.1391 17.9116 68.2163C14.5009 69.4577 12.1434 71.4073 10.6955 72.9397C10.0949 70.834 9.74918 67.825 10.5737 65.0907C10.8283 64.2463 10.3502 63.3556 9.50585 63.101C8.6611 62.8466 7.77079 63.3243 7.51617 64.1689C6.04297 69.0551 7.48637 74.659 8.92615 76.908C9.18566 77.3134 9.61166 77.5759 10.0821 77.6318C11.107 80.7701 13.007 83.6324 15.2224 85.602V90.5245C15.0761 90.5888 7.24665 93.8032 7.09146 93.879C4.53954 94.9724 2.89453 97.4571 2.89453 100.24V105.272C2.89453 107.328 4.56679 109 6.62225 109H102.38C104.436 109 106.108 107.328 106.108 105.272V100.24C106.108 98.9671 105.762 97.7577 105.144 96.7137ZM63.8238 57.1147C63.7065 56.696 63.4236 56.3432 63.0404 56.1378C62.6572 55.9323 62.2069 55.8923 61.7935 56.0264C61.432 56.1437 61.0558 56.2031 60.6754 56.2031C59.4734 56.2031 58.3523 55.6079 57.6764 54.6107C57.3349 54.107 56.7373 53.8411 56.1332 53.9252C55.53 54.0097 55.0276 54.43 54.8377 55.0088C54.0183 57.5058 51.7016 59.1836 49.0729 59.1836C48.7767 59.1836 48.0599 59.0733 47.6693 58.999C46.82 58.8372 45.9968 59.3799 45.8105 60.2238C45.6728 60.8488 45.1987 61.1313 44.0682 61.6721C43.225 62.0755 42.1135 62.6071 41.3937 63.6258C40.8921 63.114 40.4046 62.3729 40.2104 61.3378C39.8617 59.4782 40.0156 57.3849 40.0171 57.3653C40.0518 56.9212 39.8994 56.4829 39.5969 56.1561C38.7747 55.2681 38.3217 54.1128 38.3217 52.9035C38.3217 50.2969 40.3622 48.1946 42.9672 48.1178C43.7729 48.0939 44.4346 47.4731 44.5098 46.6703C44.6486 45.1869 45.878 44.0684 47.3697 44.0684C48.2717 44.0684 49.105 44.4839 49.656 45.2084C49.9238 45.5607 50.3259 45.7862 50.7664 45.8307C51.2067 45.8752 51.6458 45.7349 51.979 45.4432C52.6777 44.8311 53.5736 44.4941 54.5016 44.4941C56.4525 44.4941 58.089 45.9535 58.3078 47.8887C58.3798 48.5246 58.8245 49.0562 59.4379 49.2393C60.0525 49.4232 60.7148 49.2212 61.1233 48.7287C61.7356 47.9904 62.6365 47.6147 63.599 47.699C64.9598 47.8178 66.0775 48.9335 66.1986 50.2948C66.2501 50.8721 66.132 51.4416 65.8572 51.9419C65.5996 52.4105 65.5936 52.977 65.8414 53.4509C66.0892 53.9248 66.5578 54.2433 67.0896 54.2988C67.7919 54.3584 68.4989 54.7071 69.056 55.474C69.4967 56.1348 69.627 56.9551 69.4131 57.7244C68.9649 59.3382 68.4027 60.6849 67.793 61.6491C67.2563 60.8045 66.5275 60.3023 65.921 59.8844C65.006 59.2536 64.283 58.7553 63.8238 57.1147ZM81.9355 75.6677C86.849 74.6162 90.8497 71.1172 92.5992 66.5017C94.7705 68.1965 96.0227 71.1991 96.0227 74.8885C96.0227 80.6183 91.0364 87.2471 87.7832 87.2471C84.7684 87.2471 80.2662 81.6042 79.6216 76.1631L81.9355 75.6677ZM51.7138 105.807C51.1277 100.308 49.0548 94.9971 45.7692 90.5526L48.6328 89.3728C50.2548 90.8102 52.3531 91.6192 54.548 91.6194H54.5495C56.7491 91.6194 58.8522 90.8072 60.4678 89.3732L63.2861 90.5345C59.9814 94.978 57.8891 100.3 57.2919 105.807H51.7138ZM66.3455 91.795L71.0517 93.7343C72.8557 94.4775 74.0211 96.2183 74.0211 98.1692V105.807H60.5108C61.1276 100.716 63.163 95.818 66.3455 91.795ZM54.5478 82.9392C55.9611 82.9392 57.2779 82.6829 58.4939 82.2177V86.8532C57.4339 87.8587 56.025 88.4258 54.5497 88.4258C54.5495 88.4258 54.549 88.4258 54.5488 88.4258C53.0711 88.4256 51.6601 87.8563 50.6057 86.8545V82.2216C51.8506 82.6942 53.1695 82.9392 54.5478 82.9392ZM31.8849 105.807H29.1003L31.8849 102.574V105.807ZM31.9039 97.6589L24.8855 105.807H17.6195L10.2997 96.0071L16.4555 93.4707C17.7805 94.5818 19.4623 95.2026 21.2172 95.203H21.2185C22.9729 95.203 24.6543 94.5826 25.981 93.4705L32.1802 96.0247C32.0339 96.5525 31.9392 97.0988 31.9039 97.6589ZM30.9803 63.3884C33.7596 66.2028 32.8844 70.4713 31.7885 73.146C30.7411 72.1073 29.237 70.7757 27.4155 69.6099C26.2714 68.8776 25.3456 67.9053 24.7869 66.8683C25.3747 66.0385 25.8435 65.1392 26.1643 64.1906C26.3802 63.5521 26.5152 62.916 26.5722 62.2969C27.9002 62.025 29.7394 62.1321 30.9803 63.3884ZM12.7705 75.3944C13.9035 74.1317 15.93 72.3364 19.0038 71.2177C20.2945 70.7478 21.4792 70.08 22.512 69.261C23.3116 70.4255 24.3961 71.4684 25.6938 72.2994C27.342 73.3544 28.7114 74.586 29.6349 75.5115C28.4033 80.7541 24.1101 85.1181 21.2168 85.1181C18.3219 85.1179 13.967 80.6796 12.7705 75.3944ZM21.217 88.3113C22.139 88.3113 23.0849 88.0937 24.0209 87.6956V90.9454C23.2533 91.6271 22.2582 92.0094 21.2185 92.0094C21.2182 92.0094 21.218 92.0094 21.2176 92.0094C20.18 92.0092 19.1868 91.6281 18.416 90.9443V87.6907C19.3525 88.0914 20.2977 88.3113 21.217 88.3113ZM6.0881 105.272V100.24C6.0881 99.1357 6.57009 98.1194 7.37247 97.4243L13.6336 105.807H6.62246C6.32782 105.807 6.0881 105.567 6.0881 105.272ZM35.0783 98.1692C35.0783 96.2183 36.2439 94.4772 38.0477 93.7343L42.7142 91.8114C45.8767 95.8372 47.8911 100.725 48.4959 105.807H35.0785V98.1692H35.0783ZM77.2144 105.807V98.1692C77.2144 97.4179 77.1063 96.6868 76.9096 95.9892L81.8014 93.9733C81.8633 97.9961 82.2359 102.223 84.4738 105.807H77.2144ZM84.9822 91.5904V89.7477C85.9144 90.1909 86.8597 90.4404 87.7832 90.4404C88.7073 90.4404 89.6536 90.1922 90.5872 89.7447C90.5874 89.7487 90.5867 91.4321 90.5874 91.5979C90.5874 96.3896 90.5859 101.334 87.7849 104.978C84.9835 101.34 84.9822 96.3903 84.9822 91.5939C84.9824 91.5926 84.9822 91.5915 84.9822 91.5904ZM102.915 105.272C102.915 105.567 102.675 105.807 102.381 105.807H91.0945C93.3335 102.22 93.706 97.9944 93.7682 93.9735L100.605 96.7907H100.605C102.008 97.3687 102.915 98.7227 102.915 100.24V105.272Z" fill="#1A1F4C"/>
</svg>
