<svg width="440" height="415" viewBox="0 0 440 415" fill="none" xmlns="http://www.w3.org/2000/svg">
<g filter="url(#filter0_d_5202_2400)">
<rect x="87" y="57" width="262" height="237" rx="10" fill="white"/>
<rect x="87.5" y="57.5" width="261" height="236" rx="9.5" stroke="#C5C5C5" stroke-opacity="0.3"/>
</g>
<rect x="103.5" y="92.5" width="230" height="39" rx="4.5" fill="white" stroke="#C5C5C5"/>
<rect x="103" y="236" width="231" height="40" rx="5" fill="#1A1F4C"/>
<path d="M192.246 261.07C192.031 261.07 191.854 261.005 191.714 260.874C191.583 260.734 191.518 260.557 191.518 260.342V252.334H188.718C188.27 252.334 188.046 252.133 188.046 251.732C188.046 251.536 188.102 251.387 188.214 251.284C188.335 251.181 188.503 251.13 188.718 251.13H195.774C195.988 251.13 196.152 251.181 196.264 251.284C196.385 251.387 196.446 251.536 196.446 251.732C196.446 252.133 196.222 252.334 195.774 252.334H192.974V260.342C192.974 260.557 192.908 260.734 192.778 260.874C192.647 261.005 192.47 261.07 192.246 261.07ZM199.264 254C200.169 254 200.841 254.229 201.28 254.686C201.728 255.143 201.952 255.839 201.952 256.772V260.398C201.952 260.613 201.891 260.781 201.77 260.902C201.649 261.014 201.481 261.07 201.266 261.07C201.061 261.07 200.897 261.009 200.776 260.888C200.655 260.767 200.594 260.603 200.594 260.398V259.88C200.417 260.272 200.151 260.575 199.796 260.79C199.451 260.995 199.045 261.098 198.578 261.098C198.13 261.098 197.719 261.009 197.346 260.832C196.973 260.645 196.679 260.389 196.464 260.062C196.259 259.735 196.156 259.371 196.156 258.97C196.156 258.475 196.282 258.088 196.534 257.808C196.795 257.519 197.22 257.313 197.808 257.192C198.405 257.071 199.222 257.01 200.258 257.01H200.58V256.604C200.58 256.081 200.473 255.703 200.258 255.47C200.043 255.237 199.698 255.12 199.222 255.12C198.895 255.12 198.587 255.162 198.298 255.246C198.009 255.33 197.691 255.451 197.346 255.61C197.094 255.75 196.917 255.82 196.814 255.82C196.674 255.82 196.557 255.769 196.464 255.666C196.38 255.563 196.338 255.433 196.338 255.274C196.338 255.134 196.375 255.013 196.45 254.91C196.534 254.798 196.665 254.691 196.842 254.588C197.169 254.411 197.551 254.271 197.99 254.168C198.429 254.056 198.853 254 199.264 254ZM198.83 260.048C199.343 260.048 199.763 259.875 200.09 259.53C200.417 259.175 200.58 258.723 200.58 258.172V257.808H200.328C199.6 257.808 199.04 257.841 198.648 257.906C198.256 257.971 197.976 258.083 197.808 258.242C197.64 258.391 197.556 258.611 197.556 258.9C197.556 259.236 197.677 259.511 197.92 259.726C198.163 259.941 198.466 260.048 198.83 260.048ZM209.626 259.894C209.794 260.034 209.878 260.207 209.878 260.412C209.878 260.589 209.818 260.743 209.696 260.874C209.575 261.005 209.43 261.07 209.262 261.07C209.085 261.07 208.926 261.005 208.786 260.874L205.3 257.794V260.384C205.3 260.608 205.235 260.781 205.104 260.902C204.974 261.014 204.806 261.07 204.6 261.07C204.395 261.07 204.222 261.014 204.082 260.902C203.952 260.781 203.886 260.608 203.886 260.384V251.746C203.886 251.522 203.952 251.354 204.082 251.242C204.222 251.121 204.395 251.06 204.6 251.06C204.806 251.06 204.974 251.121 205.104 251.242C205.235 251.354 205.3 251.522 205.3 251.746V257.234L208.492 254.252C208.651 254.112 208.805 254.042 208.954 254.042C209.132 254.042 209.286 254.107 209.416 254.238C209.547 254.369 209.612 254.523 209.612 254.7C209.612 254.877 209.533 255.041 209.374 255.19L206.882 257.472L209.626 259.894ZM216.357 259.278C216.488 259.278 216.595 259.329 216.679 259.432C216.763 259.535 216.805 259.665 216.805 259.824C216.805 260.095 216.637 260.323 216.301 260.51C215.975 260.697 215.615 260.841 215.223 260.944C214.841 261.047 214.472 261.098 214.117 261.098C213.035 261.098 212.181 260.785 211.555 260.16C210.93 259.525 210.617 258.662 210.617 257.57C210.617 256.87 210.753 256.249 211.023 255.708C211.303 255.167 211.691 254.747 212.185 254.448C212.689 254.149 213.259 254 213.893 254C214.808 254 215.531 254.294 216.063 254.882C216.595 255.47 216.861 256.263 216.861 257.262C216.861 257.635 216.693 257.822 216.357 257.822H212.031C212.125 259.269 212.82 259.992 214.117 259.992C214.463 259.992 214.761 259.945 215.013 259.852C215.265 259.759 215.531 259.637 215.811 259.488C215.839 259.469 215.914 259.432 216.035 259.376C216.166 259.311 216.273 259.278 216.357 259.278ZM213.921 255.036C213.38 255.036 212.946 255.209 212.619 255.554C212.293 255.899 212.097 256.385 212.031 257.01H215.643C215.615 256.375 215.452 255.89 215.153 255.554C214.864 255.209 214.453 255.036 213.921 255.036ZM222.825 261.07C222.62 261.07 222.447 261.014 222.307 260.902C222.176 260.79 222.111 260.622 222.111 260.398V251.746C222.111 251.522 222.176 251.354 222.307 251.242C222.447 251.121 222.62 251.06 222.825 251.06C223.03 251.06 223.198 251.121 223.329 251.242C223.46 251.354 223.525 251.522 223.525 251.746V260.398C223.525 260.622 223.46 260.79 223.329 260.902C223.198 261.014 223.03 261.07 222.825 261.07ZM228.469 261.098C227.797 261.098 227.205 260.953 226.691 260.664C226.187 260.375 225.795 259.964 225.515 259.432C225.245 258.891 225.109 258.265 225.109 257.556C225.109 256.837 225.245 256.212 225.515 255.68C225.795 255.139 226.187 254.723 226.691 254.434C227.205 254.145 227.797 254 228.469 254C229.141 254 229.729 254.145 230.233 254.434C230.747 254.723 231.139 255.139 231.409 255.68C231.689 256.212 231.829 256.837 231.829 257.556C231.829 258.265 231.689 258.891 231.409 259.432C231.139 259.964 230.747 260.375 230.233 260.664C229.729 260.953 229.141 261.098 228.469 261.098ZM228.469 259.978C229.095 259.978 229.571 259.773 229.897 259.362C230.233 258.951 230.401 258.349 230.401 257.556C230.401 256.772 230.233 256.175 229.897 255.764C229.561 255.344 229.085 255.134 228.469 255.134C227.853 255.134 227.377 255.344 227.041 255.764C226.705 256.175 226.537 256.772 226.537 257.556C226.537 258.349 226.701 258.951 227.027 259.362C227.363 259.773 227.844 259.978 228.469 259.978ZM236.274 254C237.179 254 237.851 254.229 238.29 254.686C238.738 255.143 238.962 255.839 238.962 256.772V260.398C238.962 260.613 238.901 260.781 238.78 260.902C238.658 261.014 238.49 261.07 238.276 261.07C238.07 261.07 237.907 261.009 237.786 260.888C237.664 260.767 237.604 260.603 237.604 260.398V259.88C237.426 260.272 237.16 260.575 236.806 260.79C236.46 260.995 236.054 261.098 235.588 261.098C235.14 261.098 234.729 261.009 234.356 260.832C233.982 260.645 233.688 260.389 233.474 260.062C233.268 259.735 233.166 259.371 233.166 258.97C233.166 258.475 233.292 258.088 233.544 257.808C233.805 257.519 234.23 257.313 234.818 257.192C235.415 257.071 236.232 257.01 237.268 257.01H237.59V256.604C237.59 256.081 237.482 255.703 237.268 255.47C237.053 255.237 236.708 255.12 236.232 255.12C235.905 255.12 235.597 255.162 235.308 255.246C235.018 255.33 234.701 255.451 234.356 255.61C234.104 255.75 233.926 255.82 233.824 255.82C233.684 255.82 233.567 255.769 233.474 255.666C233.39 255.563 233.348 255.433 233.348 255.274C233.348 255.134 233.385 255.013 233.46 254.91C233.544 254.798 233.674 254.691 233.852 254.588C234.178 254.411 234.561 254.271 235 254.168C235.438 254.056 235.863 254 236.274 254ZM235.84 260.048C236.353 260.048 236.773 259.875 237.1 259.53C237.426 259.175 237.59 258.723 237.59 258.172V257.808H237.338C236.61 257.808 236.05 257.841 235.658 257.906C235.266 257.971 234.986 258.083 234.818 258.242C234.65 258.391 234.566 258.611 234.566 258.9C234.566 259.236 234.687 259.511 234.93 259.726C235.172 259.941 235.476 260.048 235.84 260.048ZM244.578 254C246.211 254 247.028 254.919 247.028 256.758V260.398C247.028 260.613 246.963 260.781 246.832 260.902C246.711 261.014 246.538 261.07 246.314 261.07C246.099 261.07 245.927 261.009 245.796 260.888C245.675 260.767 245.614 260.603 245.614 260.398V256.828C245.614 256.249 245.497 255.825 245.264 255.554C245.04 255.283 244.685 255.148 244.2 255.148C243.631 255.148 243.173 255.325 242.828 255.68C242.483 256.035 242.31 256.511 242.31 257.108V260.398C242.31 260.603 242.245 260.767 242.114 260.888C241.993 261.009 241.825 261.07 241.61 261.07C241.395 261.07 241.223 261.009 241.092 260.888C240.961 260.767 240.896 260.603 240.896 260.398V254.7C240.896 254.504 240.961 254.345 241.092 254.224C241.232 254.093 241.405 254.028 241.61 254.028C241.815 254.028 241.979 254.089 242.1 254.21C242.221 254.331 242.282 254.49 242.282 254.686V255.26C242.506 254.849 242.819 254.537 243.22 254.322C243.621 254.107 244.074 254 244.578 254Z" fill="white"/>
<path d="M123.449 107.078C123.673 107.078 123.849 107.15 123.977 107.294C124.113 107.43 124.181 107.614 124.181 107.846V114.89C124.181 115.122 124.113 115.31 123.977 115.454C123.841 115.598 123.665 115.67 123.449 115.67C123.193 115.67 122.997 115.578 122.861 115.394L118.481 109.694V114.89C118.481 115.122 118.417 115.31 118.289 115.454C118.161 115.598 117.985 115.67 117.761 115.67C117.537 115.67 117.361 115.598 117.233 115.454C117.105 115.31 117.041 115.122 117.041 114.89V107.846C117.041 107.614 117.109 107.43 117.245 107.294C117.381 107.15 117.561 107.078 117.785 107.078C118.033 107.078 118.225 107.17 118.361 107.354L122.729 113.03V107.846C122.729 107.614 122.793 107.43 122.921 107.294C123.057 107.15 123.233 107.078 123.449 107.078ZM131.106 114.35C131.586 114.35 131.826 114.554 131.826 114.962C131.826 115.386 131.586 115.598 131.106 115.598H127.05C126.562 115.598 126.318 115.386 126.318 114.962C126.318 114.554 126.562 114.35 127.05 114.35H128.298V108.878L127.146 109.586C127.034 109.65 126.934 109.682 126.846 109.682C126.678 109.682 126.534 109.61 126.414 109.466C126.302 109.322 126.246 109.162 126.246 108.986C126.246 108.754 126.35 108.574 126.558 108.446L128.418 107.294C128.658 107.15 128.886 107.078 129.102 107.078C129.326 107.078 129.506 107.146 129.642 107.282C129.778 107.418 129.846 107.606 129.846 107.846V114.35H131.106ZM133.753 113.87C134.025 113.87 134.245 113.97 134.413 114.17C134.581 114.37 134.665 114.662 134.665 115.046C134.665 115.806 134.401 116.462 133.873 117.014C133.769 117.118 133.657 117.17 133.537 117.17C133.417 117.17 133.313 117.13 133.225 117.05C133.137 116.97 133.093 116.874 133.093 116.762C133.093 116.666 133.133 116.574 133.213 116.486C133.453 116.23 133.609 115.942 133.681 115.622C133.449 115.598 133.257 115.51 133.105 115.358C132.961 115.198 132.889 115.002 132.889 114.77C132.889 114.514 132.969 114.302 133.129 114.134C133.297 113.958 133.505 113.87 133.753 113.87ZM141.242 114.35C141.722 114.35 141.962 114.554 141.962 114.962C141.962 115.386 141.722 115.598 141.242 115.598H136.682C136.474 115.598 136.31 115.538 136.19 115.418C136.07 115.29 136.01 115.134 136.01 114.95C136.01 114.71 136.102 114.494 136.286 114.302L139.022 111.362C139.358 110.994 139.602 110.658 139.754 110.354C139.914 110.042 139.994 109.734 139.994 109.43C139.994 109.054 139.886 108.766 139.67 108.566C139.454 108.366 139.146 108.266 138.746 108.266C138.418 108.266 138.098 108.33 137.786 108.458C137.482 108.578 137.174 108.746 136.862 108.962C136.782 109.018 136.702 109.066 136.622 109.106C136.542 109.138 136.462 109.154 136.382 109.154C136.246 109.154 136.126 109.09 136.022 108.962C135.926 108.834 135.878 108.682 135.878 108.506C135.878 108.386 135.898 108.282 135.938 108.194C135.986 108.106 136.058 108.022 136.154 107.942C136.506 107.662 136.918 107.442 137.39 107.282C137.862 107.114 138.334 107.03 138.806 107.03C139.63 107.03 140.286 107.238 140.774 107.654C141.27 108.07 141.518 108.63 141.518 109.334C141.518 109.822 141.414 110.282 141.206 110.714C140.998 111.138 140.646 111.614 140.15 112.142L138.074 114.35H141.242ZM146.073 115.706C145.073 115.706 144.309 115.338 143.781 114.602C143.253 113.858 142.989 112.778 142.989 111.362C142.989 109.954 143.253 108.882 143.781 108.146C144.309 107.402 145.073 107.03 146.073 107.03C147.073 107.03 147.837 107.402 148.365 108.146C148.893 108.882 149.157 109.954 149.157 111.362C149.157 112.77 148.893 113.846 148.365 114.59C147.837 115.334 147.073 115.706 146.073 115.706ZM146.073 114.494C146.617 114.494 147.013 114.246 147.261 113.75C147.509 113.246 147.633 112.45 147.633 111.362C147.633 110.266 147.509 109.474 147.261 108.986C147.013 108.49 146.617 108.242 146.073 108.242C145.529 108.242 145.133 108.49 144.885 108.986C144.637 109.482 144.513 110.274 144.513 111.362C144.513 112.45 144.637 113.246 144.885 113.75C145.133 114.246 145.529 114.494 146.073 114.494ZM153.268 115.706C152.268 115.706 151.504 115.338 150.976 114.602C150.448 113.858 150.184 112.778 150.184 111.362C150.184 109.954 150.448 108.882 150.976 108.146C151.504 107.402 152.268 107.03 153.268 107.03C154.268 107.03 155.032 107.402 155.56 108.146C156.088 108.882 156.352 109.954 156.352 111.362C156.352 112.77 156.088 113.846 155.56 114.59C155.032 115.334 154.268 115.706 153.268 115.706ZM153.268 114.494C153.812 114.494 154.208 114.246 154.456 113.75C154.704 113.246 154.828 112.45 154.828 111.362C154.828 110.266 154.704 109.474 154.456 108.986C154.208 108.49 153.812 108.242 153.268 108.242C152.724 108.242 152.328 108.49 152.08 108.986C151.832 109.482 151.708 110.274 151.708 111.362C151.708 112.45 151.832 113.246 152.08 113.75C152.328 114.246 152.724 114.494 153.268 114.494ZM158.327 113.87C158.599 113.87 158.819 113.97 158.987 114.17C159.155 114.37 159.239 114.662 159.239 115.046C159.239 115.806 158.975 116.462 158.447 117.014C158.343 117.118 158.231 117.17 158.111 117.17C157.991 117.17 157.887 117.13 157.799 117.05C157.711 116.97 157.667 116.874 157.667 116.762C157.667 116.666 157.707 116.574 157.787 116.486C158.027 116.23 158.183 115.942 158.255 115.622C158.023 115.598 157.831 115.51 157.679 115.358C157.535 115.198 157.463 115.002 157.463 114.77C157.463 114.514 157.543 114.302 157.703 114.134C157.871 113.958 158.079 113.87 158.327 113.87ZM163.44 115.706C162.44 115.706 161.676 115.338 161.148 114.602C160.62 113.858 160.356 112.778 160.356 111.362C160.356 109.954 160.62 108.882 161.148 108.146C161.676 107.402 162.44 107.03 163.44 107.03C164.44 107.03 165.204 107.402 165.732 108.146C166.26 108.882 166.524 109.954 166.524 111.362C166.524 112.77 166.26 113.846 165.732 114.59C165.204 115.334 164.44 115.706 163.44 115.706ZM163.44 114.494C163.984 114.494 164.38 114.246 164.628 113.75C164.876 113.246 165 112.45 165 111.362C165 110.266 164.876 109.474 164.628 108.986C164.38 108.49 163.984 108.242 163.44 108.242C162.896 108.242 162.5 108.49 162.252 108.986C162.004 109.482 161.88 110.274 161.88 111.362C161.88 112.45 162.004 113.246 162.252 113.75C162.5 114.246 162.896 114.494 163.44 114.494ZM170.635 115.706C169.635 115.706 168.871 115.338 168.343 114.602C167.815 113.858 167.551 112.778 167.551 111.362C167.551 109.954 167.815 108.882 168.343 108.146C168.871 107.402 169.635 107.03 170.635 107.03C171.635 107.03 172.399 107.402 172.927 108.146C173.455 108.882 173.719 109.954 173.719 111.362C173.719 112.77 173.455 113.846 172.927 114.59C172.399 115.334 171.635 115.706 170.635 115.706ZM170.635 114.494C171.179 114.494 171.575 114.246 171.823 113.75C172.071 113.246 172.195 112.45 172.195 111.362C172.195 110.266 172.071 109.474 171.823 108.986C171.575 108.49 171.179 108.242 170.635 108.242C170.091 108.242 169.695 108.49 169.447 108.986C169.199 109.482 169.075 110.274 169.075 111.362C169.075 112.45 169.199 113.246 169.447 113.75C169.695 114.246 170.091 114.494 170.635 114.494ZM177.83 115.706C176.83 115.706 176.066 115.338 175.538 114.602C175.01 113.858 174.746 112.778 174.746 111.362C174.746 109.954 175.01 108.882 175.538 108.146C176.066 107.402 176.83 107.03 177.83 107.03C178.83 107.03 179.594 107.402 180.122 108.146C180.65 108.882 180.914 109.954 180.914 111.362C180.914 112.77 180.65 113.846 180.122 114.59C179.594 115.334 178.83 115.706 177.83 115.706ZM177.83 114.494C178.374 114.494 178.77 114.246 179.018 113.75C179.266 113.246 179.39 112.45 179.39 111.362C179.39 110.266 179.266 109.474 179.018 108.986C178.77 108.49 178.374 108.242 177.83 108.242C177.286 108.242 176.89 108.49 176.642 108.986C176.394 109.482 176.27 110.274 176.27 111.362C176.27 112.45 176.394 113.246 176.642 113.75C176.89 114.246 177.286 114.494 177.83 114.494Z" fill="#1A1A1A"/>
<path d="M104.524 86C104.388 86 104.272 85.96 104.176 85.88C104.088 85.792 104.044 85.68 104.044 85.544V77.984C104.044 77.832 104.088 77.712 104.176 77.624C104.264 77.528 104.384 77.48 104.536 77.48C104.688 77.48 104.808 77.528 104.896 77.624C104.984 77.712 105.028 77.832 105.028 77.984V85.16H108.904C109.048 85.16 109.16 85.196 109.24 85.268C109.32 85.34 109.36 85.444 109.36 85.58C109.36 85.716 109.32 85.82 109.24 85.892C109.16 85.964 109.048 86 108.904 86H104.524ZM112.793 86.084C112.241 86.084 111.753 85.96 111.329 85.712C110.913 85.464 110.589 85.112 110.357 84.656C110.133 84.192 110.021 83.656 110.021 83.048C110.021 82.44 110.133 81.908 110.357 81.452C110.589 80.988 110.913 80.632 111.329 80.384C111.753 80.136 112.241 80.012 112.793 80.012C113.345 80.012 113.833 80.136 114.257 80.384C114.681 80.632 115.005 80.988 115.229 81.452C115.461 81.908 115.577 82.44 115.577 83.048C115.577 83.656 115.461 84.192 115.229 84.656C115.005 85.112 114.681 85.464 114.257 85.712C113.833 85.96 113.345 86.084 112.793 86.084ZM112.793 85.28C113.369 85.28 113.809 85.092 114.113 84.716C114.425 84.332 114.581 83.776 114.581 83.048C114.581 82.336 114.425 81.788 114.113 81.404C113.801 81.012 113.361 80.816 112.793 80.816C112.225 80.816 111.785 81.012 111.473 81.404C111.161 81.788 111.005 82.336 111.005 83.048C111.005 83.768 111.157 84.32 111.461 84.704C111.773 85.088 112.217 85.28 112.793 85.28ZM119.413 80.012C120.877 80.012 121.609 80.78 121.609 82.316V85.58C121.609 85.724 121.565 85.84 121.477 85.928C121.397 86.016 121.285 86.06 121.141 86.06C120.997 86.06 120.881 86.016 120.793 85.928C120.705 85.84 120.661 85.724 120.661 85.58V85.004C120.509 85.348 120.277 85.616 119.965 85.808C119.653 85.992 119.293 86.084 118.885 86.084C118.509 86.084 118.161 86.008 117.841 85.856C117.529 85.704 117.281 85.492 117.097 85.22C116.913 84.948 116.821 84.648 116.821 84.32C116.821 83.88 116.933 83.54 117.157 83.3C117.381 83.052 117.749 82.876 118.261 82.772C118.773 82.66 119.485 82.604 120.397 82.604H120.661V82.208C120.661 81.728 120.561 81.376 120.361 81.152C120.169 80.928 119.853 80.816 119.413 80.816C118.869 80.816 118.317 80.964 117.757 81.26C117.541 81.396 117.389 81.464 117.301 81.464C117.205 81.464 117.125 81.428 117.061 81.356C116.997 81.284 116.965 81.192 116.965 81.08C116.965 80.968 116.997 80.872 117.061 80.792C117.133 80.704 117.245 80.616 117.397 80.528C117.677 80.368 117.993 80.244 118.345 80.156C118.705 80.06 119.061 80.012 119.413 80.012ZM119.017 85.316C119.497 85.316 119.889 85.156 120.193 84.836C120.505 84.508 120.661 84.088 120.661 83.576V83.228H120.445C119.741 83.228 119.205 83.26 118.837 83.324C118.469 83.38 118.205 83.48 118.045 83.624C117.893 83.76 117.817 83.964 117.817 84.236C117.817 84.548 117.929 84.808 118.153 85.016C118.385 85.216 118.673 85.316 119.017 85.316ZM126.328 80.012C127.728 80.012 128.428 80.784 128.428 82.328V85.58C128.428 85.732 128.384 85.852 128.296 85.94C128.216 86.02 128.1 86.06 127.948 86.06C127.796 86.06 127.676 86.02 127.588 85.94C127.5 85.852 127.456 85.732 127.456 85.58V82.388C127.456 81.844 127.348 81.448 127.132 81.2C126.924 80.952 126.588 80.828 126.124 80.828C125.588 80.828 125.16 80.992 124.84 81.32C124.52 81.648 124.36 82.092 124.36 82.652V85.58C124.36 85.732 124.316 85.852 124.228 85.94C124.148 86.02 124.032 86.06 123.88 86.06C123.728 86.06 123.608 86.02 123.52 85.94C123.432 85.852 123.388 85.732 123.388 85.58V80.516C123.388 80.372 123.432 80.256 123.52 80.168C123.608 80.08 123.728 80.036 123.88 80.036C124.024 80.036 124.136 80.08 124.216 80.168C124.304 80.256 124.348 80.368 124.348 80.504V81.116C124.54 80.756 124.808 80.484 125.152 80.3C125.496 80.108 125.888 80.012 126.328 80.012ZM135.69 80.012C137.154 80.012 137.886 80.78 137.886 82.316V85.58C137.886 85.724 137.842 85.84 137.754 85.928C137.674 86.016 137.562 86.06 137.418 86.06C137.274 86.06 137.158 86.016 137.07 85.928C136.982 85.84 136.938 85.724 136.938 85.58V85.004C136.786 85.348 136.554 85.616 136.242 85.808C135.93 85.992 135.57 86.084 135.162 86.084C134.786 86.084 134.438 86.008 134.118 85.856C133.806 85.704 133.558 85.492 133.374 85.22C133.19 84.948 133.098 84.648 133.098 84.32C133.098 83.88 133.21 83.54 133.434 83.3C133.658 83.052 134.026 82.876 134.538 82.772C135.05 82.66 135.762 82.604 136.674 82.604H136.938V82.208C136.938 81.728 136.838 81.376 136.638 81.152C136.446 80.928 136.13 80.816 135.69 80.816C135.146 80.816 134.594 80.964 134.034 81.26C133.818 81.396 133.666 81.464 133.578 81.464C133.482 81.464 133.402 81.428 133.338 81.356C133.274 81.284 133.242 81.192 133.242 81.08C133.242 80.968 133.274 80.872 133.338 80.792C133.41 80.704 133.522 80.616 133.674 80.528C133.954 80.368 134.27 80.244 134.622 80.156C134.982 80.06 135.338 80.012 135.69 80.012ZM135.294 85.316C135.774 85.316 136.166 85.156 136.47 84.836C136.782 84.508 136.938 84.088 136.938 83.576V83.228H136.722C136.018 83.228 135.482 83.26 135.114 83.324C134.746 83.38 134.482 83.48 134.322 83.624C134.17 83.76 134.094 83.964 134.094 84.236C134.094 84.548 134.206 84.808 134.43 85.016C134.662 85.216 134.95 85.316 135.294 85.316ZM146.17 80.012C147.466 80.012 148.114 80.784 148.114 82.328V85.58C148.114 85.732 148.07 85.852 147.982 85.94C147.894 86.02 147.778 86.06 147.634 86.06C147.49 86.06 147.37 86.02 147.274 85.94C147.186 85.852 147.142 85.732 147.142 85.58V82.352C147.142 81.816 147.046 81.428 146.854 81.188C146.662 80.948 146.362 80.828 145.954 80.828C145.466 80.828 145.082 80.992 144.802 81.32C144.522 81.648 144.382 82.092 144.382 82.652V85.58C144.382 85.732 144.334 85.852 144.238 85.94C144.15 86.02 144.034 86.06 143.89 86.06C143.746 86.06 143.63 86.02 143.542 85.94C143.454 85.852 143.41 85.732 143.41 85.58V82.352C143.41 81.816 143.314 81.428 143.122 81.188C142.93 80.948 142.626 80.828 142.21 80.828C141.73 80.828 141.346 80.992 141.058 81.32C140.778 81.648 140.638 82.092 140.638 82.652V85.58C140.638 85.732 140.594 85.852 140.506 85.94C140.418 86.02 140.302 86.06 140.158 86.06C140.014 86.06 139.894 86.02 139.798 85.94C139.71 85.852 139.666 85.732 139.666 85.58V80.516C139.666 80.372 139.71 80.256 139.798 80.168C139.894 80.08 140.014 80.036 140.158 80.036C140.294 80.036 140.406 80.08 140.494 80.168C140.582 80.248 140.626 80.36 140.626 80.504V81.08C140.802 80.736 141.046 80.472 141.358 80.288C141.67 80.104 142.03 80.012 142.438 80.012C143.35 80.012 143.946 80.396 144.226 81.164C144.394 80.812 144.65 80.532 144.994 80.324C145.338 80.116 145.73 80.012 146.17 80.012ZM152.308 86.084C151.756 86.084 151.268 85.96 150.844 85.712C150.428 85.464 150.104 85.112 149.872 84.656C149.648 84.192 149.536 83.656 149.536 83.048C149.536 82.44 149.648 81.908 149.872 81.452C150.104 80.988 150.428 80.632 150.844 80.384C151.268 80.136 151.756 80.012 152.308 80.012C152.86 80.012 153.348 80.136 153.772 80.384C154.196 80.632 154.52 80.988 154.744 81.452C154.976 81.908 155.092 82.44 155.092 83.048C155.092 83.656 154.976 84.192 154.744 84.656C154.52 85.112 154.196 85.464 153.772 85.712C153.348 85.96 152.86 86.084 152.308 86.084ZM152.308 85.28C152.884 85.28 153.324 85.092 153.628 84.716C153.94 84.332 154.096 83.776 154.096 83.048C154.096 82.336 153.94 81.788 153.628 81.404C153.316 81.012 152.876 80.816 152.308 80.816C151.74 80.816 151.3 81.012 150.988 81.404C150.676 81.788 150.52 82.336 150.52 83.048C150.52 83.768 150.672 84.32 150.976 84.704C151.288 85.088 151.732 85.28 152.308 85.28ZM160.981 80.036C161.133 80.036 161.249 80.08 161.329 80.168C161.417 80.256 161.461 80.372 161.461 80.516V85.592C161.461 85.728 161.417 85.84 161.329 85.928C161.249 86.016 161.133 86.06 160.981 86.06C160.837 86.06 160.721 86.02 160.633 85.94C160.553 85.852 160.513 85.74 160.513 85.604V85.004C160.329 85.356 160.069 85.624 159.733 85.808C159.405 85.992 159.033 86.084 158.617 86.084C157.921 86.084 157.397 85.892 157.045 85.508C156.693 85.116 156.517 84.54 156.517 83.78V80.516C156.517 80.372 156.561 80.256 156.649 80.168C156.737 80.08 156.857 80.036 157.009 80.036C157.161 80.036 157.277 80.08 157.357 80.168C157.445 80.256 157.489 80.372 157.489 80.516V83.756C157.489 84.276 157.593 84.66 157.801 84.908C158.009 85.148 158.337 85.268 158.785 85.268C159.297 85.268 159.709 85.104 160.021 84.776C160.333 84.44 160.489 84 160.489 83.456V80.516C160.489 80.372 160.533 80.256 160.621 80.168C160.709 80.08 160.829 80.036 160.981 80.036ZM166.207 80.012C167.607 80.012 168.307 80.784 168.307 82.328V85.58C168.307 85.732 168.263 85.852 168.175 85.94C168.095 86.02 167.979 86.06 167.827 86.06C167.675 86.06 167.555 86.02 167.467 85.94C167.379 85.852 167.335 85.732 167.335 85.58V82.388C167.335 81.844 167.227 81.448 167.011 81.2C166.803 80.952 166.467 80.828 166.003 80.828C165.467 80.828 165.039 80.992 164.719 81.32C164.399 81.648 164.239 82.092 164.239 82.652V85.58C164.239 85.732 164.195 85.852 164.107 85.94C164.027 86.02 163.911 86.06 163.759 86.06C163.607 86.06 163.487 86.02 163.399 85.94C163.311 85.852 163.267 85.732 163.267 85.58V80.516C163.267 80.372 163.311 80.256 163.399 80.168C163.487 80.08 163.607 80.036 163.759 80.036C163.903 80.036 164.015 80.08 164.095 80.168C164.183 80.256 164.227 80.368 164.227 80.504V81.116C164.419 80.756 164.687 80.484 165.031 80.3C165.375 80.108 165.767 80.012 166.207 80.012ZM172.788 85.292C173.068 85.316 173.208 85.444 173.208 85.676C173.208 85.812 173.156 85.916 173.052 85.988C172.956 86.052 172.808 86.076 172.608 86.06L172.284 86.036C171.644 85.988 171.172 85.796 170.868 85.46C170.564 85.124 170.412 84.616 170.412 83.936V80.924H169.608C169.472 80.924 169.364 80.892 169.284 80.828C169.212 80.756 169.175 80.664 169.175 80.552C169.175 80.432 169.212 80.336 169.284 80.264C169.364 80.192 169.472 80.156 169.608 80.156H170.412V78.8C170.412 78.648 170.456 78.532 170.544 78.452C170.632 78.364 170.752 78.32 170.904 78.32C171.048 78.32 171.164 78.364 171.252 78.452C171.34 78.532 171.384 78.648 171.384 78.8V80.156H172.715C172.844 80.156 172.944 80.192 173.016 80.264C173.096 80.336 173.136 80.432 173.136 80.552C173.136 80.664 173.096 80.756 173.016 80.828C172.944 80.892 172.844 80.924 172.715 80.924H171.384V83.984C171.384 84.424 171.472 84.744 171.648 84.944C171.832 85.136 172.104 85.244 172.464 85.268L172.788 85.292Z" fill="#5F5F5F"/>
<path d="M105.11 166.06C104.958 166.06 104.838 166.016 104.75 165.928C104.662 165.832 104.618 165.708 104.618 165.556V157.984C104.618 157.832 104.662 157.712 104.75 157.624C104.838 157.528 104.958 157.48 105.11 157.48C105.262 157.48 105.382 157.528 105.47 157.624C105.558 157.712 105.602 157.832 105.602 157.984V165.556C105.602 165.708 105.558 165.832 105.47 165.928C105.382 166.016 105.262 166.06 105.11 166.06ZM110.485 160.012C111.885 160.012 112.585 160.784 112.585 162.328V165.58C112.585 165.732 112.541 165.852 112.453 165.94C112.373 166.02 112.257 166.06 112.105 166.06C111.953 166.06 111.833 166.02 111.745 165.94C111.657 165.852 111.613 165.732 111.613 165.58V162.388C111.613 161.844 111.505 161.448 111.289 161.2C111.081 160.952 110.745 160.828 110.281 160.828C109.745 160.828 109.317 160.992 108.997 161.32C108.677 161.648 108.517 162.092 108.517 162.652V165.58C108.517 165.732 108.473 165.852 108.385 165.94C108.305 166.02 108.189 166.06 108.037 166.06C107.885 166.06 107.765 166.02 107.677 165.94C107.589 165.852 107.545 165.732 107.545 165.58V160.516C107.545 160.372 107.589 160.256 107.677 160.168C107.765 160.08 107.885 160.036 108.037 160.036C108.181 160.036 108.293 160.08 108.373 160.168C108.461 160.256 108.505 160.368 108.505 160.504V161.116C108.697 160.756 108.965 160.484 109.309 160.3C109.653 160.108 110.045 160.012 110.485 160.012ZM117.065 165.292C117.345 165.316 117.485 165.444 117.485 165.676C117.485 165.812 117.433 165.916 117.329 165.988C117.233 166.052 117.085 166.076 116.885 166.06L116.561 166.036C115.921 165.988 115.449 165.796 115.145 165.46C114.841 165.124 114.689 164.616 114.689 163.936V160.924H113.885C113.749 160.924 113.641 160.892 113.561 160.828C113.489 160.756 113.453 160.664 113.453 160.552C113.453 160.432 113.489 160.336 113.561 160.264C113.641 160.192 113.749 160.156 113.885 160.156H114.689V158.8C114.689 158.648 114.733 158.532 114.821 158.452C114.909 158.364 115.029 158.32 115.181 158.32C115.325 158.32 115.441 158.364 115.529 158.452C115.617 158.532 115.661 158.648 115.661 158.8V160.156H116.993C117.121 160.156 117.221 160.192 117.293 160.264C117.373 160.336 117.413 160.432 117.413 160.552C117.413 160.664 117.373 160.756 117.293 160.828C117.221 160.892 117.121 160.924 116.993 160.924H115.661V163.984C115.661 164.424 115.749 164.744 115.925 164.944C116.109 165.136 116.381 165.244 116.741 165.268L117.065 165.292ZM122.967 164.644C123.055 164.644 123.131 164.68 123.195 164.752C123.259 164.824 123.291 164.916 123.291 165.028C123.291 165.228 123.151 165.412 122.871 165.58C122.583 165.748 122.279 165.876 121.959 165.964C121.639 166.044 121.327 166.084 121.023 166.084C120.119 166.084 119.403 165.816 118.875 165.28C118.355 164.744 118.095 164.004 118.095 163.06C118.095 162.46 118.211 161.932 118.443 161.476C118.675 161.012 118.999 160.652 119.415 160.396C119.839 160.14 120.319 160.012 120.855 160.012C121.615 160.012 122.219 160.26 122.667 160.756C123.115 161.252 123.339 161.924 123.339 162.772C123.339 162.932 123.307 163.048 123.243 163.12C123.179 163.192 123.075 163.228 122.931 163.228H119.067C119.139 164.604 119.791 165.292 121.023 165.292C121.335 165.292 121.603 165.252 121.827 165.172C122.051 165.084 122.291 164.968 122.547 164.824C122.755 164.704 122.895 164.644 122.967 164.644ZM120.867 160.768C120.355 160.768 119.943 160.928 119.631 161.248C119.327 161.568 119.147 162.02 119.091 162.604H122.487C122.471 162.012 122.323 161.56 122.043 161.248C121.763 160.928 121.371 160.768 120.867 160.768ZM127.663 160.036C127.999 160.012 128.167 160.148 128.167 160.444C128.167 160.572 128.131 160.676 128.059 160.756C127.987 160.828 127.863 160.872 127.687 160.888L127.327 160.924C126.791 160.972 126.391 161.164 126.127 161.5C125.871 161.828 125.743 162.216 125.743 162.664V165.58C125.743 165.74 125.699 165.86 125.611 165.94C125.523 166.02 125.407 166.06 125.263 166.06C125.119 166.06 124.999 166.02 124.903 165.94C124.815 165.852 124.771 165.732 124.771 165.58V160.516C124.771 160.364 124.819 160.248 124.915 160.168C125.011 160.08 125.127 160.036 125.263 160.036C125.391 160.036 125.499 160.08 125.587 160.168C125.675 160.248 125.719 160.36 125.719 160.504V161.176C125.887 160.824 126.123 160.556 126.427 160.372C126.739 160.188 127.095 160.08 127.495 160.048L127.663 160.036ZM133.408 164.644C133.496 164.644 133.572 164.68 133.636 164.752C133.7 164.824 133.732 164.916 133.732 165.028C133.732 165.228 133.592 165.412 133.312 165.58C133.024 165.748 132.72 165.876 132.4 165.964C132.08 166.044 131.768 166.084 131.464 166.084C130.56 166.084 129.844 165.816 129.316 165.28C128.796 164.744 128.536 164.004 128.536 163.06C128.536 162.46 128.652 161.932 128.884 161.476C129.116 161.012 129.44 160.652 129.856 160.396C130.28 160.14 130.76 160.012 131.296 160.012C132.056 160.012 132.66 160.26 133.108 160.756C133.556 161.252 133.78 161.924 133.78 162.772C133.78 162.932 133.748 163.048 133.684 163.12C133.62 163.192 133.516 163.228 133.372 163.228H129.508C129.58 164.604 130.232 165.292 131.464 165.292C131.776 165.292 132.044 165.252 132.268 165.172C132.492 165.084 132.732 164.968 132.988 164.824C133.196 164.704 133.336 164.644 133.408 164.644ZM131.308 160.768C130.796 160.768 130.384 160.928 130.072 161.248C129.768 161.568 129.588 162.02 129.532 162.604H132.928C132.912 162.012 132.764 161.56 132.484 161.248C132.204 160.928 131.812 160.768 131.308 160.768ZM137.181 166.084C136.813 166.084 136.461 166.04 136.125 165.952C135.797 165.864 135.505 165.74 135.249 165.58C135.105 165.484 135.001 165.396 134.937 165.316C134.881 165.228 134.853 165.124 134.853 165.004C134.853 164.9 134.881 164.816 134.937 164.752C135.001 164.68 135.081 164.644 135.177 164.644C135.273 164.644 135.413 164.704 135.597 164.824C135.837 164.968 136.073 165.084 136.305 165.172C136.545 165.252 136.841 165.292 137.193 165.292C137.625 165.292 137.961 165.216 138.201 165.064C138.441 164.912 138.561 164.692 138.561 164.404C138.561 164.228 138.517 164.088 138.429 163.984C138.341 163.872 138.189 163.776 137.973 163.696C137.757 163.608 137.441 163.52 137.025 163.432C136.321 163.28 135.817 163.076 135.513 162.82C135.209 162.564 135.057 162.216 135.057 161.776C135.057 161.432 135.153 161.128 135.345 160.864C135.537 160.6 135.801 160.392 136.137 160.24C136.481 160.088 136.869 160.012 137.301 160.012C137.613 160.012 137.913 160.056 138.201 160.144C138.497 160.224 138.757 160.34 138.981 160.492C139.253 160.684 139.389 160.884 139.389 161.092C139.389 161.196 139.357 161.284 139.293 161.356C139.229 161.428 139.153 161.464 139.065 161.464C138.969 161.464 138.825 161.396 138.633 161.26C138.409 161.116 138.197 161.004 137.997 160.924C137.797 160.844 137.549 160.804 137.253 160.804C136.877 160.804 136.573 160.888 136.341 161.056C136.117 161.224 136.005 161.448 136.005 161.728C136.005 161.904 136.045 162.048 136.125 162.16C136.213 162.264 136.353 162.36 136.545 162.448C136.745 162.528 137.029 162.608 137.396 162.688C137.941 162.808 138.361 162.94 138.657 163.084C138.961 163.228 139.177 163.404 139.305 163.612C139.433 163.82 139.497 164.084 139.497 164.404C139.497 164.908 139.285 165.316 138.861 165.628C138.437 165.932 137.877 166.084 137.181 166.084ZM143.62 165.292C143.9 165.316 144.04 165.444 144.04 165.676C144.04 165.812 143.988 165.916 143.884 165.988C143.788 166.052 143.64 166.076 143.44 166.06L143.116 166.036C142.476 165.988 142.004 165.796 141.7 165.46C141.396 165.124 141.244 164.616 141.244 163.936V160.924H140.44C140.304 160.924 140.196 160.892 140.116 160.828C140.044 160.756 140.008 160.664 140.008 160.552C140.008 160.432 140.044 160.336 140.116 160.264C140.196 160.192 140.304 160.156 140.44 160.156H141.244V158.8C141.244 158.648 141.288 158.532 141.376 158.452C141.464 158.364 141.584 158.32 141.736 158.32C141.88 158.32 141.996 158.364 142.084 158.452C142.172 158.532 142.216 158.648 142.216 158.8V160.156H143.548C143.676 160.156 143.776 160.192 143.848 160.264C143.928 160.336 143.968 160.432 143.968 160.552C143.968 160.664 143.928 160.756 143.848 160.828C143.776 160.892 143.676 160.924 143.548 160.924H142.216V163.984C142.216 164.424 142.304 164.744 142.48 164.944C142.664 165.136 142.936 165.244 143.296 165.268L143.62 165.292ZM150.983 160.036C151.319 160.012 151.487 160.148 151.487 160.444C151.487 160.572 151.451 160.676 151.379 160.756C151.307 160.828 151.183 160.872 151.007 160.888L150.647 160.924C150.111 160.972 149.711 161.164 149.447 161.5C149.191 161.828 149.063 162.216 149.063 162.664V165.58C149.063 165.74 149.019 165.86 148.931 165.94C148.843 166.02 148.727 166.06 148.583 166.06C148.439 166.06 148.319 166.02 148.223 165.94C148.135 165.852 148.091 165.732 148.091 165.58V160.516C148.091 160.364 148.139 160.248 148.235 160.168C148.331 160.08 148.447 160.036 148.583 160.036C148.711 160.036 148.819 160.08 148.907 160.168C148.995 160.248 149.039 160.36 149.039 160.504V161.176C149.207 160.824 149.443 160.556 149.747 160.372C150.059 160.188 150.415 160.08 150.815 160.048L150.983 160.036ZM154.663 160.012C156.127 160.012 156.859 160.78 156.859 162.316V165.58C156.859 165.724 156.815 165.84 156.727 165.928C156.647 166.016 156.535 166.06 156.391 166.06C156.247 166.06 156.131 166.016 156.043 165.928C155.955 165.84 155.911 165.724 155.911 165.58V165.004C155.759 165.348 155.527 165.616 155.215 165.808C154.903 165.992 154.543 166.084 154.135 166.084C153.759 166.084 153.411 166.008 153.091 165.856C152.779 165.704 152.531 165.492 152.347 165.22C152.163 164.948 152.071 164.648 152.071 164.32C152.071 163.88 152.183 163.54 152.407 163.3C152.631 163.052 152.999 162.876 153.511 162.772C154.023 162.66 154.735 162.604 155.647 162.604H155.911V162.208C155.911 161.728 155.811 161.376 155.611 161.152C155.419 160.928 155.103 160.816 154.663 160.816C154.119 160.816 153.567 160.964 153.007 161.26C152.791 161.396 152.639 161.464 152.551 161.464C152.455 161.464 152.375 161.428 152.311 161.356C152.247 161.284 152.215 161.192 152.215 161.08C152.215 160.968 152.247 160.872 152.311 160.792C152.383 160.704 152.495 160.616 152.647 160.528C152.927 160.368 153.243 160.244 153.595 160.156C153.955 160.06 154.311 160.012 154.663 160.012ZM154.267 165.316C154.747 165.316 155.139 165.156 155.443 164.836C155.755 164.508 155.911 164.088 155.911 163.576V163.228H155.695C154.991 163.228 154.455 163.26 154.087 163.324C153.719 163.38 153.455 163.48 153.295 163.624C153.143 163.76 153.067 163.964 153.067 164.236C153.067 164.548 153.179 164.808 153.403 165.016C153.635 165.216 153.923 165.316 154.267 165.316ZM161.338 165.292C161.618 165.316 161.758 165.444 161.758 165.676C161.758 165.812 161.706 165.916 161.602 165.988C161.506 166.052 161.358 166.076 161.158 166.06L160.834 166.036C160.194 165.988 159.722 165.796 159.418 165.46C159.114 165.124 158.962 164.616 158.962 163.936V160.924H158.158C158.022 160.924 157.914 160.892 157.834 160.828C157.762 160.756 157.726 160.664 157.726 160.552C157.726 160.432 157.762 160.336 157.834 160.264C157.914 160.192 158.022 160.156 158.158 160.156H158.962V158.8C158.962 158.648 159.006 158.532 159.094 158.452C159.182 158.364 159.302 158.32 159.454 158.32C159.598 158.32 159.714 158.364 159.802 158.452C159.89 158.532 159.934 158.648 159.934 158.8V160.156H161.266C161.394 160.156 161.494 160.192 161.566 160.264C161.646 160.336 161.686 160.432 161.686 160.552C161.686 160.664 161.646 160.756 161.566 160.828C161.494 160.892 161.394 160.924 161.266 160.924H159.934V163.984C159.934 164.424 160.022 164.744 160.198 164.944C160.382 165.136 160.654 165.244 161.014 165.268L161.338 165.292ZM167.24 164.644C167.328 164.644 167.404 164.68 167.468 164.752C167.532 164.824 167.564 164.916 167.564 165.028C167.564 165.228 167.424 165.412 167.144 165.58C166.856 165.748 166.552 165.876 166.232 165.964C165.912 166.044 165.6 166.084 165.296 166.084C164.392 166.084 163.676 165.816 163.148 165.28C162.628 164.744 162.368 164.004 162.368 163.06C162.368 162.46 162.484 161.932 162.716 161.476C162.948 161.012 163.272 160.652 163.688 160.396C164.112 160.14 164.592 160.012 165.128 160.012C165.888 160.012 166.492 160.26 166.94 160.756C167.388 161.252 167.612 161.924 167.612 162.772C167.612 162.932 167.58 163.048 167.516 163.12C167.452 163.192 167.348 163.228 167.204 163.228H163.34C163.412 164.604 164.064 165.292 165.296 165.292C165.608 165.292 165.876 165.252 166.1 165.172C166.324 165.084 166.564 164.968 166.82 164.824C167.028 164.704 167.168 164.644 167.24 164.644ZM165.14 160.768C164.628 160.768 164.216 160.928 163.904 161.248C163.6 161.568 163.42 162.02 163.364 162.604H166.76C166.744 162.012 166.596 161.56 166.316 161.248C166.036 160.928 165.644 160.768 165.14 160.768Z" fill="#5F5F5F"/>
<rect opacity="0.5" x="104.5" y="172.5" width="229" height="39" rx="4.5" fill="#C5C5C5" stroke="white"/>
<path d="M121.025 190.656C121.529 190.784 121.913 191.028 122.177 191.388C122.449 191.74 122.585 192.18 122.585 192.708C122.585 193.436 122.317 194.016 121.781 194.448C121.245 194.88 120.521 195.096 119.609 195.096C119.089 195.096 118.589 195.016 118.109 194.856C117.629 194.696 117.221 194.472 116.885 194.184C116.701 194.024 116.609 193.836 116.609 193.62C116.609 193.444 116.657 193.296 116.753 193.176C116.857 193.048 116.977 192.984 117.113 192.984C117.193 192.984 117.265 193 117.329 193.032C117.393 193.056 117.481 193.1 117.593 193.164C117.929 193.388 118.249 193.56 118.553 193.68C118.857 193.8 119.189 193.86 119.549 193.86C120.077 193.86 120.469 193.756 120.725 193.548C120.981 193.332 121.109 193.008 121.109 192.576C121.109 192.152 120.973 191.84 120.701 191.64C120.437 191.432 120.025 191.328 119.465 191.328H118.781C118.597 191.328 118.453 191.268 118.349 191.148C118.253 191.02 118.205 190.876 118.205 190.716C118.205 190.548 118.253 190.404 118.349 190.284C118.453 190.164 118.597 190.104 118.781 190.104H119.261C120.357 190.104 120.905 189.692 120.905 188.868C120.905 188.484 120.789 188.188 120.557 187.98C120.325 187.772 120.005 187.668 119.597 187.668C119.013 187.668 118.389 187.9 117.725 188.364C117.613 188.428 117.525 188.476 117.461 188.508C117.397 188.532 117.325 188.544 117.245 188.544C117.109 188.544 116.989 188.484 116.885 188.364C116.789 188.236 116.741 188.084 116.741 187.908C116.741 187.788 116.761 187.688 116.801 187.608C116.849 187.52 116.921 187.432 117.017 187.344C117.353 187.064 117.753 186.844 118.217 186.684C118.689 186.516 119.169 186.432 119.657 186.432C120.489 186.432 121.149 186.636 121.637 187.044C122.133 187.452 122.381 187.996 122.381 188.676C122.373 189.14 122.249 189.548 122.009 189.9C121.777 190.244 121.449 190.496 121.025 190.656ZM124.812 195.072C124.556 195.072 124.344 194.988 124.176 194.82C124.008 194.644 123.924 194.428 123.924 194.172C123.924 193.916 124.008 193.704 124.176 193.536C124.344 193.36 124.556 193.272 124.812 193.272C125.068 193.272 125.28 193.36 125.448 193.536C125.616 193.704 125.7 193.916 125.7 194.172C125.7 194.428 125.616 194.644 125.448 194.82C125.28 194.988 125.068 195.072 124.812 195.072ZM130.345 189.588C130.873 189.588 131.337 189.704 131.737 189.936C132.145 190.16 132.461 190.476 132.685 190.884C132.909 191.292 133.021 191.76 133.021 192.288C133.021 192.84 132.893 193.328 132.637 193.752C132.389 194.176 132.033 194.508 131.569 194.748C131.113 194.98 130.585 195.096 129.985 195.096C129.489 195.096 129.001 195.016 128.521 194.856C128.049 194.688 127.645 194.464 127.309 194.184C127.125 194.024 127.033 193.836 127.033 193.62C127.033 193.444 127.081 193.296 127.177 193.176C127.281 193.048 127.401 192.984 127.537 192.984C127.617 192.984 127.693 193 127.765 193.032C127.837 193.056 127.921 193.1 128.017 193.164C128.337 193.388 128.649 193.56 128.953 193.68C129.257 193.8 129.581 193.86 129.925 193.86C130.453 193.86 130.857 193.728 131.137 193.464C131.417 193.2 131.557 192.824 131.557 192.336C131.557 191.864 131.413 191.492 131.125 191.22C130.845 190.94 130.457 190.8 129.961 190.8C129.649 190.8 129.369 190.844 129.121 190.932C128.881 191.02 128.633 191.168 128.377 191.376C128.225 191.48 128.069 191.532 127.909 191.532C127.749 191.532 127.613 191.484 127.501 191.388C127.389 191.292 127.333 191.164 127.333 191.004V187.26C127.333 187.036 127.397 186.86 127.525 186.732C127.653 186.604 127.833 186.54 128.065 186.54H132.061C132.541 186.54 132.781 186.74 132.781 187.14C132.781 187.54 132.541 187.74 132.061 187.74H128.845V190.02C129.253 189.732 129.753 189.588 130.345 189.588ZM137.48 194.832C137.408 194.96 137.32 195.056 137.216 195.12C137.112 195.184 137.008 195.216 136.904 195.216C136.76 195.216 136.632 195.164 136.52 195.06C136.416 194.956 136.364 194.824 136.364 194.664C136.364 194.528 136.404 194.392 136.484 194.256L140.852 186.708C140.924 186.58 141.012 186.484 141.116 186.42C141.22 186.356 141.324 186.324 141.428 186.324C141.572 186.324 141.696 186.376 141.8 186.48C141.912 186.584 141.968 186.716 141.968 186.876C141.968 187.012 141.928 187.148 141.848 187.284L137.48 194.832ZM136.148 191.592C135.476 191.592 134.952 191.372 134.576 190.932C134.2 190.492 134.012 189.848 134.012 189C134.012 188.16 134.2 187.52 134.576 187.08C134.952 186.64 135.476 186.42 136.148 186.42C136.82 186.42 137.344 186.64 137.72 187.08C138.104 187.52 138.296 188.16 138.296 189C138.296 189.848 138.104 190.492 137.72 190.932C137.344 191.372 136.82 191.592 136.148 191.592ZM136.148 190.62C136.452 190.62 136.672 190.496 136.808 190.248C136.952 189.992 137.024 189.576 137.024 189C137.024 188.44 136.952 188.032 136.808 187.776C136.664 187.52 136.444 187.392 136.148 187.392C135.852 187.392 135.632 187.52 135.488 187.776C135.352 188.024 135.284 188.432 135.284 189C135.284 189.576 135.352 189.992 135.488 190.248C135.632 190.496 135.852 190.62 136.148 190.62ZM142.184 195.084C141.512 195.084 140.988 194.864 140.612 194.424C140.236 193.984 140.048 193.336 140.048 192.48C140.048 191.64 140.236 191.004 140.612 190.572C140.996 190.132 141.52 189.912 142.184 189.912C142.856 189.912 143.38 190.132 143.756 190.572C144.132 191.012 144.32 191.652 144.32 192.492C144.32 193.34 144.132 193.984 143.756 194.424C143.38 194.864 142.856 195.084 142.184 195.084ZM142.184 194.112C142.48 194.112 142.7 193.988 142.844 193.74C142.988 193.484 143.06 193.068 143.06 192.492C143.06 191.932 142.988 191.524 142.844 191.268C142.7 191.012 142.48 190.884 142.184 190.884C141.888 190.884 141.668 191.012 141.524 191.268C141.38 191.524 141.308 191.932 141.308 192.492C141.308 193.068 141.38 193.484 141.524 193.74C141.668 193.988 141.888 194.112 142.184 194.112Z" fill="#1A1A1A"/>
<defs>
<filter id="filter0_d_5202_2400" x="0" y="0" width="440" height="415" filterUnits="userSpaceOnUse" color-interpolation-filters="sRGB">
<feFlood flood-opacity="0" result="BackgroundImageFix"/>
<feColorMatrix in="SourceAlpha" type="matrix" values="0 0 0 0 0 0 0 0 0 0 0 0 0 0 0 0 0 0 127 0" result="hardAlpha"/>
<feMorphology radius="8" operator="dilate" in="SourceAlpha" result="effect1_dropShadow_5202_2400"/>
<feOffset dx="2" dy="32"/>
<feGaussianBlur stdDeviation="40.5"/>
<feComposite in2="hardAlpha" operator="out"/>
<feColorMatrix type="matrix" values="0 0 0 0 0.101961 0 0 0 0 0.121569 0 0 0 0 0.298039 0 0 0 0.15 0"/>
<feBlend mode="normal" in2="BackgroundImageFix" result="effect1_dropShadow_5202_2400"/>
<feBlend mode="normal" in="SourceGraphic" in2="effect1_dropShadow_5202_2400" result="shape"/>
</filter>
</defs>
</svg>
