<svg width="257" height="200" viewBox="0 0 257 200" fill="none" xmlns="http://www.w3.org/2000/svg">
    <g filter="url(#filter0_d_5897_3386)">
        <rect x="13" width="230.066" height="141" rx="10" fill="white" />
    </g>
    <rect opacity="0.5" x="63.8398" y="61.814" width="69.3004" height="4.39927" fill="#C5C5C5" />
    <rect opacity="0.5" x="63.8398" y="90.4546" width="69.3004" height="4.39927" fill="#C5C5C5" />
    <rect opacity="0.5" x="63.8398" y="119.095" width="69.3004" height="4.39927" fill="#C5C5C5" />
    <rect opacity="0.5" x="165.051" y="61.814" width="5.96251" height="4.39927" fill="#C5C5C5" />
    <rect opacity="0.5" x="165.051" y="90.4546" width="5.96251" height="4.39927" fill="#C5C5C5" />
    <rect opacity="0.5" x="165.051" y="119.095" width="5.96251" height="4.39927" fill="#C5C5C5" />
    <rect opacity="0.5" x="153.523" y="61.814" width="5.96251" height="4.39927" fill="#C5C5C5" />
    <rect opacity="0.5" x="141.992" y="61.814" width="5.96251" height="4.39927" fill="#C5C5C5" />
    <rect opacity="0.5" x="153.523" y="90.4546" width="5.96251" height="4.39927" fill="#C5C5C5" />
    <rect opacity="0.5" x="141.992" y="90.4546" width="5.96251" height="4.39927" fill="#C5C5C5" />
    <rect opacity="0.5" x="153.523" y="119.095" width="5.96251" height="4.39927" fill="#C5C5C5" />
    <rect opacity="0.5" x="141.992" y="119.095" width="5.96251" height="4.39927" fill="#C5C5C5" />
    <circle cx="212.938" cy="30.0096" r="11.1373" transform="rotate(-90.4592 212.938 30.0096)" fill="#1D9D23" />
    <g clip-path="url(#clip0_5897_3386)">
        <path d="M211.4 32.3234L218.477 25.2329L219.566 26.3235L211.4 34.5046L206.5 29.5961L207.589 28.5055L211.4 32.3234Z" fill="white" />
    </g>
    <path d="M69.2104 32.519C68.9784 32.519 68.7984 32.455 68.6704 32.327C68.5424 32.199 68.4784 32.023 68.4784 31.799V24.767C68.4784 24.535 68.5464 24.351 68.6824 24.215C68.8264 24.071 69.0144 23.999 69.2464 23.999C69.4864 23.999 69.6744 24.071 69.8104 24.215C69.9544 24.351 70.0264 24.535 70.0264 24.767V31.247H73.3984C73.8784 31.247 74.1184 31.459 74.1184 31.883C74.1184 32.307 73.8784 32.519 73.3984 32.519H69.2104ZM77.8835 32.615C77.2835 32.615 76.7555 32.491 76.2995 32.243C75.8515 31.995 75.5035 31.639 75.2555 31.175C75.0075 30.711 74.8835 30.171 74.8835 29.555C74.8835 28.939 75.0075 28.403 75.2555 27.947C75.5035 27.483 75.8515 27.127 76.2995 26.879C76.7555 26.631 77.2835 26.507 77.8835 26.507C78.4835 26.507 79.0075 26.631 79.4555 26.879C79.9115 27.127 80.2595 27.483 80.4995 27.947C80.7475 28.403 80.8715 28.939 80.8715 29.555C80.8715 30.171 80.7475 30.711 80.4995 31.175C80.2595 31.639 79.9115 31.995 79.4555 32.243C79.0075 32.491 78.4835 32.615 77.8835 32.615ZM77.8715 31.451C78.3595 31.451 78.7315 31.291 78.9875 30.971C79.2435 30.651 79.3715 30.179 79.3715 29.555C79.3715 28.939 79.2435 28.471 78.9875 28.151C78.7315 27.823 78.3635 27.659 77.8835 27.659C77.4035 27.659 77.0315 27.823 76.7675 28.151C76.5115 28.471 76.3835 28.939 76.3835 29.555C76.3835 30.179 76.5115 30.651 76.7675 30.971C77.0235 31.291 77.3915 31.451 77.8715 31.451ZM84.8938 26.507C85.7098 26.507 86.3138 26.711 86.7058 27.119C87.1058 27.519 87.3058 28.131 87.3058 28.955V31.883C87.3058 32.099 87.2418 32.271 87.1138 32.399C86.9858 32.519 86.8098 32.579 86.5858 32.579C86.3778 32.579 86.2058 32.515 86.0698 32.387C85.9418 32.259 85.8778 32.091 85.8778 31.883V31.619C85.7418 31.931 85.5258 32.175 85.2298 32.351C84.9418 32.527 84.6058 32.615 84.2218 32.615C83.8298 32.615 83.4738 32.535 83.1538 32.375C82.8338 32.215 82.5818 31.995 82.3978 31.715C82.2138 31.435 82.1218 31.123 82.1218 30.779C82.1218 30.347 82.2298 30.007 82.4458 29.759C82.6698 29.511 83.0298 29.331 83.5258 29.219C84.0218 29.107 84.7058 29.051 85.5778 29.051H85.8778V28.775C85.8778 28.383 85.7938 28.099 85.6258 27.923C85.4578 27.739 85.1858 27.647 84.8098 27.647C84.5778 27.647 84.3418 27.683 84.1018 27.755C83.8618 27.819 83.5778 27.915 83.2498 28.043C83.0418 28.147 82.8898 28.199 82.7938 28.199C82.6498 28.199 82.5298 28.147 82.4338 28.043C82.3458 27.939 82.3018 27.803 82.3018 27.635C82.3018 27.499 82.3338 27.383 82.3978 27.287C82.4698 27.183 82.5858 27.087 82.7458 26.999C83.0258 26.847 83.3578 26.727 83.7418 26.639C84.1338 26.551 84.5178 26.507 84.8938 26.507ZM84.5218 31.535C84.9218 31.535 85.2458 31.403 85.4938 31.139C85.7498 30.867 85.8778 30.519 85.8778 30.095V29.843H85.6618C85.1258 29.843 84.7098 29.867 84.4138 29.915C84.1178 29.963 83.9058 30.047 83.7778 30.167C83.6498 30.287 83.5858 30.451 83.5858 30.659C83.5858 30.915 83.6738 31.127 83.8498 31.295C84.0338 31.455 84.2578 31.535 84.5218 31.535ZM92.4783 26.507C93.1823 26.507 93.7063 26.707 94.0503 27.107C94.3943 27.507 94.5663 28.111 94.5663 28.919V31.871C94.5663 32.095 94.4983 32.271 94.3623 32.399C94.2343 32.527 94.0543 32.591 93.8223 32.591C93.5903 32.591 93.4063 32.527 93.2703 32.399C93.1343 32.271 93.0663 32.095 93.0663 31.871V29.003C93.0663 28.547 92.9783 28.215 92.8023 28.007C92.6343 27.799 92.3663 27.695 91.9983 27.695C91.5663 27.695 91.2183 27.831 90.9543 28.103C90.6983 28.375 90.5703 28.739 90.5703 29.195V31.871C90.5703 32.095 90.5023 32.271 90.3663 32.399C90.2303 32.527 90.0463 32.591 89.8143 32.591C89.5823 32.591 89.3983 32.527 89.2623 32.399C89.1343 32.271 89.0703 32.095 89.0703 31.871V27.227C89.0703 27.019 89.1383 26.851 89.2743 26.723C89.4103 26.595 89.5943 26.531 89.8263 26.531C90.0343 26.531 90.2023 26.595 90.3303 26.723C90.4663 26.843 90.5343 27.003 90.5343 27.203V27.527C90.7343 27.199 91.0023 26.947 91.3383 26.771C91.6743 26.595 92.0543 26.507 92.4783 26.507ZM102.372 26.507C103.188 26.507 103.792 26.711 104.184 27.119C104.584 27.519 104.784 28.131 104.784 28.955V31.883C104.784 32.099 104.72 32.271 104.592 32.399C104.464 32.519 104.288 32.579 104.064 32.579C103.856 32.579 103.684 32.515 103.548 32.387C103.42 32.259 103.356 32.091 103.356 31.883V31.619C103.22 31.931 103.004 32.175 102.708 32.351C102.42 32.527 102.084 32.615 101.7 32.615C101.308 32.615 100.952 32.535 100.632 32.375C100.312 32.215 100.06 31.995 99.8757 31.715C99.6917 31.435 99.5997 31.123 99.5997 30.779C99.5997 30.347 99.7077 30.007 99.9237 29.759C100.148 29.511 100.508 29.331 101.004 29.219C101.5 29.107 102.184 29.051 103.056 29.051H103.356V28.775C103.356 28.383 103.272 28.099 103.104 27.923C102.936 27.739 102.664 27.647 102.288 27.647C102.056 27.647 101.82 27.683 101.58 27.755C101.34 27.819 101.056 27.915 100.728 28.043C100.52 28.147 100.368 28.199 100.272 28.199C100.128 28.199 100.008 28.147 99.9117 28.043C99.8237 27.939 99.7797 27.803 99.7797 27.635C99.7797 27.499 99.8117 27.383 99.8757 27.287C99.9477 27.183 100.064 27.087 100.224 26.999C100.504 26.847 100.836 26.727 101.22 26.639C101.612 26.551 101.996 26.507 102.372 26.507ZM102 31.535C102.4 31.535 102.724 31.403 102.972 31.139C103.228 30.867 103.356 30.519 103.356 30.095V29.843H103.14C102.604 29.843 102.188 29.867 101.892 29.915C101.596 29.963 101.384 30.047 101.256 30.167C101.128 30.287 101.064 30.451 101.064 30.659C101.064 30.915 101.152 31.127 101.328 31.295C101.512 31.455 101.736 31.535 102 31.535ZM109.92 26.507C110.424 26.507 110.872 26.635 111.264 26.891C111.664 27.147 111.972 27.511 112.188 27.983C112.412 28.447 112.524 28.983 112.524 29.591C112.524 30.199 112.412 30.731 112.188 31.187C111.972 31.643 111.668 31.995 111.276 32.243C110.884 32.491 110.432 32.615 109.92 32.615C109.504 32.615 109.132 32.527 108.804 32.351C108.476 32.175 108.224 31.931 108.048 31.619V34.067C108.048 34.275 107.98 34.439 107.844 34.559C107.708 34.679 107.528 34.739 107.304 34.739C107.08 34.739 106.896 34.675 106.752 34.547C106.616 34.419 106.548 34.251 106.548 34.043V27.239C106.548 27.023 106.612 26.851 106.74 26.723C106.876 26.595 107.056 26.531 107.28 26.531C107.504 26.531 107.684 26.595 107.82 26.723C107.956 26.851 108.024 27.023 108.024 27.239V27.539C108.2 27.211 108.452 26.959 108.78 26.783C109.116 26.599 109.496 26.507 109.92 26.507ZM109.524 31.451C109.996 31.451 110.364 31.291 110.628 30.971C110.892 30.643 111.024 30.183 111.024 29.591C111.024 28.983 110.892 28.511 110.628 28.175C110.364 27.839 109.996 27.671 109.524 27.671C109.044 27.671 108.672 27.835 108.408 28.163C108.152 28.491 108.024 28.959 108.024 29.567C108.024 30.167 108.152 30.631 108.408 30.959C108.672 31.287 109.044 31.451 109.524 31.451ZM117.367 26.507C117.871 26.507 118.319 26.635 118.711 26.891C119.111 27.147 119.419 27.511 119.635 27.983C119.859 28.447 119.971 28.983 119.971 29.591C119.971 30.199 119.859 30.731 119.635 31.187C119.419 31.643 119.115 31.995 118.723 32.243C118.331 32.491 117.879 32.615 117.367 32.615C116.951 32.615 116.579 32.527 116.251 32.351C115.923 32.175 115.671 31.931 115.495 31.619V34.067C115.495 34.275 115.427 34.439 115.291 34.559C115.155 34.679 114.975 34.739 114.751 34.739C114.527 34.739 114.343 34.675 114.199 34.547C114.063 34.419 113.995 34.251 113.995 34.043V27.239C113.995 27.023 114.059 26.851 114.187 26.723C114.323 26.595 114.503 26.531 114.727 26.531C114.951 26.531 115.131 26.595 115.267 26.723C115.403 26.851 115.471 27.023 115.471 27.239V27.539C115.647 27.211 115.899 26.959 116.227 26.783C116.563 26.599 116.943 26.507 117.367 26.507ZM116.971 31.451C117.443 31.451 117.811 31.291 118.075 30.971C118.339 30.643 118.471 30.183 118.471 29.591C118.471 28.983 118.339 28.511 118.075 28.175C117.811 27.839 117.443 27.671 116.971 27.671C116.491 27.671 116.119 27.835 115.855 28.163C115.599 28.491 115.471 28.959 115.471 29.567C115.471 30.167 115.599 30.631 115.855 30.959C116.119 31.287 116.491 31.451 116.971 31.451ZM124.718 26.531C124.926 26.515 125.09 26.559 125.21 26.663C125.33 26.767 125.39 26.923 125.39 27.131C125.39 27.347 125.338 27.507 125.234 27.611C125.13 27.715 124.942 27.783 124.67 27.815L124.31 27.851C123.838 27.899 123.49 28.059 123.266 28.331C123.05 28.603 122.942 28.943 122.942 29.351V31.871C122.942 32.103 122.87 32.283 122.726 32.411C122.582 32.531 122.402 32.591 122.186 32.591C121.97 32.591 121.79 32.531 121.646 32.411C121.51 32.283 121.442 32.103 121.442 31.871V27.227C121.442 27.003 121.51 26.831 121.646 26.711C121.79 26.591 121.966 26.531 122.174 26.531C122.382 26.531 122.55 26.591 122.678 26.711C122.806 26.823 122.87 26.987 122.87 27.203V27.683C123.022 27.331 123.246 27.059 123.542 26.867C123.846 26.675 124.182 26.567 124.55 26.543L124.718 26.531ZM128.835 32.615C128.235 32.615 127.707 32.491 127.251 32.243C126.803 31.995 126.455 31.639 126.207 31.175C125.959 30.711 125.835 30.171 125.835 29.555C125.835 28.939 125.959 28.403 126.207 27.947C126.455 27.483 126.803 27.127 127.251 26.879C127.707 26.631 128.235 26.507 128.835 26.507C129.435 26.507 129.959 26.631 130.407 26.879C130.863 27.127 131.211 27.483 131.451 27.947C131.699 28.403 131.823 28.939 131.823 29.555C131.823 30.171 131.699 30.711 131.451 31.175C131.211 31.639 130.863 31.995 130.407 32.243C129.959 32.491 129.435 32.615 128.835 32.615ZM128.823 31.451C129.311 31.451 129.683 31.291 129.939 30.971C130.195 30.651 130.323 30.179 130.323 29.555C130.323 28.939 130.195 28.471 129.939 28.151C129.683 27.823 129.315 27.659 128.835 27.659C128.355 27.659 127.983 27.823 127.719 28.151C127.463 28.471 127.335 28.939 127.335 29.555C127.335 30.179 127.463 30.651 127.719 30.971C127.975 31.291 128.343 31.451 128.823 31.451ZM137.299 26.963C137.363 26.819 137.447 26.711 137.551 26.639C137.663 26.567 137.783 26.531 137.911 26.531C138.095 26.531 138.259 26.595 138.403 26.723C138.555 26.843 138.631 26.995 138.631 27.179C138.631 27.275 138.607 27.371 138.559 27.467L136.339 32.111C136.267 32.263 136.163 32.379 136.027 32.459C135.899 32.539 135.755 32.579 135.595 32.579C135.443 32.579 135.295 32.539 135.151 32.459C135.015 32.379 134.911 32.263 134.839 32.111L132.607 27.467C132.567 27.387 132.547 27.295 132.547 27.191C132.547 27.007 132.623 26.851 132.775 26.723C132.935 26.595 133.115 26.531 133.315 26.531C133.603 26.531 133.815 26.671 133.951 26.951L135.631 30.659L137.299 26.963ZM144.314 30.911C144.45 30.911 144.558 30.963 144.638 31.067C144.726 31.171 144.77 31.311 144.77 31.487C144.77 31.735 144.622 31.943 144.326 32.111C144.054 32.263 143.746 32.387 143.402 32.483C143.058 32.571 142.73 32.615 142.418 32.615C141.474 32.615 140.726 32.343 140.174 31.799C139.622 31.255 139.346 30.511 139.346 29.567C139.346 28.967 139.466 28.435 139.706 27.971C139.946 27.507 140.282 27.147 140.714 26.891C141.154 26.635 141.65 26.507 142.202 26.507C142.73 26.507 143.19 26.623 143.582 26.855C143.974 27.087 144.278 27.415 144.494 27.839C144.71 28.263 144.818 28.763 144.818 29.339C144.818 29.683 144.666 29.855 144.362 29.855H140.822C140.87 30.407 141.026 30.815 141.29 31.079C141.554 31.335 141.938 31.463 142.442 31.463C142.698 31.463 142.922 31.431 143.114 31.367C143.314 31.303 143.538 31.215 143.786 31.103C144.026 30.975 144.202 30.911 144.314 30.911ZM142.238 27.563C141.83 27.563 141.502 27.691 141.254 27.947C141.014 28.203 140.87 28.571 140.822 29.051H143.534C143.518 28.563 143.398 28.195 143.174 27.947C142.95 27.691 142.638 27.563 142.238 27.563ZM151.181 23.999C151.405 23.999 151.589 24.063 151.733 24.191C151.877 24.319 151.949 24.487 151.949 24.695V31.871C151.949 32.087 151.881 32.259 151.745 32.387C151.609 32.515 151.429 32.579 151.205 32.579C150.981 32.579 150.801 32.515 150.665 32.387C150.529 32.259 150.461 32.087 150.461 31.871V31.571C150.285 31.899 150.029 32.155 149.693 32.339C149.365 32.523 148.989 32.615 148.565 32.615C148.061 32.615 147.609 32.487 147.209 32.231C146.817 31.975 146.509 31.615 146.285 31.151C146.069 30.679 145.961 30.139 145.961 29.531C145.961 28.923 146.069 28.391 146.285 27.935C146.509 27.479 146.817 27.127 147.209 26.879C147.601 26.631 148.053 26.507 148.565 26.507C148.989 26.507 149.365 26.595 149.693 26.771C150.021 26.947 150.273 27.195 150.449 27.515V24.671C150.449 24.471 150.513 24.311 150.641 24.191C150.777 24.063 150.957 23.999 151.181 23.999ZM148.961 31.451C149.441 31.451 149.809 31.287 150.065 30.959C150.329 30.631 150.461 30.163 150.461 29.555C150.461 28.947 150.329 28.483 150.065 28.163C149.809 27.835 149.445 27.671 148.973 27.671C148.493 27.671 148.121 27.831 147.857 28.151C147.593 28.471 147.461 28.931 147.461 29.531C147.461 30.139 147.593 30.611 147.857 30.947C148.121 31.283 148.489 31.451 148.961 31.451Z" fill="black" />
    <circle cx="43" cy="28.519" r="15.875" fill="#FFCE70" />
    <g clip-path="url(#clip1_5897_3386)">
        <path d="M42.8788 35.5899C38.6266 35.5899 35.1797 32.1368 35.1797 27.877C35.1797 23.6171 38.6266 20.1641 42.8788 20.1641C47.131 20.1641 50.5779 23.6171 50.5779 27.877C50.5779 32.1368 47.131 35.5899 42.8788 35.5899ZM40.1841 29.4196V30.9622H42.1089V32.5048H43.6487V30.9622H44.4186C44.9291 30.9622 45.4187 30.759 45.7796 30.3974C46.1406 30.0358 46.3434 29.5453 46.3434 29.0339C46.3434 28.5225 46.1406 28.0321 45.7796 27.6705C45.4187 27.3089 44.9291 27.1057 44.4186 27.1057H41.339C41.2369 27.1057 41.139 27.0651 41.0668 26.9927C40.9946 26.9204 40.954 26.8223 40.954 26.7201C40.954 26.6178 40.9946 26.5197 41.0668 26.4474C41.139 26.375 41.2369 26.3344 41.339 26.3344H45.5735V24.7918H43.6487V23.2492H42.1089V24.7918H41.339C40.8285 24.7918 40.3389 24.995 39.9779 25.3566C39.617 25.7182 39.4142 26.2087 39.4142 26.7201C39.4142 27.2315 39.617 27.7219 39.9779 28.0835C40.3389 28.4451 40.8285 28.6483 41.339 28.6483H44.4186C44.5207 28.6483 44.6186 28.6889 44.6908 28.7612C44.763 28.8336 44.8036 28.9317 44.8036 29.0339C44.8036 29.1362 44.763 29.2343 44.6908 29.3066C44.6186 29.379 44.5207 29.4196 44.4186 29.4196H40.1841Z" fill="#1A1F4C" />
    </g>
    <path d="M35.705 66.5277C35.753 66.6317 35.777 66.7357 35.777 66.8397C35.777 67.0237 35.701 67.1797 35.549 67.3077C35.405 67.4357 35.237 67.4997 35.045 67.4997C34.917 67.4997 34.797 67.4677 34.685 67.4037C34.573 67.3317 34.485 67.2237 34.421 67.0797L33.701 65.4717H29.477L28.757 67.0797C28.693 67.2237 28.605 67.3317 28.493 67.4037C28.381 67.4677 28.257 67.4997 28.121 67.4997C27.937 67.4997 27.769 67.4357 27.617 67.3077C27.465 67.1797 27.389 67.0237 27.389 66.8397C27.389 66.7357 27.413 66.6317 27.461 66.5277L30.773 59.4117C30.845 59.2517 30.953 59.1317 31.097 59.0517C31.249 58.9637 31.409 58.9197 31.577 58.9197C31.745 58.9197 31.901 58.9637 32.045 59.0517C32.197 59.1317 32.309 59.2517 32.381 59.4117L35.705 66.5277ZM33.173 64.2717L31.589 60.7077L30.005 64.2717H33.173ZM41.6833 61.4637C41.9153 61.4637 42.0992 61.5277 42.2352 61.6557C42.3712 61.7837 42.4392 61.9557 42.4392 62.1717V66.8277C42.4392 67.0357 42.3672 67.2037 42.2233 67.3317C42.0873 67.4597 41.9073 67.5237 41.6833 67.5237C41.4673 67.5237 41.2953 67.4637 41.1673 67.3437C41.0393 67.2237 40.9753 67.0597 40.9753 66.8517V66.5517C40.7912 66.8717 40.5432 67.1197 40.2312 67.2957C39.9192 67.4637 39.5672 67.5477 39.1752 67.5477C37.7352 67.5477 37.0152 66.7397 37.0152 65.1237V62.1717C37.0152 61.9557 37.0832 61.7837 37.2192 61.6557C37.3552 61.5277 37.5352 61.4637 37.7592 61.4637C37.9912 61.4637 38.1752 61.5277 38.3112 61.6557C38.4472 61.7837 38.5152 61.9557 38.5152 62.1717V65.1357C38.5152 65.5517 38.5992 65.8597 38.7672 66.0597C38.9352 66.2597 39.1992 66.3597 39.5592 66.3597C39.9752 66.3597 40.3072 66.2237 40.5553 65.9517C40.8113 65.6717 40.9393 65.3037 40.9393 64.8477V62.1717C40.9393 61.9557 41.0073 61.7837 41.1432 61.6557C41.2792 61.5277 41.4592 61.4637 41.6833 61.4637ZM49.2085 61.4637C49.4325 61.4637 49.6125 61.5277 49.7485 61.6557C49.8845 61.7837 49.9525 61.9557 49.9525 62.1717V66.9117C49.9525 67.8317 49.6965 68.5277 49.1845 68.9997C48.6725 69.4717 47.9165 69.7077 46.9165 69.7077C46.0445 69.7077 45.3165 69.5437 44.7325 69.2157C44.4365 69.0397 44.2885 68.8277 44.2885 68.5797C44.2885 68.4037 44.3285 68.2637 44.4085 68.1597C44.4965 68.0557 44.6085 68.0037 44.7445 68.0037C44.8165 68.0037 44.9045 68.0197 45.0085 68.0517C45.1125 68.0917 45.2205 68.1357 45.3325 68.1837C45.6205 68.3037 45.8765 68.3957 46.1005 68.4597C46.3325 68.5237 46.5965 68.5557 46.8925 68.5557C47.9405 68.5557 48.4645 68.0437 48.4645 67.0197V66.2517C48.2885 66.5797 48.0325 66.8357 47.6965 67.0197C47.3605 67.1957 46.9765 67.2837 46.5445 67.2837C46.0325 67.2837 45.5765 67.1637 45.1765 66.9237C44.7845 66.6757 44.4765 66.3317 44.2525 65.8917C44.0285 65.4517 43.9165 64.9437 43.9165 64.3677C43.9165 63.7917 44.0245 63.2837 44.2405 62.8437C44.4645 62.3957 44.7765 62.0517 45.1765 61.8117C45.5765 61.5637 46.0325 61.4397 46.5445 61.4397C46.9765 61.4397 47.3605 61.5317 47.6965 61.7157C48.0325 61.8917 48.2885 62.1437 48.4645 62.4717V62.1597C48.4645 61.9517 48.5325 61.7837 48.6685 61.6557C48.8045 61.5277 48.9845 61.4637 49.2085 61.4637ZM46.9405 66.1197C47.4205 66.1197 47.7925 65.9637 48.0565 65.6517C48.3285 65.3397 48.4645 64.9117 48.4645 64.3677C48.4645 63.8157 48.3285 63.3837 48.0565 63.0717C47.7925 62.7597 47.4205 62.6037 46.9405 62.6037C46.4685 62.6037 46.0965 62.7597 45.8245 63.0717C45.5525 63.3837 45.4165 63.8157 45.4165 64.3677C45.4165 64.9117 45.5525 65.3397 45.8245 65.6517C46.0965 65.9637 46.4685 66.1197 46.9405 66.1197Z" fill="#C5C5C5" />
    <path d="M30.965 95.4893C30.349 95.4893 29.765 95.4093 29.213 95.2493C28.669 95.0813 28.225 94.8573 27.881 94.5773C27.697 94.4413 27.605 94.2493 27.605 94.0013C27.605 93.8333 27.653 93.6893 27.749 93.5693C27.853 93.4413 27.973 93.3773 28.109 93.3773C28.253 93.3773 28.417 93.4333 28.601 93.5453C28.945 93.7933 29.305 93.9733 29.681 94.0853C30.057 94.1973 30.473 94.2533 30.929 94.2533C31.513 94.2533 31.961 94.1533 32.273 93.9533C32.585 93.7453 32.741 93.4453 32.741 93.0533C32.741 92.7493 32.593 92.5173 32.297 92.3573C32.009 92.1893 31.525 92.0293 30.845 91.8773C30.141 91.7253 29.569 91.5493 29.129 91.3493C28.689 91.1493 28.357 90.8933 28.133 90.5813C27.909 90.2693 27.797 89.8733 27.797 89.3933C27.797 88.8973 27.937 88.4533 28.217 88.0613C28.497 87.6693 28.885 87.3653 29.381 87.1493C29.885 86.9253 30.449 86.8133 31.073 86.8133C32.217 86.8133 33.149 87.1173 33.869 87.7253C33.973 87.8133 34.045 87.9013 34.085 87.9893C34.133 88.0693 34.157 88.1733 34.157 88.3013C34.157 88.4693 34.105 88.6173 34.001 88.7453C33.905 88.8653 33.789 88.9253 33.653 88.9253C33.573 88.9253 33.497 88.9133 33.425 88.8893C33.361 88.8653 33.273 88.8213 33.161 88.7573C32.833 88.5173 32.513 88.3413 32.201 88.2293C31.897 88.1093 31.521 88.0493 31.073 88.0493C30.529 88.0493 30.097 88.1613 29.777 88.3853C29.465 88.6013 29.309 88.9053 29.309 89.2973C29.309 89.6253 29.449 89.8773 29.729 90.0533C30.009 90.2293 30.485 90.3933 31.157 90.5453C31.869 90.7053 32.445 90.8853 32.885 91.0853C33.333 91.2773 33.673 91.5253 33.905 91.8293C34.145 92.1333 34.265 92.5133 34.265 92.9693C34.265 93.4653 34.125 93.9053 33.845 94.2893C33.573 94.6653 33.185 94.9613 32.681 95.1773C32.185 95.3853 31.613 95.4893 30.965 95.4893ZM40.4413 93.7733C40.5773 93.7733 40.6853 93.8253 40.7653 93.9293C40.8533 94.0333 40.8973 94.1733 40.8973 94.3493C40.8973 94.5973 40.7493 94.8053 40.4533 94.9733C40.1813 95.1253 39.8733 95.2493 39.5293 95.3453C39.1853 95.4333 38.8573 95.4773 38.5453 95.4773C37.6013 95.4773 36.8533 95.2053 36.3013 94.6613C35.7493 94.1173 35.4733 93.3733 35.4733 92.4293C35.4733 91.8293 35.5933 91.2973 35.8333 90.8333C36.0733 90.3693 36.4093 90.0093 36.8413 89.7533C37.2813 89.4973 37.7773 89.3693 38.3293 89.3693C38.8573 89.3693 39.3173 89.4853 39.7093 89.7173C40.1013 89.9493 40.4053 90.2773 40.6213 90.7013C40.8373 91.1253 40.9453 91.6253 40.9453 92.2013C40.9453 92.5453 40.7933 92.7173 40.4893 92.7173H36.9493C36.9973 93.2693 37.1533 93.6773 37.4173 93.9413C37.6813 94.1973 38.0653 94.3253 38.5693 94.3253C38.8253 94.3253 39.0493 94.2933 39.2413 94.2293C39.4413 94.1653 39.6653 94.0773 39.9133 93.9653C40.1533 93.8373 40.3293 93.7733 40.4413 93.7733ZM38.3653 90.4253C37.9573 90.4253 37.6293 90.5533 37.3813 90.8093C37.1413 91.0653 36.9973 91.4333 36.9493 91.9133H39.6613C39.6453 91.4253 39.5253 91.0573 39.3013 90.8093C39.0773 90.5533 38.7653 90.4253 38.3653 90.4253ZM45.7843 89.3693C46.2883 89.3693 46.7363 89.4973 47.1283 89.7533C47.5283 90.0093 47.8363 90.3733 48.0523 90.8453C48.2763 91.3093 48.3883 91.8453 48.3883 92.4533C48.3883 93.0613 48.2763 93.5933 48.0523 94.0493C47.8363 94.5053 47.5323 94.8573 47.1403 95.1053C46.7483 95.3533 46.2963 95.4773 45.7843 95.4773C45.3683 95.4773 44.9963 95.3893 44.6683 95.2133C44.3403 95.0373 44.0883 94.7933 43.9123 94.4813V96.9293C43.9123 97.1373 43.8443 97.3013 43.7083 97.4213C43.5723 97.5413 43.3923 97.6013 43.1683 97.6013C42.9443 97.6013 42.7603 97.5373 42.6163 97.4093C42.4803 97.2813 42.4123 97.1133 42.4123 96.9053V90.1013C42.4123 89.8853 42.4763 89.7133 42.6043 89.5853C42.7403 89.4573 42.9203 89.3933 43.1443 89.3933C43.3683 89.3933 43.5483 89.4573 43.6843 89.5853C43.8203 89.7133 43.8883 89.8853 43.8883 90.1013V90.4013C44.0643 90.0733 44.3163 89.8213 44.6443 89.6453C44.9803 89.4613 45.3603 89.3693 45.7843 89.3693ZM45.3883 94.3133C45.8603 94.3133 46.2283 94.1533 46.4923 93.8333C46.7563 93.5053 46.8883 93.0453 46.8883 92.4533C46.8883 91.8453 46.7563 91.3733 46.4923 91.0373C46.2283 90.7013 45.8603 90.5333 45.3883 90.5333C44.9083 90.5333 44.5363 90.6973 44.2723 91.0253C44.0163 91.3533 43.8883 91.8213 43.8883 92.4293C43.8883 93.0293 44.0163 93.4933 44.2723 93.8213C44.5363 94.1493 44.9083 94.3133 45.3883 94.3133ZM52.8722 94.3373C53.2722 94.3613 53.4722 94.5413 53.4722 94.8773C53.4722 95.0693 53.3922 95.2173 53.2322 95.3213C53.0802 95.4173 52.8602 95.4573 52.5722 95.4413L52.2482 95.4173C50.9042 95.3213 50.2322 94.6013 50.2322 93.2573V90.6413H49.6322C49.4162 90.6413 49.2482 90.5933 49.1282 90.4973C49.0162 90.4013 48.9602 90.2613 48.9602 90.0773C48.9602 89.8933 49.0162 89.7533 49.1282 89.6573C49.2482 89.5613 49.4162 89.5133 49.6322 89.5133H50.2322V88.4093C50.2322 88.1933 50.3002 88.0213 50.4362 87.8933C50.5722 87.7653 50.7562 87.7013 50.9882 87.7013C51.2122 87.7013 51.3922 87.7653 51.5282 87.8933C51.6642 88.0213 51.7322 88.1933 51.7322 88.4093V89.5133H52.7522C52.9682 89.5133 53.1322 89.5613 53.2442 89.6573C53.3642 89.7533 53.4242 89.8933 53.4242 90.0773C53.4242 90.2613 53.3642 90.4013 53.2442 90.4973C53.1322 90.5933 52.9682 90.6413 52.7522 90.6413H51.7322V93.3653C51.7322 93.9573 52.0042 94.2733 52.5482 94.3133L52.8722 94.3373Z" fill="#C5C5C5" />
    <path d="M31.805 123.42C30.981 123.42 30.265 123.244 29.657 122.892C29.057 122.54 28.593 122.036 28.265 121.38C27.937 120.724 27.773 119.956 27.773 119.076C27.773 118.196 27.933 117.432 28.253 116.784C28.581 116.128 29.049 115.624 29.657 115.272C30.265 114.92 30.981 114.744 31.805 114.744C32.629 114.744 33.341 114.92 33.941 115.272C34.549 115.624 35.013 116.128 35.333 116.784C35.661 117.432 35.825 118.196 35.825 119.076C35.825 119.956 35.661 120.724 35.333 121.38C35.005 122.036 34.537 122.54 33.929 122.892C33.329 123.244 32.621 123.42 31.805 123.42ZM31.805 122.184C32.581 122.184 33.185 121.916 33.617 121.38C34.057 120.844 34.277 120.076 34.277 119.076C34.277 118.076 34.057 117.312 33.617 116.784C33.185 116.248 32.581 115.98 31.805 115.98C31.021 115.98 30.409 116.248 29.969 116.784C29.537 117.312 29.321 118.076 29.321 119.076C29.321 120.076 29.537 120.844 29.969 121.38C30.409 121.916 31.021 122.184 31.805 122.184ZM40.1006 123.408C39.5166 123.408 39.0006 123.284 38.5526 123.036C38.1126 122.788 37.7726 122.436 37.5326 121.98C37.2926 121.524 37.1726 120.992 37.1726 120.384C37.1726 119.776 37.2966 119.24 37.5446 118.776C37.8006 118.304 38.1566 117.94 38.6126 117.684C39.0686 117.428 39.5926 117.3 40.1846 117.3C40.4966 117.3 40.8086 117.344 41.1206 117.432C41.4406 117.52 41.7206 117.64 41.9606 117.792C42.2166 117.96 42.3446 118.172 42.3446 118.428C42.3446 118.604 42.3006 118.748 42.2126 118.86C42.1326 118.964 42.0246 119.016 41.8886 119.016C41.8006 119.016 41.7086 118.996 41.6126 118.956C41.5166 118.916 41.4206 118.868 41.3246 118.812C41.1486 118.708 40.9806 118.628 40.8206 118.572C40.6606 118.508 40.4766 118.476 40.2686 118.476C39.7726 118.476 39.3886 118.64 39.1166 118.968C38.8526 119.288 38.7206 119.752 38.7206 120.36C38.7206 120.96 38.8526 121.424 39.1166 121.752C39.3886 122.072 39.7726 122.232 40.2686 122.232C40.4686 122.232 40.6446 122.204 40.7966 122.148C40.9566 122.084 41.1326 122 41.3246 121.896C41.4446 121.824 41.5486 121.772 41.6366 121.74C41.7246 121.7 41.8126 121.68 41.9006 121.68C42.0286 121.68 42.1366 121.736 42.2246 121.848C42.3126 121.96 42.3566 122.1 42.3566 122.268C42.3566 122.404 42.3246 122.524 42.2606 122.628C42.2046 122.724 42.1086 122.812 41.9726 122.892C41.7246 123.052 41.4366 123.18 41.1086 123.276C40.7806 123.364 40.4446 123.408 40.1006 123.408ZM46.6791 122.268C47.0791 122.292 47.2791 122.472 47.2791 122.808C47.2791 123 47.1991 123.148 47.0391 123.252C46.8871 123.348 46.6671 123.388 46.3791 123.372L46.0551 123.348C44.7111 123.252 44.0391 122.532 44.0391 121.188V118.572H43.4391C43.2231 118.572 43.0551 118.524 42.9351 118.428C42.8231 118.332 42.7671 118.192 42.7671 118.008C42.7671 117.824 42.8231 117.684 42.9351 117.588C43.0551 117.492 43.2231 117.444 43.4391 117.444H44.0391V116.34C44.0391 116.124 44.1071 115.952 44.2431 115.824C44.3791 115.696 44.5631 115.632 44.7951 115.632C45.0191 115.632 45.1991 115.696 45.3351 115.824C45.4711 115.952 45.5391 116.124 45.5391 116.34V117.444H46.5591C46.7751 117.444 46.9391 117.492 47.0511 117.588C47.1711 117.684 47.2311 117.824 47.2311 118.008C47.2311 118.192 47.1711 118.332 47.0511 118.428C46.9391 118.524 46.7751 118.572 46.5591 118.572H45.5391V121.296C45.5391 121.888 45.8111 122.204 46.3551 122.244L46.6791 122.268Z" fill="#C5C5C5" />
    <path d="M185.243 58.9317C185.467 58.9317 185.643 59.0037 185.771 59.1477C185.907 59.2837 185.975 59.4677 185.975 59.6997V66.7437C185.975 66.9757 185.907 67.1637 185.771 67.3077C185.635 67.4517 185.459 67.5237 185.243 67.5237C184.987 67.5237 184.791 67.4317 184.655 67.2477L180.275 61.5477V66.7437C180.275 66.9757 180.211 67.1637 180.083 67.3077C179.955 67.4517 179.779 67.5237 179.555 67.5237C179.331 67.5237 179.155 67.4517 179.027 67.3077C178.899 67.1637 178.835 66.9757 178.835 66.7437V59.6997C178.835 59.4677 178.903 59.2837 179.039 59.1477C179.175 59.0037 179.355 58.9317 179.579 58.9317C179.827 58.9317 180.019 59.0237 180.155 59.2077L184.523 64.8837V59.6997C184.523 59.4677 184.587 59.2837 184.715 59.1477C184.851 59.0037 185.027 58.9317 185.243 58.9317ZM193.14 66.2037C193.62 66.2037 193.86 66.4077 193.86 66.8157C193.86 67.2397 193.62 67.4517 193.14 67.4517H189.084C188.596 67.4517 188.352 67.2397 188.352 66.8157C188.352 66.4077 188.596 66.2037 189.084 66.2037H190.332V60.7317L189.18 61.4397C189.068 61.5037 188.968 61.5357 188.88 61.5357C188.712 61.5357 188.568 61.4637 188.448 61.3197C188.336 61.1757 188.28 61.0157 188.28 60.8397C188.28 60.6077 188.384 60.4277 188.592 60.2997L190.452 59.1477C190.692 59.0037 190.92 58.9317 191.136 58.9317C191.36 58.9317 191.54 58.9997 191.676 59.1357C191.812 59.2717 191.88 59.4597 191.88 59.6997V66.2037H193.14ZM200.539 66.2037C201.019 66.2037 201.259 66.4077 201.259 66.8157C201.259 67.2397 201.019 67.4517 200.539 67.4517H195.979C195.771 67.4517 195.607 67.3917 195.487 67.2717C195.367 67.1437 195.307 66.9877 195.307 66.8037C195.307 66.5637 195.399 66.3477 195.583 66.1557L198.319 63.2157C198.655 62.8477 198.899 62.5117 199.051 62.2077C199.211 61.8957 199.291 61.5877 199.291 61.2837C199.291 60.9077 199.183 60.6197 198.967 60.4197C198.751 60.2197 198.443 60.1197 198.043 60.1197C197.715 60.1197 197.395 60.1837 197.083 60.3117C196.779 60.4317 196.471 60.5997 196.159 60.8157C196.079 60.8717 195.999 60.9197 195.919 60.9597C195.839 60.9917 195.759 61.0077 195.679 61.0077C195.543 61.0077 195.423 60.9437 195.319 60.8157C195.223 60.6877 195.175 60.5357 195.175 60.3597C195.175 60.2397 195.195 60.1357 195.235 60.0477C195.283 59.9597 195.355 59.8757 195.451 59.7957C195.803 59.5157 196.215 59.2957 196.687 59.1357C197.159 58.9677 197.631 58.8837 198.103 58.8837C198.927 58.8837 199.583 59.0917 200.071 59.5077C200.567 59.9237 200.815 60.4837 200.815 61.1877C200.815 61.6757 200.711 62.1357 200.503 62.5677C200.295 62.9917 199.943 63.4677 199.447 63.9957L197.371 66.2037H200.539ZM203.474 65.7237C203.746 65.7237 203.966 65.8237 204.134 66.0237C204.302 66.2237 204.386 66.5157 204.386 66.8997C204.386 67.6597 204.122 68.3157 203.594 68.8677C203.49 68.9717 203.378 69.0237 203.258 69.0237C203.138 69.0237 203.034 68.9837 202.946 68.9037C202.858 68.8237 202.814 68.7277 202.814 68.6157C202.814 68.5197 202.854 68.4277 202.934 68.3397C203.174 68.0837 203.33 67.7957 203.402 67.4757C203.17 67.4517 202.978 67.3637 202.826 67.2117C202.682 67.0517 202.61 66.8557 202.61 66.6237C202.61 66.3677 202.69 66.1557 202.85 65.9877C203.018 65.8117 203.226 65.7237 203.474 65.7237ZM208.827 67.5597C207.827 67.5597 207.063 67.1917 206.535 66.4557C206.007 65.7117 205.743 64.6317 205.743 63.2157C205.743 61.8077 206.007 60.7357 206.535 59.9997C207.063 59.2557 207.827 58.8837 208.827 58.8837C209.827 58.8837 210.591 59.2557 211.119 59.9997C211.647 60.7357 211.911 61.8077 211.911 63.2157C211.911 64.6237 211.647 65.6997 211.119 66.4437C210.591 67.1877 209.827 67.5597 208.827 67.5597ZM208.827 66.3477C209.371 66.3477 209.767 66.0997 210.015 65.6037C210.263 65.0997 210.387 64.3037 210.387 63.2157C210.387 62.1197 210.263 61.3277 210.015 60.8397C209.767 60.3437 209.371 60.0957 208.827 60.0957C208.283 60.0957 207.887 60.3437 207.639 60.8397C207.391 61.3357 207.267 62.1277 207.267 63.2157C207.267 64.3037 207.391 65.0997 207.639 65.6037C207.887 66.0997 208.283 66.3477 208.827 66.3477ZM216.262 67.5597C215.262 67.5597 214.498 67.1917 213.97 66.4557C213.442 65.7117 213.178 64.6317 213.178 63.2157C213.178 61.8077 213.442 60.7357 213.97 59.9997C214.498 59.2557 215.262 58.8837 216.262 58.8837C217.262 58.8837 218.026 59.2557 218.554 59.9997C219.082 60.7357 219.346 61.8077 219.346 63.2157C219.346 64.6237 219.082 65.6997 218.554 66.4437C218.026 67.1877 217.262 67.5597 216.262 67.5597ZM216.262 66.3477C216.806 66.3477 217.202 66.0997 217.45 65.6037C217.698 65.0997 217.822 64.3037 217.822 63.2157C217.822 62.1197 217.698 61.3277 217.45 60.8397C217.202 60.3437 216.806 60.0957 216.262 60.0957C215.718 60.0957 215.322 60.3437 215.074 60.8397C214.826 61.3357 214.702 62.1277 214.702 63.2157C214.702 64.3037 214.826 65.0997 215.074 65.6037C215.322 66.0997 215.718 66.3477 216.262 66.3477ZM223.698 67.5597C222.698 67.5597 221.934 67.1917 221.406 66.4557C220.878 65.7117 220.614 64.6317 220.614 63.2157C220.614 61.8077 220.878 60.7357 221.406 59.9997C221.934 59.2557 222.698 58.8837 223.698 58.8837C224.698 58.8837 225.462 59.2557 225.99 59.9997C226.518 60.7357 226.782 61.8077 226.782 63.2157C226.782 64.6237 226.518 65.6997 225.99 66.4437C225.462 67.1877 224.698 67.5597 223.698 67.5597ZM223.698 66.3477C224.242 66.3477 224.638 66.0997 224.886 65.6037C225.134 65.0997 225.258 64.3037 225.258 63.2157C225.258 62.1197 225.134 61.3277 224.886 60.8397C224.638 60.3437 224.242 60.0957 223.698 60.0957C223.154 60.0957 222.758 60.3437 222.51 60.8397C222.262 61.3357 222.138 62.1277 222.138 63.2157C222.138 64.3037 222.262 65.0997 222.51 65.6037C222.758 66.0997 223.154 66.3477 223.698 66.3477Z" fill="#C5C5C5" />
    <path d="M185.232 86.8613C185.456 86.8613 185.632 86.9333 185.76 87.0773C185.896 87.2133 185.964 87.3973 185.964 87.6293V94.6733C185.964 94.9053 185.896 95.0933 185.76 95.2373C185.624 95.3813 185.448 95.4533 185.232 95.4533C184.976 95.4533 184.78 95.3613 184.644 95.1773L180.264 89.4773V94.6733C180.264 94.9053 180.2 95.0933 180.072 95.2373C179.944 95.3813 179.768 95.4533 179.544 95.4533C179.32 95.4533 179.144 95.3813 179.016 95.2373C178.888 95.0933 178.824 94.9053 178.824 94.6733V87.6293C178.824 87.3973 178.892 87.2133 179.028 87.0773C179.164 86.9333 179.344 86.8613 179.568 86.8613C179.816 86.8613 180.008 86.9533 180.144 87.1373L184.512 92.8133V87.6293C184.512 87.3973 184.576 87.2133 184.704 87.0773C184.84 86.9333 185.016 86.8613 185.232 86.8613ZM193.092 94.1333C193.572 94.1333 193.812 94.3373 193.812 94.7453C193.812 95.1693 193.572 95.3813 193.092 95.3813H188.532C188.324 95.3813 188.16 95.3213 188.04 95.2013C187.92 95.0733 187.86 94.9173 187.86 94.7333C187.86 94.4933 187.952 94.2773 188.136 94.0853L190.872 91.1453C191.208 90.7773 191.452 90.4413 191.604 90.1373C191.764 89.8253 191.844 89.5173 191.844 89.2133C191.844 88.8373 191.736 88.5493 191.52 88.3493C191.304 88.1493 190.996 88.0493 190.596 88.0493C190.268 88.0493 189.948 88.1133 189.636 88.2413C189.332 88.3613 189.024 88.5293 188.712 88.7453C188.632 88.8013 188.552 88.8493 188.472 88.8893C188.392 88.9213 188.312 88.9373 188.232 88.9373C188.096 88.9373 187.976 88.8733 187.872 88.7453C187.776 88.6173 187.728 88.4653 187.728 88.2893C187.728 88.1693 187.748 88.0653 187.788 87.9773C187.836 87.8893 187.908 87.8053 188.004 87.7253C188.356 87.4453 188.768 87.2253 189.24 87.0653C189.712 86.8973 190.184 86.8133 190.656 86.8133C191.48 86.8133 192.136 87.0213 192.624 87.4373C193.12 87.8533 193.368 88.4133 193.368 89.1173C193.368 89.6053 193.264 90.0653 193.056 90.4973C192.848 90.9213 192.496 91.3973 192 91.9253L189.924 94.1333H193.092ZM199.459 91.0373C199.963 91.1653 200.347 91.4093 200.611 91.7693C200.883 92.1213 201.019 92.5613 201.019 93.0893C201.019 93.8173 200.751 94.3973 200.215 94.8293C199.679 95.2613 198.955 95.4773 198.043 95.4773C197.523 95.4773 197.023 95.3973 196.543 95.2373C196.063 95.0773 195.655 94.8533 195.319 94.5653C195.135 94.4053 195.043 94.2173 195.043 94.0013C195.043 93.8253 195.091 93.6773 195.187 93.5573C195.291 93.4293 195.411 93.3653 195.547 93.3653C195.627 93.3653 195.699 93.3813 195.763 93.4133C195.827 93.4373 195.915 93.4813 196.027 93.5453C196.363 93.7693 196.683 93.9413 196.987 94.0613C197.291 94.1813 197.623 94.2413 197.983 94.2413C198.511 94.2413 198.903 94.1373 199.159 93.9293C199.415 93.7133 199.543 93.3893 199.543 92.9573C199.543 92.5333 199.407 92.2213 199.135 92.0213C198.871 91.8133 198.459 91.7093 197.899 91.7093H197.215C197.031 91.7093 196.887 91.6493 196.783 91.5293C196.687 91.4013 196.639 91.2573 196.639 91.0973C196.639 90.9293 196.687 90.7853 196.783 90.6653C196.887 90.5453 197.031 90.4853 197.215 90.4853H197.695C198.791 90.4853 199.339 90.0733 199.339 89.2493C199.339 88.8653 199.223 88.5693 198.991 88.3613C198.759 88.1533 198.439 88.0493 198.031 88.0493C197.447 88.0493 196.823 88.2813 196.159 88.7453C196.047 88.8093 195.959 88.8573 195.895 88.8893C195.831 88.9133 195.759 88.9253 195.679 88.9253C195.543 88.9253 195.423 88.8653 195.319 88.7453C195.223 88.6173 195.175 88.4653 195.175 88.2893C195.175 88.1693 195.195 88.0693 195.235 87.9893C195.283 87.9013 195.355 87.8133 195.451 87.7253C195.787 87.4453 196.187 87.2253 196.651 87.0653C197.123 86.8973 197.603 86.8133 198.091 86.8133C198.923 86.8133 199.583 87.0173 200.071 87.4253C200.567 87.8333 200.815 88.3773 200.815 89.0573C200.807 89.5213 200.683 89.9293 200.443 90.2813C200.211 90.6253 199.883 90.8773 199.459 91.0373ZM203.463 93.6533C203.735 93.6533 203.955 93.7533 204.123 93.9533C204.291 94.1533 204.375 94.4453 204.375 94.8293C204.375 95.5893 204.111 96.2453 203.583 96.7973C203.479 96.9013 203.367 96.9533 203.247 96.9533C203.127 96.9533 203.023 96.9133 202.935 96.8333C202.847 96.7533 202.803 96.6573 202.803 96.5453C202.803 96.4493 202.843 96.3573 202.923 96.2693C203.163 96.0133 203.319 95.7253 203.391 95.4053C203.159 95.3813 202.967 95.2933 202.815 95.1413C202.671 94.9813 202.599 94.7853 202.599 94.5533C202.599 94.2973 202.679 94.0853 202.839 93.9173C203.007 93.7413 203.215 93.6533 203.463 93.6533ZM208.815 95.4893C207.815 95.4893 207.051 95.1213 206.523 94.3853C205.995 93.6413 205.731 92.5613 205.731 91.1453C205.731 89.7373 205.995 88.6653 206.523 87.9293C207.051 87.1853 207.815 86.8133 208.815 86.8133C209.815 86.8133 210.579 87.1853 211.107 87.9293C211.635 88.6653 211.899 89.7373 211.899 91.1453C211.899 92.5533 211.635 93.6293 211.107 94.3733C210.579 95.1173 209.815 95.4893 208.815 95.4893ZM208.815 94.2773C209.359 94.2773 209.755 94.0293 210.003 93.5333C210.251 93.0293 210.375 92.2333 210.375 91.1453C210.375 90.0493 210.251 89.2573 210.003 88.7693C209.755 88.2733 209.359 88.0253 208.815 88.0253C208.271 88.0253 207.875 88.2733 207.627 88.7693C207.379 89.2653 207.255 90.0573 207.255 91.1453C207.255 92.2333 207.379 93.0293 207.627 93.5333C207.875 94.0293 208.271 94.2773 208.815 94.2773ZM218.951 92.5253C219.191 92.5253 219.371 92.5773 219.491 92.6813C219.611 92.7853 219.671 92.9333 219.671 93.1253C219.671 93.5253 219.431 93.7253 218.951 93.7253H218.339V94.6733C218.339 94.9213 218.267 95.1133 218.123 95.2493C217.987 95.3853 217.807 95.4533 217.583 95.4533C217.359 95.4533 217.175 95.3853 217.031 95.2493C216.895 95.1133 216.827 94.9213 216.827 94.6733V93.7253H213.683C213.467 93.7253 213.299 93.6653 213.179 93.5453C213.059 93.4173 212.999 93.2613 212.999 93.0773C212.999 92.8853 213.063 92.7013 213.191 92.5253L216.899 87.1973C216.979 87.0853 217.079 87.0013 217.199 86.9453C217.319 86.8813 217.443 86.8493 217.571 86.8493C217.779 86.8493 217.959 86.9173 218.111 87.0533C218.263 87.1893 218.339 87.3813 218.339 87.6293V92.5253H218.951ZM216.827 92.5253V89.2973L214.595 92.5253H216.827ZM226.062 94.1333C226.542 94.1333 226.782 94.3373 226.782 94.7453C226.782 95.1693 226.542 95.3813 226.062 95.3813H221.502C221.294 95.3813 221.13 95.3213 221.01 95.2013C220.89 95.0733 220.83 94.9173 220.83 94.7333C220.83 94.4933 220.922 94.2773 221.106 94.0853L223.842 91.1453C224.178 90.7773 224.422 90.4413 224.574 90.1373C224.734 89.8253 224.814 89.5173 224.814 89.2133C224.814 88.8373 224.706 88.5493 224.49 88.3493C224.274 88.1493 223.966 88.0493 223.566 88.0493C223.238 88.0493 222.918 88.1133 222.606 88.2413C222.302 88.3613 221.994 88.5293 221.682 88.7453C221.602 88.8013 221.522 88.8493 221.442 88.8893C221.362 88.9213 221.282 88.9373 221.202 88.9373C221.066 88.9373 220.946 88.8733 220.842 88.7453C220.746 88.6173 220.698 88.4653 220.698 88.2893C220.698 88.1693 220.718 88.0653 220.758 87.9773C220.806 87.8893 220.878 87.8053 220.974 87.7253C221.326 87.4453 221.738 87.2253 222.21 87.0653C222.682 86.8973 223.154 86.8133 223.626 86.8133C224.45 86.8133 225.106 87.0213 225.594 87.4373C226.09 87.8533 226.338 88.4133 226.338 89.1173C226.338 89.6053 226.234 90.0653 226.026 90.4973C225.818 90.9213 225.466 91.3973 224.97 91.9253L222.894 94.1333H226.062Z" fill="#C5C5C5" />
    <path d="M185.232 114.792C185.456 114.792 185.632 114.864 185.76 115.008C185.896 115.144 185.964 115.328 185.964 115.56V122.604C185.964 122.836 185.896 123.024 185.76 123.168C185.624 123.312 185.448 123.384 185.232 123.384C184.976 123.384 184.78 123.292 184.644 123.108L180.264 117.408V122.604C180.264 122.836 180.2 123.024 180.072 123.168C179.944 123.312 179.768 123.384 179.544 123.384C179.32 123.384 179.144 123.312 179.016 123.168C178.888 123.024 178.824 122.836 178.824 122.604V115.56C178.824 115.328 178.892 115.144 179.028 115.008C179.164 114.864 179.344 114.792 179.568 114.792C179.816 114.792 180.008 114.884 180.144 115.068L184.512 120.744V115.56C184.512 115.328 184.576 115.144 184.704 115.008C184.84 114.864 185.016 114.792 185.232 114.792ZM193.092 122.064C193.572 122.064 193.812 122.268 193.812 122.676C193.812 123.1 193.572 123.312 193.092 123.312H188.532C188.324 123.312 188.16 123.252 188.04 123.132C187.92 123.004 187.86 122.848 187.86 122.664C187.86 122.424 187.952 122.208 188.136 122.016L190.872 119.076C191.208 118.708 191.452 118.372 191.604 118.068C191.764 117.756 191.844 117.448 191.844 117.144C191.844 116.768 191.736 116.48 191.52 116.28C191.304 116.08 190.996 115.98 190.596 115.98C190.268 115.98 189.948 116.044 189.636 116.172C189.332 116.292 189.024 116.46 188.712 116.676C188.632 116.732 188.552 116.78 188.472 116.82C188.392 116.852 188.312 116.868 188.232 116.868C188.096 116.868 187.976 116.804 187.872 116.676C187.776 116.548 187.728 116.396 187.728 116.22C187.728 116.1 187.748 115.996 187.788 115.908C187.836 115.82 187.908 115.736 188.004 115.656C188.356 115.376 188.768 115.156 189.24 114.996C189.712 114.828 190.184 114.744 190.656 114.744C191.48 114.744 192.136 114.952 192.624 115.368C193.12 115.784 193.368 116.344 193.368 117.048C193.368 117.536 193.264 117.996 193.056 118.428C192.848 118.852 192.496 119.328 192 119.856L189.924 122.064H193.092ZM200.575 122.064C201.055 122.064 201.295 122.268 201.295 122.676C201.295 123.1 201.055 123.312 200.575 123.312H196.519C196.031 123.312 195.787 123.1 195.787 122.676C195.787 122.268 196.031 122.064 196.519 122.064H197.767V116.592L196.615 117.3C196.503 117.364 196.403 117.396 196.315 117.396C196.147 117.396 196.003 117.324 195.883 117.18C195.771 117.036 195.715 116.876 195.715 116.7C195.715 116.468 195.819 116.288 196.027 116.16L197.887 115.008C198.127 114.864 198.355 114.792 198.571 114.792C198.795 114.792 198.975 114.86 199.111 114.996C199.247 115.132 199.315 115.32 199.315 115.56V122.064H200.575ZM203.463 121.584C203.735 121.584 203.955 121.684 204.123 121.884C204.291 122.084 204.375 122.376 204.375 122.76C204.375 123.52 204.111 124.176 203.583 124.728C203.479 124.832 203.367 124.884 203.247 124.884C203.127 124.884 203.023 124.844 202.935 124.764C202.847 124.684 202.803 124.588 202.803 124.476C202.803 124.38 202.843 124.288 202.923 124.2C203.163 123.944 203.319 123.656 203.391 123.336C203.159 123.312 202.967 123.224 202.815 123.072C202.671 122.912 202.599 122.716 202.599 122.484C202.599 122.228 202.679 122.016 202.839 121.848C203.007 121.672 203.215 121.584 203.463 121.584ZM210.111 118.968C210.615 119.096 210.999 119.34 211.263 119.7C211.535 120.052 211.671 120.492 211.671 121.02C211.671 121.748 211.403 122.328 210.867 122.76C210.331 123.192 209.607 123.408 208.695 123.408C208.175 123.408 207.675 123.328 207.195 123.168C206.715 123.008 206.307 122.784 205.971 122.496C205.787 122.336 205.695 122.148 205.695 121.932C205.695 121.756 205.743 121.608 205.839 121.488C205.943 121.36 206.063 121.296 206.199 121.296C206.279 121.296 206.351 121.312 206.415 121.344C206.479 121.368 206.567 121.412 206.679 121.476C207.015 121.7 207.335 121.872 207.639 121.992C207.943 122.112 208.275 122.172 208.635 122.172C209.163 122.172 209.555 122.068 209.811 121.86C210.067 121.644 210.195 121.32 210.195 120.888C210.195 120.464 210.059 120.152 209.787 119.952C209.523 119.744 209.111 119.64 208.551 119.64H207.867C207.683 119.64 207.539 119.58 207.435 119.46C207.339 119.332 207.291 119.188 207.291 119.028C207.291 118.86 207.339 118.716 207.435 118.596C207.539 118.476 207.683 118.416 207.867 118.416H208.347C209.443 118.416 209.991 118.004 209.991 117.18C209.991 116.796 209.875 116.5 209.643 116.292C209.411 116.084 209.091 115.98 208.683 115.98C208.099 115.98 207.475 116.212 206.811 116.676C206.699 116.74 206.611 116.788 206.547 116.82C206.483 116.844 206.411 116.856 206.331 116.856C206.195 116.856 206.075 116.796 205.971 116.676C205.875 116.548 205.827 116.396 205.827 116.22C205.827 116.1 205.847 116 205.887 115.92C205.935 115.832 206.007 115.744 206.103 115.656C206.439 115.376 206.839 115.156 207.303 114.996C207.775 114.828 208.255 114.744 208.743 114.744C209.575 114.744 210.235 114.948 210.723 115.356C211.219 115.764 211.467 116.308 211.467 116.988C211.459 117.452 211.335 117.86 211.095 118.212C210.863 118.556 210.535 118.808 210.111 118.968ZM218.951 120.456C219.191 120.456 219.371 120.508 219.491 120.612C219.611 120.716 219.671 120.864 219.671 121.056C219.671 121.456 219.431 121.656 218.951 121.656H218.339V122.604C218.339 122.852 218.267 123.044 218.123 123.18C217.987 123.316 217.807 123.384 217.583 123.384C217.359 123.384 217.175 123.316 217.031 123.18C216.895 123.044 216.827 122.852 216.827 122.604V121.656H213.683C213.467 121.656 213.299 121.596 213.179 121.476C213.059 121.348 212.999 121.192 212.999 121.008C212.999 120.816 213.063 120.632 213.191 120.456L216.899 115.128C216.979 115.016 217.079 114.932 217.199 114.876C217.319 114.812 217.443 114.78 217.571 114.78C217.779 114.78 217.959 114.848 218.111 114.984C218.263 115.12 218.339 115.312 218.339 115.56V120.456H218.951ZM216.827 120.456V117.228L214.595 120.456H216.827ZM226.062 122.064C226.542 122.064 226.782 122.268 226.782 122.676C226.782 123.1 226.542 123.312 226.062 123.312H221.502C221.294 123.312 221.13 123.252 221.01 123.132C220.89 123.004 220.83 122.848 220.83 122.664C220.83 122.424 220.922 122.208 221.106 122.016L223.842 119.076C224.178 118.708 224.422 118.372 224.574 118.068C224.734 117.756 224.814 117.448 224.814 117.144C224.814 116.768 224.706 116.48 224.49 116.28C224.274 116.08 223.966 115.98 223.566 115.98C223.238 115.98 222.918 116.044 222.606 116.172C222.302 116.292 221.994 116.46 221.682 116.676C221.602 116.732 221.522 116.78 221.442 116.82C221.362 116.852 221.282 116.868 221.202 116.868C221.066 116.868 220.946 116.804 220.842 116.676C220.746 116.548 220.698 116.396 220.698 116.22C220.698 116.1 220.718 115.996 220.758 115.908C220.806 115.82 220.878 115.736 220.974 115.656C221.326 115.376 221.738 115.156 222.21 114.996C222.682 114.828 223.154 114.744 223.626 114.744C224.45 114.744 225.106 114.952 225.594 115.368C226.09 115.784 226.338 116.344 226.338 117.048C226.338 117.536 226.234 117.996 226.026 118.428C225.818 118.852 225.466 119.328 224.97 119.856L222.894 122.064H226.062Z" fill="#C5C5C5" />
    <defs>
        <filter id="filter0_d_5897_3386" x="0" y="0" width="256.066" height="200" filterUnits="userSpaceOnUse" color-interpolation-filters="sRGB">
            <feFlood flood-opacity="0" result="BackgroundImageFix" />
            <feColorMatrix in="SourceAlpha" type="matrix" values="0 0 0 0 0 0 0 0 0 0 0 0 0 0 0 0 0 0 127 0" result="hardAlpha" />
            <feMorphology radius="16" operator="erode" in="SourceAlpha" result="effect1_dropShadow_5897_3386" />
            <feOffset dy="46" />
            <feGaussianBlur stdDeviation="14.5" />
            <feComposite in2="hardAlpha" operator="out" />
            <feColorMatrix type="matrix" values="0 0 0 0 0 0 0 0 0 0 0 0 0 0 0 0 0 0 0.15 0" />
            <feBlend mode="normal" in2="BackgroundImageFix" result="effect1_dropShadow_5897_3386" />
            <feBlend mode="normal" in="SourceGraphic" in2="effect1_dropShadow_5897_3386" result="shape" />
        </filter>
        <clipPath id="clip0_5897_3386">
            <rect width="18.4778" height="18.511" fill="white" transform="translate(203.699 20.6216)" />
        </clipPath>
        <clipPath id="clip1_5897_3386">
            <rect width="18.4778" height="18.511" fill="white" transform="translate(33.6406 18.6216)" />
        </clipPath>
    </defs>
</svg>