<svg width="46" height="46" viewBox="0 0 46 46" fill="none" xmlns="http://www.w3.org/2000/svg">
<path d="M23.125 45.0625C10.6983 45.0625 0.625 34.9893 0.625 22.5625C0.625 10.1358 10.6983 0.0625 23.125 0.0625C35.5518 0.0625 45.625 10.1358 45.625 22.5625C45.625 34.9893 35.5518 45.0625 23.125 45.0625ZM15.25 27.0625V31.5625H20.875V36.0625H25.375V31.5625H27.625C29.1168 31.5625 30.5476 30.9699 31.6025 29.915C32.6574 28.8601 33.25 27.4293 33.25 25.9375C33.25 24.4457 32.6574 23.0149 31.6025 21.96C30.5476 20.9051 29.1168 20.3125 27.625 20.3125H18.625C18.3266 20.3125 18.0405 20.194 17.8295 19.983C17.6185 19.772 17.5 19.4859 17.5 19.1875C17.5 18.8891 17.6185 18.603 17.8295 18.392C18.0405 18.181 18.3266 18.0625 18.625 18.0625H31V13.5625H25.375V9.0625H20.875V13.5625H18.625C17.1332 13.5625 15.7024 14.1551 14.6475 15.21C13.5926 16.2649 13 17.6957 13 19.1875C13 20.6793 13.5926 22.1101 14.6475 23.165C15.7024 24.2199 17.1332 24.8125 18.625 24.8125H27.625C27.9234 24.8125 28.2095 24.931 28.4205 25.142C28.6315 25.353 28.75 25.6391 28.75 25.9375C28.75 26.2359 28.6315 26.522 28.4205 26.733C28.2095 26.944 27.9234 27.0625 27.625 27.0625H15.25Z" fill="#FFCE70"/>
</svg>
