<svg width="122" height="133" viewBox="0 0 122 133" fill="none" xmlns="http://www.w3.org/2000/svg">
<path d="M33.0819 132.456C9.50274 121.464 -5.49573 95.5809 2.34782 69.7543C8.04706 51.0659 26.6541 37.8043 45.5553 38.9274C60.4394 21.2932 85.3482 14.6296 108.498 13.0029L100.819 8.07901C96.3613 5.23159 100.718 -1.75177 105.16 1.11964C109.985 4.22084 114.8 7.28306 119.577 10.4877C120.085 10.8214 120.512 11.2643 120.827 11.7842C121.142 12.3041 121.336 12.8878 121.397 13.4926C121.457 14.0975 121.382 14.7081 121.176 15.2801C120.97 15.852 120.639 16.3707 120.207 16.7983C115.537 21.986 110.904 27.463 105.581 32.0015C105.153 32.3755 104.607 32.5857 104.039 32.5949C103.471 32.604 102.919 32.4114 102.479 32.0514C102.04 31.6914 101.743 31.1873 101.64 30.6286C101.538 30.07 101.636 29.4931 101.919 29.0005C104.018 25.3931 106.34 21.9205 108.872 18.6031C88.3845 19.849 66.521 24.6369 52.0538 39.906C54.9947 40.6207 57.8396 41.6847 60.5277 43.0753C79.0674 52.7404 90.6447 85.2565 69.3305 98.7962C58.9626 105.396 45.705 100.276 39.2187 90.7547C32.2175 80.4284 31.9419 66.6552 36.1528 55.189C37.6431 51.1303 39.6106 47.2631 42.014 43.669C26.8911 44.1443 12.2776 54.8384 7.02394 69.5127C-1.68801 93.9391 12.6066 118.866 34.7773 129.805C36.595 130.738 34.8793 133.302 33.0819 132.456ZM38.8015 70.876C38.9107 82.0702 45.282 95.5705 57.9063 96.3618C69.9782 97.1167 76.0048 84.3163 75.3445 73.8452C74.9222 68.6862 73.2973 63.6978 70.6 59.2799C67.9027 54.8619 64.208 51.1373 59.812 48.4043C56.3388 46.2418 52.4779 44.7759 48.4446 44.0885C42.5966 51.7664 38.713 61.1449 38.8015 70.876Z" fill="#5F5F5F"/>
</svg>
