<svg width="108" height="108" viewBox="0 0 108 108" fill="none" xmlns="http://www.w3.org/2000/svg">
<path d="M57.415 52.6022C58.1108 53.0745 59.1404 52.8719 59.6082 52.1824L78.5805 24.2314C79.0704 23.5099 78.8826 22.528 78.1609 22.0383C77.4396 21.5488 76.4575 21.7361 75.9678 22.4581L56.9954 50.4091C56.5055 51.1304 56.6935 52.1125 57.415 52.6022Z" fill="#1A1F4C"/>
<path d="M78.0649 52.8744C81.3507 52.8744 84.0243 49.5886 84.0243 45.5495C83.6876 35.828 72.4411 35.8304 72.1055 45.5495C72.1055 49.5886 74.7788 52.8744 78.0649 52.8744ZM78.0649 41.3826C79.5835 41.3826 80.8663 43.2907 80.8663 45.5495C80.8663 47.8083 79.5835 49.7164 78.0649 49.7164C76.5463 49.7164 75.2633 47.8083 75.2633 45.5495C75.2633 43.2907 76.5465 41.3826 78.0649 41.3826Z" fill="#1A1F4C"/>
<path d="M63.2293 29.0906C63.2293 25.0514 60.556 21.7656 57.2699 21.7656C49.3669 22.1562 49.3698 36.0268 57.2699 36.4155C60.556 36.4155 63.2293 33.1295 63.2293 29.0906ZM54.4686 29.0906C54.4686 26.8317 55.7516 24.9236 57.2702 24.9236C58.7887 24.9236 60.0715 26.8317 60.0715 29.0906C60.0715 31.3494 58.7887 33.2575 57.2702 33.2575C55.7516 33.2575 54.4686 31.3492 54.4686 29.0906Z" fill="#1A1F4C"/>
<path d="M56.4561 72.8323C95.2108 84.3841 122.04 35.8655 91.8628 9.06126C91.2017 8.49218 90.2049 8.56629 89.6358 9.22737C89.0669 9.88824 89.141 10.8851 89.8019 11.4542C117.815 36.4087 92.118 81.2493 56.4561 69.5039V58.774C56.4561 57.4207 55.6371 55.5152 51.7363 54.1227C47.2858 52.534 42.1513 52.3931 37.5061 53.0498C22.6168 23.9846 53.0897 -7.49752 82.5412 6.66558C83.3237 7.04791 84.2699 6.72348 84.6528 5.93987C85.0356 5.15647 84.711 4.21096 83.9276 3.82799C52.1595 -11.4832 18.9704 21.9911 34.3013 53.6997C33.8293 53.8292 33.3756 53.9696 32.9467 54.1227C29.0459 55.5154 28.227 57.4209 28.227 58.774V69.2844C25.0157 67.7645 21.5528 67.278 17.2903 67.2201C15.1999 67.2912 15.1993 70.3052 17.2886 70.3781C20.4567 70.3798 23.4116 70.8133 25.6092 71.5988C27.772 72.3718 28.2272 73.1523 28.2272 73.274C28.2272 73.3959 27.7712 74.1776 25.6037 74.9511C20.577 76.7457 13.9622 76.7449 8.93775 74.9511C6.77029 74.1774 6.31427 73.3957 6.31427 73.274C6.31427 73.1308 6.8684 72.231 9.50198 71.4101C11.4768 70.7187 10.578 67.8422 8.56237 68.3953C4.09418 69.788 3.15625 71.8171 3.15625 73.274V101.82C3.15625 103.174 3.97523 105.079 7.87602 106.472C13.5853 108.51 20.958 108.509 26.6654 106.472C28.0842 105.965 29.0939 105.39 29.8062 104.799C30.5184 105.39 31.5281 105.965 32.9469 106.472C38.6564 108.51 46.0292 108.509 51.7366 106.472C53.1553 105.965 54.1651 105.39 54.8773 104.799C55.5896 105.39 56.5993 105.965 58.0181 106.472C63.7274 108.51 71.1001 108.509 76.8075 106.472C80.7083 105.079 81.5272 103.173 81.5272 101.82V87.547C81.5272 86.1937 80.7083 84.2881 76.8075 82.8956C71.0982 80.8577 63.7255 80.8583 58.0181 82.8956C57.4296 83.1058 56.9123 83.3277 56.4563 83.5576C56.4546 81.4992 56.4593 75.3903 56.4546 73.2428C56.4572 73.1858 56.4557 72.8942 56.4561 72.8323ZM78.369 94.6837C78.369 94.8056 77.913 95.5873 75.7455 96.3608C70.7188 98.1554 64.104 98.1546 59.0796 96.3608C56.9121 95.5871 56.4561 94.8054 56.4561 94.6837V91.5368C56.9121 91.7665 57.4294 91.9886 58.0179 92.1988C63.7271 94.2367 71.0999 94.2361 76.8073 92.1988C77.3957 91.9886 77.913 91.7667 78.369 91.5368V94.6837ZM53.2981 65.9107C53.2981 66.0326 52.8421 66.8144 50.6746 67.5879C45.6479 69.3825 39.0329 69.3818 34.0085 67.5879C31.841 66.8141 31.385 66.0324 31.385 65.9107V62.7639C31.841 62.9936 32.3583 63.2157 32.9467 63.4258C38.6562 65.4638 46.029 65.4632 51.7363 63.4258C52.3248 63.2157 52.8421 62.9938 53.2981 62.7639V65.9107ZM32.9467 70.5621C39.1979 72.7401 47.2545 72.6788 53.2981 69.9004V73.1607C53.2981 73.2826 52.8421 74.0643 50.6746 74.8381C45.6475 76.6327 39.0333 76.6316 34.0085 74.8381C31.841 74.0643 31.385 73.2826 31.385 73.1607V69.9004C31.841 70.1301 32.3581 70.352 32.9467 70.5621ZM28.227 87.547C28.227 87.6689 27.7709 88.4506 25.6035 89.2243C20.5763 91.0189 13.9624 91.0181 8.93754 89.2243C6.77008 88.4506 6.31406 87.6689 6.31406 87.547V84.4001C6.77008 84.6298 7.28737 84.8519 7.87581 85.0621C13.5851 87.1 20.9578 87.0994 26.6652 85.0621C27.2537 84.8519 27.7709 84.63 28.227 84.4001V87.547ZM6.31406 91.5366C6.77008 91.7663 7.28737 91.9884 7.87581 92.1986C13.5851 94.2365 20.9578 94.2359 26.6652 92.1986C27.2537 91.9884 27.7709 91.7665 28.227 91.5366V94.6835C28.227 94.8054 27.7709 95.5871 25.6035 96.3606C20.5768 98.1552 13.962 98.1544 8.93754 96.3606C6.77008 95.5869 6.31406 94.8052 6.31406 94.6835V91.5366ZM31.385 91.5366C31.841 91.7663 32.3583 91.9884 32.9467 92.1986C38.6562 94.2365 46.029 94.2359 51.7363 92.1986C52.3248 91.9884 52.8421 91.7665 53.2981 91.5366V94.6835C53.2981 94.8054 52.8421 95.5871 50.6746 96.3606C45.6479 98.1552 39.0329 98.1546 34.0085 96.3606C31.841 95.5869 31.385 94.8052 31.385 94.6835V91.5366ZM50.6746 89.2243C45.6475 91.0189 39.0333 91.0179 34.0085 89.2243C31.841 88.4506 31.385 87.6689 31.385 87.547V84.4001C31.841 84.6298 32.3583 84.8519 32.9467 85.0621C38.6562 87.1 46.029 87.0994 51.7363 85.0621C52.3248 84.8519 52.8421 84.63 53.2981 84.4001V87.547C53.2981 87.6689 52.8421 88.4506 50.6746 89.2243ZM53.2981 80.4105C53.2981 80.5324 52.8421 81.3139 50.6746 82.0876C45.6475 83.8822 39.0333 83.8812 34.0085 82.0876C31.841 81.3139 31.385 80.5322 31.385 80.4105V77.1501C31.841 77.3798 32.3583 77.602 32.9467 77.8121C38.6562 79.8501 46.029 79.8494 51.7363 77.8121C52.3248 77.602 52.8421 77.3801 53.2981 77.1501V80.4105ZM34.0085 57.0969C39.0335 55.3032 45.651 55.3036 50.6746 57.0969C52.8421 57.8706 53.2981 58.6523 53.2981 58.774C53.2981 58.8957 52.8421 59.6776 50.6746 60.4514C45.6475 62.246 39.0333 62.2449 34.0085 60.4514C31.841 59.6776 31.385 58.8959 31.385 58.774C31.385 58.6521 31.841 57.8706 34.0085 57.0969ZM7.87581 77.9253C14.127 80.1031 22.1833 80.0421 28.227 77.2636V80.4107C28.227 80.5326 27.7709 81.3143 25.6035 82.0878C20.5763 83.8824 13.9624 83.8816 8.93754 82.0878C6.77008 81.3141 6.31406 80.5324 6.31406 80.4107V77.2636C6.76987 77.4933 7.28716 77.7152 7.87581 77.9253ZM25.6035 103.498C20.5763 105.292 13.9624 105.291 8.93754 103.498C6.77008 102.724 6.31406 101.942 6.31406 101.82V98.6733C12.8754 101.625 21.6673 101.624 28.227 98.6733V101.82C28.227 101.942 27.7709 102.724 25.6035 103.498ZM50.6746 103.498C45.6475 105.292 39.0333 105.291 34.0085 103.498C31.841 102.724 31.385 101.942 31.385 101.82V98.6733C37.9463 101.625 46.7385 101.624 53.2981 98.6733V101.82C53.2981 101.942 52.8421 102.724 50.6746 103.498ZM75.7455 103.498C70.7184 105.292 64.1044 105.291 59.0796 103.498C56.9121 102.724 56.4561 101.942 56.4561 101.82V98.6733C63.0174 101.625 71.8094 101.624 78.369 98.6733V101.82C78.369 101.942 77.913 102.724 75.7455 103.498ZM59.0796 85.8699C64.1067 84.0753 70.7207 84.0761 75.7455 85.8699C77.913 86.6436 78.369 87.4253 78.369 87.547C78.369 87.6687 77.913 88.4506 75.7455 89.2243C70.7184 91.0189 64.1044 91.0181 59.0796 89.2243C56.9121 88.4506 56.4561 87.6689 56.4561 87.547C56.4561 87.4251 56.9121 86.6436 59.0796 85.8699Z" fill="#1A1F4C"/>
</svg>
