<svg width="217.5" height="241.67" viewBox="0 0 242 243" fill="none" xmlns="http://www.w3.org/2000/svg">
<path d="M121 242.305C54.2641 242.305 0.166992 188.208 0.166992 121.472C0.166992 54.7358 54.2641 0.638672 121 0.638672C187.737 0.638672 241.834 54.7358 241.834 121.472C241.834 188.208 187.737 242.305 121 242.305ZM121 218.139C146.638 218.139 171.225 207.954 189.354 189.826C207.483 171.697 217.667 147.11 217.667 121.472C217.667 95.8344 207.483 71.2469 189.354 53.1184C171.225 34.9898 146.638 24.8053 121 24.8053C95.3627 24.8053 70.7752 34.9898 52.6467 53.1184C34.5182 71.2469 24.3337 95.8344 24.3337 121.472C24.3337 147.11 34.5182 171.697 52.6467 189.826C70.7752 207.954 95.3627 218.139 121 218.139ZM78.7087 145.639H145.167C146.769 145.639 148.306 145.002 149.439 143.869C150.572 142.736 151.209 141.199 151.209 139.597C151.209 137.995 150.572 136.458 149.439 135.325C148.306 134.192 146.769 133.555 145.167 133.555H96.8337C88.8219 133.555 81.1383 130.373 75.4731 124.708C69.808 119.042 66.6253 111.359 66.6253 103.347C66.6253 95.3353 69.808 87.6517 75.4731 81.9865C81.1383 76.3213 88.8219 73.1387 96.8337 73.1387H108.917V48.972H133.084V73.1387H163.292V97.3053H96.8337C95.2313 97.3053 93.6946 97.9419 92.5616 99.0749C91.4285 100.208 90.792 101.745 90.792 103.347C90.792 104.949 91.4285 106.486 92.5616 107.619C93.6946 108.752 95.2313 109.389 96.8337 109.389H145.167C153.179 109.389 160.862 112.571 166.528 118.236C172.193 123.902 175.375 131.585 175.375 139.597C175.375 147.609 172.193 155.292 166.528 160.958C160.862 166.623 153.179 169.805 145.167 169.805H133.084V193.972H108.917V169.805H78.7087V145.639Z" fill="#FFCE70"/>
</svg>
