<svg width="217.5" height="241.67" viewBox="0 0 218 242" fill="none" xmlns="http://www.w3.org/2000/svg">
<path d="M169.417 169.334H193.583V24.3337H72.75V48.5003H169.417V169.334ZM169.417 193.5V229.75C169.417 236.42 163.979 241.834 157.249 241.834H12.4179C10.8244 241.843 9.2448 241.538 7.76973 240.935C6.29466 240.332 4.95324 239.444 3.82254 238.321C2.69185 237.198 1.79416 235.863 1.18107 234.392C0.56798 232.921 0.251563 231.344 0.25 229.75L0.28625 60.5837C0.28625 53.9137 5.72375 48.5003 12.4542 48.5003H48.5833V12.2503C48.5833 9.04563 49.8564 5.97218 52.1225 3.70612C54.3885 1.44005 57.462 0.166992 60.6667 0.166992H205.667C208.871 0.166992 211.945 1.44005 214.211 3.70612C216.477 5.97218 217.75 9.04563 217.75 12.2503V181.417C217.75 184.622 216.477 187.695 214.211 189.961C211.945 192.227 208.871 193.5 205.667 193.5H169.417ZM24.4529 72.667L24.4167 217.667H145.25V72.667H24.4529ZM48.5833 169.334H102.958C104.561 169.334 106.097 168.697 107.23 167.564C108.363 166.431 109 164.894 109 163.292C109 161.69 108.363 160.153 107.23 159.02C106.097 157.887 104.561 157.25 102.958 157.25H66.7083C58.6966 157.25 51.013 154.068 45.3478 148.403C39.6827 142.737 36.5 135.054 36.5 127.042C36.5 119.03 39.6827 111.347 45.3478 105.681C51.013 100.016 58.6966 96.8337 66.7083 96.8337H72.75V84.7503H96.9167V96.8337H121.083V121H66.7083C65.106 121 63.5693 121.637 62.4362 122.77C61.3032 123.903 60.6667 125.44 60.6667 127.042C60.6667 128.644 61.3032 130.181 62.4362 131.314C63.5693 132.447 65.106 133.084 66.7083 133.084H102.958C110.97 133.084 118.654 136.266 124.319 141.931C129.984 147.597 133.167 155.28 133.167 163.292C133.167 171.304 129.984 178.987 124.319 184.653C118.654 190.318 110.97 193.5 102.958 193.5H96.9167V205.584H72.75V193.5H48.5833V169.334Z" fill="#FFCE70"/>
</svg>
