<svg width="18" height="21" viewBox="0 0 18 21" fill="none" xmlns="http://www.w3.org/2000/svg">
<path d="M4 4.23633V1.23633C4 0.971112 4.10536 0.716758 4.29289 0.529221C4.48043 0.341685 4.73478 0.236328 5 0.236328H17C17.2652 0.236328 17.5196 0.341685 17.7071 0.529221C17.8946 0.716758 18 0.971112 18 1.23633V15.2363C18 15.5015 17.8946 15.7559 17.7071 15.9434C17.5196 16.131 17.2652 16.2363 17 16.2363H14V19.2363C14 19.7883 13.55 20.2363 12.993 20.2363H1.007C0.875127 20.2371 0.744397 20.2118 0.622322 20.162C0.500247 20.1121 0.389233 20.0385 0.295659 19.9456C0.202084 19.8527 0.127793 19.7422 0.0770543 19.6205C0.0263156 19.4988 0.000129374 19.3682 0 19.2363L0.00300002 5.23633C0.00300002 4.68433 0.453 4.23633 1.01 4.23633H4ZM6 4.23633H14V14.2363H16V2.23633H6V4.23633ZM4 9.23633V11.2363H10V9.23633H4ZM4 13.2363V15.2363H10V13.2363H4Z" fill="#5F5F5F"/>
</svg>
