<svg width="217.5" height="241.67" viewBox="0 0 291 291" fill="none" xmlns="http://www.w3.org/2000/svg">
<path d="M103.79 208.294C103.38 208.177 102.961 208.111 102.539 208.089C108.743 201.568 112.564 192.758 112.564 183.068V153.269C112.564 152.997 112.538 152.731 112.502 152.469C112.539 151.931 112.564 151.39 112.564 150.843V131.989C112.564 128.861 110.029 126.325 106.9 126.325H68.9098C52.9116 126.325 39.8968 139.341 39.8968 155.338V183.068C39.8968 192.758 43.7172 201.568 49.9221 208.089C49.5007 208.111 49.0816 208.177 48.6727 208.294C21.906 210.717 0.862305 233.278 0.862305 260.665V284.864C0.862305 287.992 3.39811 290.528 6.52637 290.528H145.934C149.063 290.528 151.598 287.992 151.598 284.864V260.665C151.598 233.279 130.556 210.718 103.79 208.294ZM51.2249 162.521V155.338C51.2249 145.586 59.1585 137.653 68.9098 137.653H101.236V150.842C101.236 157.482 95.8345 162.884 89.1945 162.884H51.2249V162.521ZM51.2249 174.212H89.1945C93.5966 174.212 97.7172 172.987 101.236 170.862V183.068C101.236 196.856 90.0186 208.074 76.2306 208.074C62.4426 208.074 51.2249 196.856 51.2249 183.068V174.212ZM88.5584 219.402L76.2306 231.731L63.9028 219.402H88.5584ZM140.271 279.2H12.1904V267.872H35.6963C38.8246 267.872 41.3604 265.336 41.3604 262.208C41.3604 259.08 38.8246 256.544 35.6963 256.544H12.3972C14.2997 237.447 29.2795 222.153 48.2252 219.745L72.2255 243.745C73.2875 244.807 74.7285 245.404 76.2306 245.404C77.7327 245.404 79.1736 244.807 80.2356 243.745L104.236 219.745C124.527 222.324 140.271 239.685 140.271 260.665V279.2Z" fill="#FFCE70"/>
<path d="M243.055 82.4975C242.645 82.3808 242.226 82.3151 241.803 82.2925C248.008 75.7714 251.828 66.9621 251.828 57.272V27.4723C251.828 27.1998 251.802 26.9342 251.765 26.6725C251.803 26.1344 251.828 25.5929 251.828 25.0458V6.19238C251.828 3.06412 249.292 0.52832 246.164 0.52832H208.173C192.175 0.52832 179.16 13.5438 179.16 29.5413V57.2715C179.16 66.9615 182.981 75.7709 189.185 82.2919C188.763 82.3145 188.343 82.3802 187.933 82.4969C161.168 84.9217 140.126 107.482 140.126 134.868V159.067C140.126 162.195 142.662 164.731 145.79 164.731H191.363C194.491 164.731 197.027 162.195 197.027 159.067C197.027 155.938 194.491 153.403 191.363 153.403H151.454V134.869C151.454 113.888 167.197 96.5274 187.488 93.9485L211.489 117.949C212.595 119.055 214.044 119.608 215.494 119.608C216.943 119.608 218.393 119.055 219.499 117.949L243.499 93.9485C263.791 96.5279 279.534 113.888 279.534 134.869V153.403H237.809C234.681 153.403 232.145 155.939 232.145 159.067C232.145 162.195 234.681 164.731 237.809 164.731H285.198C288.327 164.731 290.862 162.195 290.862 159.067V134.869C290.862 107.483 269.82 84.9223 243.055 82.4975ZM215.495 105.934L203.167 93.6059H227.823L215.495 105.934ZM240.5 57.2715C240.5 71.0595 229.283 82.2772 215.495 82.2772C201.707 82.2772 190.489 71.0601 190.489 57.272V48.4157H228.459C232.861 48.4157 236.981 47.1906 240.5 45.066V57.2715ZM240.5 25.0458C240.5 31.6858 235.099 37.0876 228.459 37.0876H190.489V36.7245V29.5413C190.489 19.7901 198.423 11.8564 208.174 11.8564H240.5V25.0458Z" fill="#FFCE70"/>
<path d="M219.501 155.061C218.447 154.007 216.986 153.401 215.496 153.401C214.001 153.401 212.545 154.007 211.492 155.061C210.432 156.114 209.832 157.576 209.832 159.065C209.832 160.561 210.432 162.016 211.492 163.07C212.545 164.129 214.001 164.729 215.496 164.729C216.986 164.729 218.447 164.129 219.501 163.07C220.554 162.016 221.16 160.561 221.16 159.065C221.16 157.576 220.554 156.114 219.501 155.061Z" fill="#FFCE70"/>
<path d="M152.322 79.785L128.634 56.0973V28.8486C128.634 13.2328 115.93 0.52832 100.314 0.52832H29.1826C13.5668 0.52832 0.862305 13.2328 0.862305 28.8486V78.6924C0.862305 94.3082 13.5668 107.013 29.1826 107.013H100.314C112.023 107.013 122.235 99.9853 126.519 89.4541H148.317C150.607 89.4541 152.673 88.0738 153.55 85.9577C154.426 83.8416 153.942 81.4049 152.322 79.785ZM122.387 78.126C119.748 78.126 117.459 79.9481 116.867 82.5202C115.084 90.2709 108.277 95.6846 100.314 95.6846H29.1826C19.8131 95.6846 12.1904 88.0619 12.1904 78.6924V28.8486C12.1904 19.4791 19.8131 11.8564 29.1826 11.8564H100.314C109.683 11.8564 117.306 19.4791 117.306 28.8486V58.4434C117.306 59.9455 117.903 61.3864 118.965 62.4484L134.642 78.126H122.387Z" fill="#FFCE70"/>
<path d="M262.542 184.044H191.411C179.702 184.044 169.49 191.071 165.206 201.603H143.409C141.118 201.603 139.052 202.983 138.175 205.099C137.299 207.215 137.784 209.652 139.403 211.272L163.091 234.959V262.208C163.091 277.824 175.795 290.528 191.411 290.528H262.542C278.158 290.528 290.863 277.824 290.863 262.208V212.364C290.863 196.748 278.158 184.044 262.542 184.044ZM279.535 262.208C279.535 271.577 271.912 279.2 262.542 279.2H191.411C182.042 279.2 174.419 271.577 174.419 262.208V232.613C174.419 231.111 173.822 229.67 172.76 228.608L157.083 212.931H169.338C171.977 212.931 174.266 211.109 174.858 208.536C176.641 200.786 183.448 195.372 191.411 195.372H262.542C271.912 195.372 279.535 202.995 279.535 212.364V262.208Z" fill="#FFCE70"/>
<path d="M252.435 222.216C250.224 220.004 246.638 220.004 244.426 222.216L229.369 237.272L222.368 230.271C220.156 228.059 216.569 228.059 214.357 230.271C212.145 232.483 212.145 236.069 214.357 238.282L225.363 249.288C226.47 250.394 227.919 250.947 229.369 250.947C230.818 250.947 232.268 250.394 233.374 249.288L252.435 230.226C254.647 228.014 254.647 224.428 252.435 222.216Z" fill="#FFCE70"/>
<path d="M90.4982 38.0626C89.8287 28.3504 81.9999 20.5216 72.2877 19.8521C66.7805 19.4731 61.5311 21.331 57.5096 25.0851C53.5442 28.7866 51.2695 34.0202 51.2695 39.4429C51.2701 42.5718 53.8059 45.1076 56.9342 45.1076C60.0624 45.1076 62.5982 42.5718 62.5982 39.4435C62.5982 37.115 63.5362 34.957 65.2399 33.3665C66.9408 31.7783 69.1696 30.9899 71.5095 31.1541C75.6097 31.4368 78.9147 34.7417 79.1973 38.842C79.4833 42.9875 76.7657 46.651 72.7357 47.5527C68.3246 48.5394 65.2439 52.3745 65.2439 56.8786V59.9004C65.2439 63.0286 67.7797 65.5644 70.9079 65.5644C74.0362 65.5644 76.572 63.0286 76.572 59.9004V58.2521C85.3479 55.6342 91.1394 47.3607 90.4982 38.0626Z" fill="#FFCE70"/>
<path d="M74.9147 77.5707C73.8611 76.5172 72.3998 75.9111 70.9102 75.9111C69.4148 75.9111 67.9592 76.5172 66.9057 77.5707C65.8465 78.6242 65.2461 80.0855 65.2461 81.5752C65.2461 83.0648 65.8465 84.5262 66.9057 85.5797C67.9592 86.6332 69.4148 87.2393 70.9102 87.2393C72.3998 87.2393 73.8611 86.6332 74.9147 85.5797C75.9682 84.5262 76.5742 83.0648 76.5742 81.5752C76.5742 80.0855 75.9682 78.6242 74.9147 77.5707Z" fill="#FFCE70"/>
<path d="M62.357 258.204C61.3035 257.15 59.8422 256.544 58.3525 256.544C56.8629 256.544 55.4016 257.15 54.348 258.204C53.2945 259.257 52.6885 260.718 52.6885 262.208C52.6885 263.698 53.2945 265.159 54.348 266.213C55.4016 267.266 56.8629 267.872 58.3525 267.872C59.8422 267.872 61.3035 267.266 62.357 266.213C63.4105 265.159 64.0166 263.698 64.0166 262.208C64.0166 260.718 63.4105 259.257 62.357 258.204Z" fill="#FFCE70"/>
</svg>
