<svg width="23" height="19" viewBox="0 0 23 19" fill="none" xmlns="http://www.w3.org/2000/svg">
<path d="M7.32827 0.652344H21.7933C22.0585 0.652344 22.3128 0.757701 22.5004 0.945237C22.6879 1.13277 22.7933 1.38713 22.7933 1.65234V17.6523C22.7933 17.9176 22.6879 18.1719 22.5004 18.3595C22.3128 18.547 22.0585 18.6523 21.7933 18.6523H7.32827C7.16367 18.6524 7.00162 18.6118 6.85648 18.5341C6.71135 18.4565 6.58762 18.3443 6.49627 18.2073L1.16327 10.2073C1.05363 10.043 0.995117 9.84989 0.995117 9.65234C0.995117 9.4548 1.05363 9.26167 1.16327 9.09734L6.49627 1.09734C6.58762 0.960428 6.71135 0.848176 6.85648 0.770549C7.00162 0.692922 7.16367 0.652319 7.32827 0.652344ZM13.7933 8.23834L10.9653 5.40934L9.55027 6.82434L12.3793 9.65234L9.55027 12.4803L10.9653 13.8953L13.7933 11.0663L16.6213 13.8953L18.0363 12.4803L15.2073 9.65234L18.0363 6.82434L16.6213 5.40934L13.7933 8.23834Z" fill="black"/>
</svg>
