<svg width="217.5" height="241.67" viewBox="0 0 291 288" fill="none" xmlns="http://www.w3.org/2000/svg">
    <path d="M285.672 215.102H278.993L281.081 210.926C284.092 204.883 285.664 198.224 285.672 191.472V144.424C285.674 139.467 284.828 134.546 283.169 129.875L242.249 14.6182C240.883 9.67268 237.609 5.47227 233.146 2.94105C228.683 0.409825 223.398 -0.244871 218.452 1.12099C213.507 2.48685 209.306 5.76138 206.775 10.2242C204.244 14.6871 203.589 19.9726 204.955 24.9182L223.578 81.5945C219.455 81.7312 215.485 83.186 212.249 85.7453C209.014 88.3046 206.684 91.8337 205.602 95.8144L190.411 152.52C186.158 168.267 188.227 185.054 196.177 199.297L204.955 215.102H198.671C197.39 215.102 196.16 215.612 195.254 216.518C194.347 217.425 193.838 218.654 193.838 219.936V248.936C193.838 250.218 194.347 251.447 195.254 252.354C196.16 253.26 197.39 253.77 198.671 253.77H203.505V282.77C203.505 284.052 204.014 285.281 204.92 286.188C205.827 287.094 207.056 287.603 208.338 287.603H276.006C277.288 287.603 278.517 287.094 279.423 286.188C280.33 285.281 280.839 284.052 280.839 282.77V253.77H285.672C286.954 253.77 288.184 253.26 289.09 252.354C289.997 251.447 290.506 250.218 290.506 248.936V219.936C290.506 218.654 289.997 217.425 289.09 216.518C288.184 215.612 286.954 215.102 285.672 215.102ZM204.626 194.599C197.899 182.547 196.147 168.344 199.744 155.019L214.941 98.3181C215.31 96.9412 215.979 95.663 216.9 94.575C217.821 93.4871 218.971 92.6163 220.268 92.025C221.565 91.4338 222.977 91.1367 224.402 91.1551C225.828 91.1734 227.231 91.5068 228.513 92.1313L228.585 92.1652C230.582 93.1597 232.174 94.8143 233.09 96.8484C234.006 98.8825 234.191 101.171 233.612 103.325L222.239 145.777C221.914 147.013 222.093 148.328 222.735 149.433C223.376 150.538 224.43 151.344 225.664 151.674C226.899 152.004 228.214 151.832 229.322 151.195C230.43 150.559 231.241 149.509 231.577 148.276L242.95 105.824C244.033 101.887 243.821 97.7057 242.347 93.8974C240.873 90.0892 238.214 86.8556 234.762 84.6734L214.216 22.1535C213.82 20.7191 213.763 19.2126 214.048 17.7523C214.333 16.292 214.953 14.9178 215.859 13.7374C216.765 12.5571 217.932 11.6029 219.269 10.9498C220.605 10.2967 222.076 9.96245 223.563 9.97334C225.751 9.99356 227.87 10.7434 229.583 12.104C231.297 13.4646 232.507 15.3581 233.022 17.4844L274.072 133.109C275.357 136.743 276.01 140.57 276.006 144.424V191.472C276.001 196.725 274.778 201.905 272.434 206.605L268.185 215.102H216.014L204.626 194.599ZM271.172 277.937H213.172V253.77H271.172V277.937ZM280.839 244.103H203.505V224.769H280.839V244.103Z" fill="#FFCE70" />
    <path d="M142.339 118.967C141.57 119.411 140.937 120.058 140.511 120.838C140.085 121.617 139.883 122.499 139.925 123.386C139.968 124.274 140.254 125.132 140.752 125.867C141.251 126.603 141.942 127.186 142.751 127.554L180.6 144.772C181.301 145.09 182.067 145.237 182.836 145.2C183.605 145.163 184.353 144.943 185.02 144.558C185.686 144.174 186.251 143.635 186.668 142.988C187.084 142.341 187.34 141.604 187.414 140.838L191.428 99.4503C191.514 98.5661 191.354 97.6755 190.966 96.8761C190.579 96.0768 189.979 95.3997 189.231 94.9193C188.484 94.4389 187.619 94.1736 186.731 94.1527C185.843 94.1318 184.966 94.356 184.197 94.8007L175.667 99.7256L130.972 28.7988C130.306 27.7423 129.257 26.9847 128.044 26.6849C126.831 26.3852 125.55 26.5666 124.468 27.1911L107.727 36.8564C106.617 37.4971 105.807 38.5526 105.475 39.7906L105.451 39.8793C105.294 40.5107 105.266 41.1673 105.369 41.8097C105.472 42.4521 105.704 43.067 106.05 43.6177L150.549 114.232L142.339 118.967ZM161.404 113.327L116.911 42.7148L125.28 37.8868L169.97 108.812C170.635 109.869 171.684 110.628 172.897 110.928C174.109 111.229 175.391 111.048 176.473 110.425L180.896 107.867L178.445 133.17L155.306 122.642L159.732 120.09C160.301 119.771 160.797 119.337 161.189 118.816C161.582 118.295 161.861 117.697 162.01 117.062C162.165 116.431 162.192 115.775 162.088 115.133C161.984 114.491 161.751 113.877 161.404 113.327Z" fill="#FFCE70" />
    <path d="M100.601 152.522L85.4092 95.8169C84.3274 91.8356 81.998 88.306 78.7628 85.7459C75.5277 83.1858 71.5571 81.73 67.4338 81.5922L86.1342 24.6694C87.5154 19.7289 86.8775 14.4422 84.3608 9.97209C81.8441 5.502 77.6547 2.21475 72.7143 0.83351C67.7739 -0.547732 62.4871 0.0901744 58.017 2.60689C53.5469 5.12362 50.2597 9.313 48.8784 14.2534L7.84295 129.883C6.18365 134.552 5.33683 139.471 5.33925 144.426V191.474C5.34776 198.227 6.91937 204.885 9.93097 210.929L12.019 215.105H5.33925C4.05735 215.105 2.82796 215.614 1.92153 216.521C1.01509 217.427 0.505859 218.656 0.505859 219.938V248.939C0.505859 250.221 1.01509 251.45 1.92153 252.356C2.82796 253.263 4.05735 253.772 5.33925 253.772H10.1726V282.772C10.1726 284.054 10.6819 285.284 11.5883 286.19C12.4947 287.097 13.7241 287.606 15.006 287.606H82.6735C83.9554 287.606 85.1848 287.097 86.0912 286.19C86.9977 285.284 87.5069 284.054 87.5069 282.772V253.772H92.3403C93.6222 253.772 94.8516 253.263 95.758 252.356C96.6644 251.45 97.1737 250.221 97.1737 248.939V219.938C97.1737 218.656 96.6644 217.427 95.758 216.521C94.8516 215.614 93.6222 215.105 92.3403 215.105H86.0569L94.8391 199.3C102.788 185.056 104.855 168.269 100.601 152.522ZM77.8401 277.939H19.8394V253.772H77.8401V277.939ZM87.5069 244.105H10.1726V224.772H87.5069V244.105ZM86.3855 194.602L74.9981 215.105H22.8265L18.5779 206.608C16.2337 201.907 15.0111 196.727 15.006 191.474V144.426C15.0013 140.572 15.6552 136.745 16.9394 133.111L58.086 17.1099C58.5792 15.2577 59.6118 13.5939 61.0528 12.3299C62.4937 11.0659 64.2779 10.2589 66.1786 10.0112C68.0793 9.76362 70.0107 10.0866 71.7273 10.9392C73.444 11.7918 74.8685 13.1355 75.8197 14.7996C77.0855 16.9394 77.4637 19.4896 76.8734 21.9047L56.2493 84.6759C52.7977 86.8581 50.1387 90.0917 48.6645 93.9C47.1903 97.7082 46.9789 101.889 48.0616 105.827L59.4346 148.278C59.7707 149.511 60.5814 150.561 61.6895 151.198C62.7975 151.835 64.1127 152.007 65.3472 151.676C66.5818 151.346 67.6352 150.54 68.2772 149.435C68.9191 148.33 69.0973 147.016 68.7727 145.78L57.3997 103.328C56.8211 101.173 57.0055 98.885 57.9217 96.8509C58.8379 94.8168 60.4294 93.1622 62.4264 92.1677L62.4989 92.1338C63.055 91.8623 63.6361 91.6454 64.2341 91.4862C66.7101 90.8233 69.3479 91.1709 71.5677 92.4525C73.7874 93.7341 75.4073 95.8448 76.0711 98.3206L91.2673 155.021C94.8643 168.346 93.1125 182.55 86.3855 194.602Z" fill="#FFCE70" />
    <path d="M130.926 105.549C131.915 101.855 131.788 97.9512 130.559 94.3303C129.329 90.7095 127.054 87.5344 124.021 85.2066C120.987 82.8788 117.331 81.5028 113.515 81.2528C109.7 81.0027 105.896 81.8897 102.584 83.8016C99.2727 85.7135 96.6025 88.5644 94.9113 91.9939C93.22 95.4234 92.5837 99.2774 93.0828 103.068C93.5819 106.86 95.194 110.418 97.7153 113.292C100.236 116.167 103.554 118.23 107.247 119.22C112.2 120.547 117.477 119.852 121.918 117.288C126.358 114.724 129.599 110.502 130.926 105.549ZM102.914 98.043C103.408 96.1962 104.44 94.5377 105.877 93.2771C107.315 92.0164 109.094 91.2104 110.989 90.9608C112.885 90.7113 114.812 91.0294 116.527 91.8751C118.241 92.7207 119.667 94.0558 120.623 95.7115C121.579 97.3673 122.022 99.2693 121.897 101.177C121.772 103.085 121.084 104.913 119.92 106.43C118.756 107.947 117.169 109.084 115.358 109.699C113.548 110.313 111.596 110.377 109.749 109.882C107.273 109.219 105.161 107.599 103.879 105.378C102.597 103.158 102.25 100.519 102.914 98.043Z" fill="#FFCE70" />
    <path d="M159.941 53.2793C158.952 56.9728 159.08 60.8769 160.309 64.4978C161.538 68.1187 163.813 71.2938 166.847 73.6215C169.88 75.9493 173.536 77.3253 177.352 77.5754C181.167 77.8255 184.971 76.9385 188.283 75.0265C191.595 73.1146 194.265 70.2637 195.956 66.8342C197.647 63.4047 198.284 59.5508 197.784 55.7597C197.285 51.9686 195.673 48.4106 193.152 45.5357C190.631 42.6608 187.314 40.5981 183.62 39.6084C178.667 38.2813 173.39 38.9761 168.949 41.5398C164.509 44.1036 161.269 48.3264 159.941 53.2793ZM187.954 60.7851C187.459 62.6319 186.427 64.2905 184.99 65.5511C183.553 66.8117 181.774 67.6177 179.878 67.8673C177.982 68.1168 176.055 67.7987 174.341 66.9531C172.626 66.1075 171.201 64.7723 170.245 63.1166C169.289 61.4608 168.845 59.5588 168.97 57.651C169.095 55.7431 169.783 53.9152 170.947 52.3984C172.111 50.8816 173.698 49.744 175.509 49.1294C177.319 48.5149 179.271 48.451 181.118 48.9458C183.595 49.6094 185.706 51.2295 186.988 53.4498C188.27 55.6701 188.617 58.3087 187.954 60.7851Z" fill="#FFCE70" />
</svg>