<svg width="21" height="20" viewBox="0 0 21 20" fill="none" xmlns="http://www.w3.org/2000/svg">
    <path d="M17.5 20H3.5C2.70435 20 1.94129 19.6839 1.37868 19.1213C0.816071 18.5587 0.5 17.7956 0.5 17V1C0.5 0.734784 0.605357 0.48043 0.792893 0.292893C0.98043 0.105357 1.23478 0 1.5 0H15.5C15.7652 0 16.0196 0.105357 16.2071 0.292893C16.3946 0.48043 16.5 0.734784 16.5 1V13H20.5V17C20.5 17.7956 20.1839 18.5587 19.6213 19.1213C19.0587 19.6839 18.2956 20 17.5 20ZM16.5 15V17C16.5 17.2652 16.6054 17.5196 16.7929 17.7071C16.9804 17.8946 17.2348 18 17.5 18C17.7652 18 18.0196 17.8946 18.2071 17.7071C18.3946 17.5196 18.5 17.2652 18.5 17V15H16.5ZM4.5 5V7H12.5V5H4.5ZM4.5 9V11H12.5V9H4.5ZM4.5 13V15H9.5V13H4.5Z" fill="#9B9B9B" />
</svg>