<svg width="15" height="13" viewBox="0 0 15 13" fill="none" xmlns="http://www.w3.org/2000/svg">
<path d="M14.4429 7.33675H12.3953V5.25341H14.4429C14.7506 5.25341 15 4.98964 15 4.66385C15 4.33804 14.7506 4.07411 14.4429 4.07411H12.3953V1.18336C12.3953 0.761389 12.3166 0.451669 12.1613 0.263002C12.0137 0.083518 11.8197 0 11.551 0C11.2947 0 11.108 0.082942 10.9632 0.261306C10.8098 0.450165 10.7319 0.760461 10.7319 1.18356V4.07446H6.88025L5.24257 1.45091C5.10242 1.21677 4.97063 0.997448 4.84265 0.786925C4.72743 0.597329 4.61505 0.442965 4.5089 0.327704C4.41493 0.225659 4.30784 0.146684 4.18258 0.0859819C4.0644 0.0288633 3.91414 0.000192012 3.73638 0.000192012C3.50966 0.000192012 3.30385 0.0659504 3.10678 0.201051C2.91176 0.33468 2.77695 0.499892 2.69462 0.706159C2.62234 0.902186 2.58411 1.20256 2.58411 1.5903V4.07427H0.556853C0.249243 4.0743 0 4.33823 0 4.66401C0 4.9898 0.249243 5.25357 0.556883 5.25357H2.58414V7.33713H0.556883C0.249243 7.33713 0 7.601 0 7.92688C0 8.25257 0.249243 8.51624 0.556883 8.51624H2.58414V11.8167C2.58414 12.2262 2.66542 12.5328 2.8264 12.7276C2.97949 12.9134 3.17361 12.9996 3.43721 12.9996C3.69153 12.9996 3.88413 12.913 4.04384 12.7269C4.20739 12.5362 4.29012 12.2298 4.29012 11.8168V8.51624H7.77542L9.66149 11.578C9.79264 11.7804 9.92805 11.9847 10.0631 12.185C10.1849 12.3649 10.3179 12.5234 10.4581 12.6558C10.5844 12.7755 10.7199 12.8632 10.8606 12.9168C11.0055 12.972 11.1749 13 11.3628 13C11.8729 13 12.3953 12.8347 12.3953 11.6087V8.51624H14.4429C14.7505 8.51624 14.9999 8.25218 14.9999 7.92649C15 7.60081 14.7506 7.33675 14.4429 7.33675ZM10.7319 5.25338V7.33672H8.91705L7.6167 5.25338H10.7319ZM4.29015 2.85955L5.03855 4.07411H4.29015V2.85955ZM4.29015 7.33675V5.25341H5.76524L7.04882 7.33675H4.29015ZM10.7319 10.2446L9.6533 8.51624H10.7319V10.2446Z" fill="#1A1A1A"/>
</svg>
