<svg width="21" height="22" viewBox="0 0 21 22" fill="none" xmlns="http://www.w3.org/2000/svg">
<path d="M18.5829 9.50178L19.7849 10.2228C19.859 10.2672 19.9204 10.33 19.963 10.4052C20.0056 10.4804 20.028 10.5654 20.028 10.6518C20.028 10.7382 20.0056 10.8232 19.963 10.8983C19.9204 10.9735 19.859 11.0364 19.7849 11.0808L10.4999 16.6518L1.21485 11.0808C1.1407 11.0364 1.07932 10.9735 1.0367 10.8983C0.994082 10.8232 0.97168 10.7382 0.97168 10.6518C0.97168 10.5654 0.994082 10.4804 1.0367 10.4052C1.07932 10.33 1.1407 10.2672 1.21485 10.2228L2.41685 9.50178L10.4999 14.3518L18.5829 9.50178ZM18.5829 14.2018L19.7849 14.9228C19.859 14.9672 19.9204 15.03 19.963 15.1052C20.0056 15.1804 20.028 15.2654 20.028 15.3518C20.028 15.4382 20.0056 15.5232 19.963 15.5983C19.9204 15.6735 19.859 15.7364 19.7849 15.7808L11.0149 21.0428C10.8593 21.1362 10.6813 21.1856 10.4999 21.1856C10.3184 21.1856 10.1404 21.1362 9.98485 21.0428L1.21485 15.7808C1.1407 15.7364 1.07932 15.6735 1.0367 15.5983C0.994082 15.5232 0.97168 15.4382 0.97168 15.3518C0.97168 15.2654 0.994082 15.1804 1.0367 15.1052C1.07932 15.03 1.1407 14.9672 1.21485 14.9228L2.41685 14.2018L10.4999 19.0518L18.5829 14.2018ZM11.0139 0.310779L19.7849 5.57278C19.859 5.61717 19.9204 5.68003 19.963 5.75521C20.0056 5.8304 20.028 5.91535 20.028 6.00178C20.028 6.0882 20.0056 6.17316 19.963 6.24834C19.9204 6.32353 19.859 6.38639 19.7849 6.43078L10.4999 12.0018L1.21485 6.43078C1.1407 6.38639 1.07932 6.32353 1.0367 6.24834C0.994082 6.17316 0.97168 6.0882 0.97168 6.00178C0.97168 5.91535 0.994082 5.8304 1.0367 5.75521C1.07932 5.68003 1.1407 5.61717 1.21485 5.57278L9.98485 0.310779C10.1404 0.217335 10.3184 0.167969 10.4999 0.167969C10.6813 0.167969 10.8593 0.217335 11.0149 0.310779H11.0139Z" fill="#9B9B9B"/>
</svg>
