<svg width="291" height="288" viewBox="0 0 291 280" fill="none" xmlns="http://www.w3.org/2000/svg">
<path d="M289.865 153.28C287.261 127.091 275.561 102.4 256.918 83.7564C240.985 67.8248 221.485 57.5869 200.966 53.0346V38.6431C209.347 36.5581 215.576 28.9721 215.576 19.9554C215.576 9.33623 206.937 0.697266 196.318 0.697266H155.536C144.917 0.697266 136.278 9.33623 136.278 19.9554C136.278 28.9716 142.507 36.5576 150.887 38.6431V53.0748C130.431 57.6463 110.995 67.8701 95.1086 83.7569C91.632 87.2336 88.426 90.8807 85.4915 94.6712C85.3493 94.6604 85.2071 94.6497 85.0621 94.6497H44.6988C41.5711 94.6497 39.0346 97.1855 39.0346 100.314C39.0346 103.442 41.5711 105.978 44.6988 105.978H77.7842C73.6313 112.931 70.2826 120.232 67.7338 127.749H6.08798C2.96024 127.749 0.423828 130.285 0.423828 133.413C0.423828 136.541 2.96024 139.077 6.08798 139.077H64.533C62.9005 146.243 61.9637 153.535 61.7218 160.848H36.6744C33.5467 160.848 31.0102 163.384 31.0102 166.512C31.0102 169.641 33.5467 172.177 36.6744 172.177H61.9025C62.3806 179.508 63.5593 186.801 65.4392 193.948H28.7446C25.6168 193.948 23.0804 196.484 23.0804 199.612C23.0804 202.74 25.6168 205.276 28.7446 205.276H69.0541C74.6106 219.975 83.2943 233.752 95.1086 245.566C113.77 264.228 138.486 275.931 164.703 278.521C168.445 278.89 172.189 279.073 175.929 279.073C198.031 279.073 219.853 272.677 238.369 260.619C240.991 258.912 241.732 255.403 240.025 252.781C238.318 250.16 234.809 249.419 232.187 251.126C191.656 277.519 137.375 271.812 103.119 237.556C62.9249 197.362 62.9249 131.962 103.119 91.7677C143.312 51.5744 208.712 51.5744 248.907 91.7677C283.118 125.979 288.855 180.214 262.549 220.725C260.846 223.349 261.592 226.857 264.215 228.56C266.839 230.264 270.347 229.518 272.05 226.895C286.105 205.249 292.432 179.106 289.865 153.28ZM147.606 19.9559C147.606 15.5832 151.163 12.0261 155.536 12.0261H196.318C200.691 12.0261 204.248 15.5832 204.248 19.9559C204.248 24.3287 200.691 27.8858 196.318 27.8858H195.302H156.552H155.536C151.163 27.8858 147.606 24.3281 147.606 19.9559ZM162.216 51.1275V39.2141H189.638V51.1071C180.532 50.0241 171.32 50.0309 162.216 51.1275Z" fill="#FFCE70"/>
<path d="M252.915 235.895C251.42 235.895 249.964 236.501 248.911 237.554C247.852 238.608 247.251 240.069 247.251 241.559C247.251 243.048 247.852 244.51 248.911 245.563C249.964 246.622 251.42 247.223 252.915 247.223C254.405 247.223 255.86 246.622 256.92 245.563C257.973 244.51 258.579 243.048 258.579 241.559C258.579 240.069 257.974 238.608 256.92 237.554C255.86 236.501 254.404 235.895 252.915 235.895Z" fill="#FFCE70"/>
<path d="M176.013 76.793C127.563 76.793 88.1455 116.21 88.1455 164.66C88.1455 213.111 127.563 252.528 176.013 252.528C224.463 252.528 263.88 213.111 263.88 164.66C263.88 116.21 224.463 76.793 176.013 76.793ZM176.013 241.199C133.809 241.199 99.4738 206.864 99.4738 164.66C99.4738 122.457 133.809 88.1213 176.013 88.1213C218.217 88.1213 252.552 122.457 252.552 164.66C252.552 206.864 218.217 241.199 176.013 241.199Z" fill="#FFCE70"/>
<path d="M211.842 120.821L183.787 148.875C181.441 147.715 178.802 147.06 176.013 147.06C173.223 147.06 170.584 147.715 168.238 148.875L155.682 136.319C153.47 134.107 149.885 134.107 147.672 136.319C145.46 138.531 145.46 142.118 147.672 144.33L160.227 156.885C159.067 159.231 158.412 161.87 158.412 164.66C158.412 174.365 166.307 182.261 176.013 182.261C185.718 182.261 193.613 174.365 193.613 164.66C193.613 161.87 192.958 159.231 191.798 156.885L219.029 129.654L219.852 128.831C222.064 126.619 222.064 123.033 219.852 120.821C217.64 118.609 214.055 118.609 211.842 120.821ZM176.013 170.933C172.554 170.933 169.74 168.119 169.74 164.66C169.74 161.202 172.554 158.388 176.013 158.388C179.471 158.388 182.285 161.202 182.285 164.66C182.285 168.119 179.471 170.933 176.013 170.933Z" fill="#FFCE70"/>
<path d="M236.574 159.065H231.326C228.198 159.065 225.662 161.601 225.662 164.729C225.662 167.858 228.198 170.394 231.326 170.394H236.574C239.702 170.394 242.238 167.858 242.238 164.729C242.238 161.601 239.702 159.065 236.574 159.065Z" fill="#FFCE70"/>
<path d="M120.699 158.928H115.452C112.324 158.928 109.788 161.464 109.788 164.592C109.788 167.72 112.324 170.256 115.452 170.256H120.699C123.827 170.256 126.363 167.72 126.363 164.592C126.363 161.464 123.827 158.928 120.699 158.928Z" fill="#FFCE70"/>
<path d="M176.082 115.012C179.21 115.012 181.746 112.476 181.746 109.348V104.101C181.746 100.972 179.21 98.4365 176.082 98.4365C172.954 98.4365 170.418 100.972 170.418 104.101V109.348C170.418 112.476 172.954 115.012 176.082 115.012Z" fill="#FFCE70"/>
<path d="M175.944 214.31C172.817 214.31 170.28 216.845 170.28 219.974V225.221C170.28 228.349 172.817 230.885 175.944 230.885C179.072 230.885 181.608 228.349 181.608 225.221V219.974C181.608 216.845 179.072 214.31 175.944 214.31Z" fill="#FFCE70"/>
<path d="M6.08789 193.945C4.59824 193.945 3.13691 194.551 2.0834 195.605C1.02988 196.658 0.423828 198.12 0.423828 199.609C0.423828 201.105 1.02932 202.56 2.0834 203.614C3.13748 204.667 4.59824 205.273 6.08789 205.273C7.57754 205.273 9.03887 204.667 10.0918 203.614C11.1453 202.56 11.752 201.099 11.752 199.609C11.752 198.12 11.1459 196.658 10.0918 195.605C9.03887 194.551 7.57754 193.945 6.08789 193.945Z" fill="#FFCE70"/>
</svg>
