<svg width="22" height="14" viewBox="0 0 22 14" fill="none" xmlns="http://www.w3.org/2000/svg">
<path d="M7 0H15C16.8565 2.76642e-08 18.637 0.737498 19.9497 2.05025C21.2625 3.36301 22 5.14348 22 7C22 8.85652 21.2625 10.637 19.9497 11.9497C18.637 13.2625 16.8565 14 15 14H7C5.14348 14 3.36301 13.2625 2.05025 11.9497C0.737498 10.637 0 8.85652 0 7C0 5.14348 0.737498 3.36301 2.05025 2.05025C3.36301 0.737498 5.14348 2.76642e-08 7 0ZM15 10C15.7956 10 16.5587 9.68393 17.1213 9.12132C17.6839 8.55871 18 7.79565 18 7C18 6.20435 17.6839 5.44129 17.1213 4.87868C16.5587 4.31607 15.7956 4 15 4C14.2044 4 13.4413 4.31607 12.8787 4.87868C12.3161 5.44129 12 6.20435 12 7C12 7.79565 12.3161 8.55871 12.8787 9.12132C13.4413 9.68393 14.2044 10 15 10Z" fill="#1A1F4C"/>
</svg>
