<svg width="22" height="14" viewBox="0 0 22 14" fill="none" xmlns="http://www.w3.org/2000/svg">
<path d="M7 2C5.67392 2 4.40215 2.52678 3.46447 3.46447C2.52678 4.40215 2 5.67392 2 7C2 8.32608 2.52678 9.59785 3.46447 10.5355C4.40215 11.4732 5.67392 12 7 12H15C16.3261 12 17.5979 11.4732 18.5355 10.5355C19.4732 9.59785 20 8.32608 20 7C20 5.67392 19.4732 4.40215 18.5355 3.46447C17.5979 2.52678 16.3261 2 15 2H7ZM7 0H15C16.8565 2.76642e-08 18.637 0.737498 19.9497 2.05025C21.2625 3.36301 22 5.14348 22 7C22 8.85652 21.2625 10.637 19.9497 11.9497C18.637 13.2625 16.8565 14 15 14H7C5.14348 14 3.36301 13.2625 2.05025 11.9497C0.737498 10.637 0 8.85652 0 7C0 5.14348 0.737498 3.36301 2.05025 2.05025C3.36301 0.737498 5.14348 2.76642e-08 7 0ZM7 10C6.20435 10 5.44129 9.68393 4.87868 9.12132C4.31607 8.55871 4 7.79565 4 7C4 6.20435 4.31607 5.44129 4.87868 4.87868C5.44129 4.31607 6.20435 4 7 4C7.79565 4 8.55871 4.31607 9.12132 4.87868C9.68393 5.44129 10 6.20435 10 7C10 7.79565 9.68393 8.55871 9.12132 9.12132C8.55871 9.68393 7.79565 10 7 10Z" fill="#5F5F5F"/>
</svg>
